<svg width="90" height="24" viewBox="0 0 90 24" fill="none" xmlns="http://www.w3.org/2000/svg">
<path d="M0.44 1.2H7.16C9.464 1.2 11.4 2.008 12.968 3.624C14.536 5.24 15.32 7.232 15.32 9.6C15.32 11.984 14.536 13.984 12.968 15.6C11.416 17.2 9.48 18 7.16 18H0.44V1.2ZM4.28 14.304H7.16C8.488 14.304 9.56 13.88 10.376 13.032C11.208 12.184 11.624 11.04 11.624 9.6C11.624 8.16 11.208 7.024 10.376 6.192C9.56 5.328 8.488 4.896 7.16 4.896H4.28V14.304ZM20.7711 4.32C20.3551 4.736 19.8511 4.944 19.2591 4.944C18.6671 4.944 18.1551 4.736 17.7231 4.32C17.3071 3.888 17.0991 3.376 17.0991 2.784C17.0991 2.192 17.3071 1.688 17.7231 1.272C18.1551 0.839999 18.6671 0.623999 19.2591 0.623999C19.8511 0.623999 20.3551 0.839999 20.7711 1.272C21.2031 1.688 21.4191 2.192 21.4191 2.784C21.4191 3.376 21.2031 3.888 20.7711 4.32ZM21.0591 18H17.4591V6H21.0591V18ZM32.6014 7.224V6H36.1054V17.4C36.1054 19.288 35.4894 20.712 34.2574 21.672C33.0414 22.648 31.5454 23.136 29.7694 23.136C27.0494 23.136 25.1534 22.168 24.0814 20.232L27.1534 18.456C27.7134 19.464 28.6254 19.968 29.8894 19.968C30.7534 19.968 31.4174 19.744 31.8814 19.296C32.3614 18.848 32.6014 18.216 32.6014 17.4V16.296C31.7534 17.336 30.5854 17.856 29.0974 17.856C27.4174 17.856 26.0094 17.264 24.8734 16.08C23.7534 14.896 23.1934 13.456 23.1934 11.76C23.1934 10.064 23.7534 8.632 24.8734 7.464C25.9934 6.264 27.4014 5.664 29.0974 5.664C30.5854 5.664 31.7534 6.184 32.6014 7.224ZM27.6094 13.776C28.1694 14.288 28.8654 14.544 29.6974 14.544C30.5294 14.544 31.2254 14.288 31.7854 13.776C32.3294 13.28 32.6014 12.608 32.6014 11.76C32.6014 10.912 32.3294 10.24 31.7854 9.744C31.2254 9.232 30.5294 8.976 29.6974 8.976C28.8654 8.976 28.1694 9.232 27.6094 9.744C27.0654 10.24 26.7934 10.912 26.7934 11.76C26.7934 12.608 27.0654 13.28 27.6094 13.776ZM42.1586 4.32C41.7426 4.736 41.2386 4.944 40.6466 4.944C40.0546 4.944 39.5426 4.736 39.1106 4.32C38.6946 3.888 38.4866 3.376 38.4866 2.784C38.4866 2.192 38.6946 1.688 39.1106 1.272C39.5426 0.839999 40.0546 0.623999 40.6466 0.623999C41.2386 0.623999 41.7426 0.839999 42.1586 1.272C42.5906 1.688 42.8066 2.192 42.8066 2.784C42.8066 3.376 42.5906 3.888 42.1586 4.32ZM42.4466 18H38.8466V6H42.4466V18ZM45.3009 1.2H51.6609C53.3249 1.2 54.7169 1.76 55.8369 2.88C56.9729 4.016 57.5409 5.376 57.5409 6.96C57.5409 8.544 56.9729 9.904 55.8369 11.04C54.7169 12.16 53.3249 12.72 51.6609 12.72H49.1409V18H45.3009V1.2ZM49.1409 9.12H51.6609C52.2529 9.12 52.7409 8.912 53.1249 8.496C53.5089 8.08 53.7009 7.568 53.7009 6.96C53.7009 6.352 53.5089 5.84 53.1249 5.424C52.7409 5.008 52.2529 4.8 51.6609 4.8H49.1409V9.12ZM73.648 15.816C71.952 17.496 69.888 18.336 67.456 18.336C65.024 18.336 62.96 17.496 61.264 15.816C59.568 14.136 58.72 12.064 58.72 9.6C58.72 7.136 59.568 5.064 61.264 3.384C62.96 1.704 65.024 0.863999 67.456 0.863999C69.888 0.863999 71.952 1.704 73.648 3.384C75.344 5.064 76.192 7.136 76.192 9.6C76.192 12.064 75.344 14.136 73.648 15.816ZM62.56 9.6C62.56 11.072 63.024 12.272 63.952 13.2C64.88 14.128 66.048 14.592 67.456 14.592C68.848 14.592 70.008 14.128 70.936 13.2C71.88 12.256 72.352 11.056 72.352 9.6C72.352 8.144 71.88 6.944 70.936 6C70.008 5.072 68.848 4.608 67.456 4.608C66.048 4.608 64.88 5.072 63.952 6C63.024 6.928 62.56 8.128 62.56 9.6ZM83.7247 18.336C82.0447 18.336 80.6287 17.976 79.4767 17.256C78.3247 16.52 77.5007 15.496 77.0047 14.184L80.3167 12.264C80.9887 13.816 82.1647 14.592 83.8447 14.592C85.3647 14.592 86.1247 14.136 86.1247 13.224C86.1247 12.712 85.8767 12.328 85.3807 12.072C84.8687 11.768 83.9567 11.44 82.6447 11.088C81.3007 10.72 80.1647 10.192 79.2367 9.504C78.2127 8.672 77.7007 7.496 77.7007 5.976C77.7007 4.424 78.2527 3.184 79.3567 2.256C80.4767 1.328 81.8047 0.863999 83.3407 0.863999C84.7167 0.863999 85.9327 1.192 86.9887 1.848C88.0447 2.488 88.8767 3.424 89.4847 4.656L86.2447 6.552C85.6367 5.256 84.6687 4.608 83.3407 4.608C82.7807 4.608 82.3407 4.728 82.0207 4.968C81.7007 5.208 81.5407 5.512 81.5407 5.88C81.5407 6.28 81.7327 6.64 82.1167 6.96C82.5327 7.28 83.3487 7.616 84.5647 7.968L86.1247 8.472C86.5247 8.6 86.9887 8.816 87.5167 9.12C88.0927 9.408 88.5247 9.72 88.8127 10.056C89.5807 10.888 89.9647 11.928 89.9647 13.176C89.9647 14.76 89.3887 16.024 88.2367 16.968C87.0847 17.88 85.5807 18.336 83.7247 18.336Z" fill="#64154A"/>
</svg>
