<svg width="85" height="24" viewBox="0 0 85 24" fill="none" xmlns="http://www.w3.org/2000/svg">
<path d="M0.625 0.499999H7.575C9.975 0.499999 11.975 1.34167 13.575 3.025C15.1917 4.69167 16 6.76667 16 9.25C16 11.7333 15.1917 13.8083 13.575 15.475C11.975 17.1583 9.975 18 7.575 18H0.625V0.499999ZM4.075 14.7H7.575C9.09167 14.7 10.325 14.2 11.275 13.2C12.225 12.1667 12.7 10.85 12.7 9.25C12.7 7.63333 12.225 6.325 11.275 5.325C10.325 4.30833 9.09167 3.8 7.575 3.8H4.075V14.7ZM19.8973 4C19.3639 4 18.8973 3.80833 18.4973 3.425C18.1139 3.025 17.9223 2.55833 17.9223 2.025C17.9223 1.49167 18.1139 1.025 18.4973 0.624999C18.8973 0.224999 19.3639 0.024999 19.8973 0.024999C20.4473 0.024999 20.9139 0.224999 21.2973 0.624999C21.6973 1.025 21.8973 1.49167 21.8973 2.025C21.8973 2.55833 21.6973 3.025 21.2973 3.425C20.9139 3.80833 20.4473 4 19.8973 4ZM21.5223 18H18.2973V5.5H21.5223V18ZM34.049 7.05V5.5H37.199V17.4C37.199 19.3167 36.5574 20.7917 35.274 21.825C34.0074 22.8417 32.474 23.35 30.674 23.35C27.8407 23.35 25.8657 22.3333 24.749 20.3L27.499 18.725C28.1157 19.8917 29.2074 20.475 30.774 20.475C31.7907 20.475 32.5907 20.2083 33.174 19.675C33.7574 19.1417 34.049 18.3833 34.049 17.4V16.05C33.099 17.3167 31.7657 17.95 30.049 17.95C28.2824 17.95 26.799 17.3333 25.599 16.1C24.4157 14.8333 23.824 13.3167 23.824 11.55C23.824 9.78333 24.424 8.275 25.624 7.025C26.824 5.775 28.299 5.15 30.049 5.15C31.7657 5.15 33.099 5.78333 34.049 7.05ZM33.049 14.025C33.7157 13.375 34.049 12.55 34.049 11.55C34.049 10.55 33.7157 9.74167 33.049 9.125C32.399 8.475 31.5657 8.15 30.549 8.15C29.549 8.15 28.7074 8.475 28.024 9.125C27.374 9.74167 27.049 10.55 27.049 11.55C27.049 12.55 27.374 13.375 28.024 14.025C28.6907 14.6583 29.5324 14.975 30.549 14.975C31.5657 14.975 32.399 14.6583 33.049 14.025ZM41.7234 4C41.1901 4 40.7234 3.80833 40.3234 3.425C39.9401 3.025 39.7484 2.55833 39.7484 2.025C39.7484 1.49167 39.9401 1.025 40.3234 0.624999C40.7234 0.224999 41.1901 0.024999 41.7234 0.024999C42.2734 0.024999 42.7401 0.224999 43.1234 0.624999C43.5234 1.025 43.7234 1.49167 43.7234 2.025C43.7234 2.55833 43.5234 3.025 43.1234 3.425C42.7401 3.80833 42.2734 4 41.7234 4ZM43.3484 18H40.1234V5.5H43.3484V18ZM46.4502 0.499999H52.9752C54.6419 0.499999 56.0585 1.06667 57.2252 2.2C58.3752 3.33333 58.9502 4.725 58.9502 6.375C58.9502 8.025 58.3752 9.41667 57.2252 10.55C56.0585 11.6833 54.6419 12.25 52.9752 12.25H49.9002V18H46.4502V0.499999ZM49.9002 9.025H52.9752C53.7085 9.025 54.3169 8.775 54.8002 8.275C55.2835 7.75833 55.5252 7.125 55.5252 6.375C55.5252 5.60833 55.2835 4.975 54.8002 4.475C54.3169 3.975 53.7085 3.725 52.9752 3.725H49.9002V9.025ZM70.8662 16.45C69.5995 17.7167 68.0329 18.35 66.1662 18.35C64.2995 18.35 62.7329 17.7167 61.4662 16.45C60.1995 15.1833 59.5662 13.6167 59.5662 11.75C59.5662 9.9 60.1995 8.34167 61.4662 7.075C62.7495 5.79167 64.3162 5.15 66.1662 5.15C68.0162 5.15 69.5829 5.79167 70.8662 7.075C72.1495 8.35833 72.7912 9.91667 72.7912 11.75C72.7912 13.6 72.1495 15.1667 70.8662 16.45ZM63.7412 14.225C64.3912 14.875 65.1995 15.2 66.1662 15.2C67.1329 15.2 67.9412 14.875 68.5912 14.225C69.2412 13.575 69.5662 12.75 69.5662 11.75C69.5662 10.75 69.2412 9.925 68.5912 9.275C67.9412 8.625 67.1329 8.3 66.1662 8.3C65.1995 8.3 64.3912 8.625 63.7412 9.275C63.1079 9.94167 62.7912 10.7667 62.7912 11.75C62.7912 12.7333 63.1079 13.5583 63.7412 14.225ZM77.7664 9.05C77.7664 9.58333 78.5247 10.0417 80.0414 10.425C80.5747 10.5417 81.0581 10.6833 81.4914 10.85C81.9247 11 82.3581 11.225 82.7914 11.525C83.2414 11.8083 83.5914 12.1917 83.8414 12.675C84.0914 13.1583 84.2164 13.7167 84.2164 14.35C84.2164 15.6333 83.7331 16.625 82.7664 17.325C81.7997 18.0083 80.6081 18.35 79.1914 18.35C76.6247 18.35 74.8747 17.3583 73.9414 15.375L76.7414 13.8C77.1247 14.8833 77.9414 15.425 79.1914 15.425C80.3414 15.425 80.9164 15.0667 80.9164 14.35C80.9164 13.8167 80.1581 13.3583 78.6414 12.975C78.0747 12.825 77.5914 12.675 77.1914 12.525C76.7914 12.375 76.3581 12.1583 75.8914 11.875C75.4247 11.575 75.0664 11.2 74.8164 10.75C74.5831 10.2833 74.4664 9.74167 74.4664 9.125C74.4664 7.89167 74.9164 6.925 75.8164 6.225C76.7331 5.50833 77.8664 5.15 79.2164 5.15C80.2331 5.15 81.1581 5.38333 81.9914 5.85C82.8247 6.3 83.4831 6.95 83.9664 7.8L81.2164 9.3C80.8164 8.45 80.1497 8.025 79.2164 8.025C78.7997 8.025 78.4497 8.125 78.1664 8.325C77.8997 8.50833 77.7664 8.75 77.7664 9.05Z" fill="white"/>
</svg>
