<svg width="30" height="30" viewBox="0 0 30 30" fill="none" xmlns="http://www.w3.org/2000/svg">
<path d="M14.9717 0.276367C13.3834 0.276367 12.0751 1.58467 12.0751 3.17297C12.0751 4.42206 12.888 5.48594 14.0062 5.88854V8.03082H15.9372V5.88854C17.0554 5.48594 17.8683 4.42206 17.8683 3.17297C17.8683 1.58467 16.56 0.276367 14.9717 0.276367ZM14.9717 2.20744C15.5164 2.20744 15.9372 2.62822 15.9372 3.17297C15.9372 3.71773 15.5164 4.13851 14.9717 4.13851C14.427 4.13851 14.0062 3.71773 14.0062 3.17297C14.0062 2.62822 14.427 2.20744 14.9717 2.20744ZM6.68169 3.56899C5.93836 3.56899 5.19525 3.85228 4.6337 4.41384C3.51058 5.53695 3.51058 7.38671 4.6337 8.50982C5.51613 9.39226 6.84396 9.5685 7.91878 9.06425L9.43497 10.5804L10.8003 9.21511L9.28411 7.70269C9.79231 6.62667 9.61396 5.29812 8.72968 4.41384C8.16812 3.85228 7.42502 3.56899 6.68169 3.56899ZM23.1938 3.58785C22.4505 3.58785 21.7074 3.87114 21.1459 4.43269C20.2628 5.31573 20.0821 6.6426 20.5877 7.71778L19.0752 9.2302L20.4406 10.5955L21.953 9.0831C23.0283 9.58913 24.3586 9.41195 25.2418 8.52868C26.365 7.40557 26.365 5.55581 25.2418 4.43269C24.6803 3.87114 23.9372 3.58785 23.1938 3.58785ZM6.68169 5.48875C6.92677 5.48875 7.17177 5.58654 7.36435 5.77916C7.7495 6.16422 7.7495 6.75924 7.36435 7.14449C6.97919 7.52955 6.38417 7.52955 5.99902 7.14449C5.61387 6.75924 5.61387 6.16422 5.99902 5.77916C6.1916 5.58654 6.43661 5.48875 6.68169 5.48875ZM23.1938 5.50761C23.4389 5.50761 23.6839 5.60549 23.8765 5.79802C24.2617 6.18327 24.2617 6.77829 23.8765 7.16335C23.4914 7.5486 22.8963 7.5486 22.5112 7.16335C22.126 6.77829 22.126 6.18327 22.5112 5.79802C22.7038 5.60549 22.9488 5.50761 23.1938 5.50761ZM14.9868 9.92795C12.332 9.92795 10.1591 12.1008 10.1591 14.7556C10.1591 17.4103 12.332 19.5833 14.9868 19.5833C17.6416 19.5833 19.8145 17.4103 19.8145 14.7556C19.8145 12.1008 17.6416 9.92795 14.9868 9.92795ZM26.6034 11.8402C25.3543 11.8402 24.2904 12.6531 23.8878 13.7712H21.7455V15.7023H23.8878C24.2914 16.8187 25.3556 17.6334 26.6034 17.6334C28.1917 17.6334 29.5 16.3251 29.5 14.7368C29.5 13.1485 28.1917 11.8402 26.6034 11.8402ZM3.39661 11.8515C1.80829 11.8515 0.5 13.1598 0.5 14.7481C0.5 16.3366 1.80829 17.6447 3.39661 17.6447C4.64444 17.6447 5.70863 16.8301 6.11217 15.7136H8.25445V13.7825H6.11217C5.70958 12.6644 4.6457 11.8515 3.39661 11.8515ZM14.9868 11.859C16.598 11.859 17.8834 13.1443 17.8834 14.7556C17.8834 16.3667 16.598 17.6522 14.9868 17.6522C13.3756 17.6522 12.0902 16.3667 12.0902 14.7556C12.0902 13.1443 13.3756 11.859 14.9868 11.859ZM26.6034 13.7712C27.1481 13.7712 27.5689 14.192 27.5689 14.7368C27.5689 15.2815 27.1481 15.7023 26.6034 15.7023C26.0587 15.7023 25.6379 15.2815 25.6379 14.7368C25.6379 14.192 26.0587 13.7712 26.6034 13.7712ZM3.39661 13.7825C3.94129 13.7825 4.36214 14.2035 4.36214 14.7481C4.36214 15.2928 3.94129 15.7136 3.39661 15.7136C2.85192 15.7136 2.43107 15.2928 2.43107 14.7481C2.43107 14.2035 2.85192 13.7825 3.39661 13.7825ZM15.4319 19.5908C15.0638 19.5737 14.6944 19.5801 14.3268 19.6059C11.386 19.8126 8.53435 21.3903 6.48556 24.1809L6.29698 24.4374V29.2085H7.26252H23.6766V24.4223L23.488 24.1658C23.2042 23.7802 22.9028 23.4137 22.5828 23.0683C20.5596 20.8833 18.0084 19.7108 15.4319 19.5908ZM15.9523 21.5823C17.8032 21.8125 19.6218 22.7146 21.1647 24.3808C21.3679 24.6002 21.5579 24.8415 21.7455 25.0823V27.2774H8.22805V25.1502C9.84654 23.0549 11.9028 21.8676 14.0213 21.5898V24.4185V25.3841H15.9523V24.4185V21.5823Z" fill="#DE1646"/>
</svg>
