<svg width="40" height="40" viewBox="0 0 40 40" fill="none" xmlns="http://www.w3.org/2000/svg">
    <circle cx="20" cy="20" r="20" fill="#FECEEB" />
    <path
        d="M36.8836 30.6262C36.0361 31.9617 35.0859 33.143 34.0073 34.196C33.6991 34.4785 33.3909 34.7867 33.0827 35.0435C32.98 35.1205 32.903 35.1976 32.8002 35.2746C32.7232 35.326 32.6718 35.3773 32.5948 35.4544C32.5177 35.5057 32.4664 35.5571 32.3893 35.6085C32.0298 35.891 31.6702 36.1735 31.285 36.4303C31.2337 36.4816 31.1566 36.5073 31.1053 36.5587C30.9255 36.6871 30.7457 36.7898 30.566 36.9182C30.4889 36.9696 30.4119 37.0209 30.3605 37.0466C30.1807 37.1494 30.001 37.2521 29.8212 37.3548C29.7698 37.3805 29.7441 37.4062 29.6928 37.4318C29.6414 37.4575 29.5644 37.5089 29.513 37.5346C29.4359 37.5859 29.3589 37.6116 29.2819 37.663C29.2819 37.663 29.2562 37.663 29.2562 37.6887C28.871 37.8941 28.4857 38.0739 28.1005 38.2537C28.0491 38.2793 27.9978 38.305 27.9721 38.305C27.9464 38.305 27.9464 38.3307 27.9207 38.3307C27.8437 38.3564 27.7923 38.3821 27.7153 38.4077C27.5612 38.4848 27.4071 38.5362 27.253 38.5875C27.2017 38.6132 27.1503 38.6389 27.0732 38.6389H27.0476C27.0476 38.6389 27.0219 38.6389 27.0219 38.6646C26.9705 38.6902 26.9192 38.7159 26.8678 38.7159C26.8421 38.7416 26.7908 38.7416 26.7651 38.7673C26.7394 38.7673 26.7137 38.793 26.688 38.793C26.6623 38.793 26.6367 38.8187 26.6367 38.8187C26.5339 38.87 26.4055 38.8957 26.2771 38.9471C26.123 38.9984 25.9433 39.0498 25.7892 39.1011C25.7635 39.1011 25.7378 39.1011 25.7378 39.1268C25.6865 39.1525 25.6351 39.1525 25.5837 39.1782C25.4553 39.2039 25.3269 39.2552 25.1985 39.2809C25.1472 39.2809 25.1215 39.3066 25.0958 39.3066C25.0187 39.3323 24.916 39.358 24.839 39.3836C24.8133 39.3836 24.7876 39.4093 24.7619 39.4093C24.7362 39.4093 24.7106 39.4093 24.7106 39.435C24.6849 39.435 24.6849 39.435 24.6592 39.4607C24.5565 39.4864 24.4537 39.5121 24.351 39.5377C24.351 39.5377 24.351 39.5377 24.3253 39.5377C24.274 39.5377 24.2483 39.5634 24.1969 39.5634C24.0942 39.5891 23.9915 39.6148 23.8888 39.6405C23.8631 39.6405 23.8374 39.6405 23.8374 39.6405C23.6833 39.6661 23.5035 39.6918 23.3494 39.7175C23.0669 39.7689 22.7588 39.8202 22.4763 39.8459C22.3992 39.8459 22.3479 39.8716 22.2708 39.8716C22.1681 39.8973 22.0397 39.8973 21.9369 39.8973C21.8599 39.8973 21.8086 39.923 21.7315 39.923C21.6031 39.9486 21.5004 39.9486 21.372 39.9486C21.2436 39.9486 21.1408 39.9743 21.0124 39.9743C20.807 40 20.6272 40 20.4474 40C20.3961 40 20.3704 40 20.319 40H20.2934C20.242 40 20.2163 40 20.1649 40C20.1136 40 20.0879 40 20.0365 40C19.9595 40 19.8568 40 19.7797 40C19.6 40 19.4202 40 19.2661 39.9743C18.9579 39.9743 18.6497 39.9486 18.3672 39.923C18.3159 39.923 18.2645 39.923 18.1874 39.8973C18.1104 39.8973 18.0334 39.8716 17.9563 39.8716C17.5711 39.8459 17.1859 39.7946 16.8006 39.7175C16.6466 39.6918 16.4925 39.6661 16.3641 39.6405C16.3127 39.6405 16.2613 39.6148 16.21 39.6148C16.1586 39.6148 16.1329 39.5891 16.0816 39.5891C16.0559 39.5891 16.0559 39.5891 16.0302 39.5891C15.9531 39.5634 15.8761 39.5634 15.7991 39.5377C15.7734 39.5377 15.7477 39.5377 15.7477 39.5121C15.6707 39.4864 15.5936 39.4864 15.4909 39.4607C15.1827 39.3836 14.8745 39.3066 14.5664 39.2296C14.5407 39.2296 14.515 39.2039 14.4636 39.2039C14.1811 39.1268 13.8987 39.0241 13.6162 38.9471C13.5134 38.9214 13.4364 38.8957 13.3336 38.8443C13.2823 38.8186 13.2309 38.8187 13.1796 38.793C13.1025 38.7673 13.0255 38.7416 12.9484 38.7159C12.7173 38.6389 12.5118 38.5362 12.2807 38.4591C12.255 38.4591 12.255 38.4591 12.2293 38.4334C12.2037 38.4334 12.2036 38.4334 12.178 38.4077C12.1009 38.3821 12.0239 38.3307 11.9469 38.305C11.9212 38.305 11.8955 38.2793 11.8698 38.2793C11.8184 38.2537 11.7414 38.228 11.69 38.2023C11.6387 38.1766 11.5873 38.1509 11.5359 38.1253C11.4846 38.0996 11.4589 38.0739 11.4075 38.0739C11.3305 38.0225 11.2278 37.9968 11.1507 37.9455C11.0737 37.9198 10.9966 37.8684 10.9453 37.8428C10.9196 37.8428 10.9196 37.8171 10.8939 37.8171C10.8425 37.7914 10.7912 37.7657 10.7398 37.74C10.7141 37.7143 10.6885 37.7143 10.6628 37.6887C10.6628 37.6887 10.6371 37.6887 10.6371 37.663C10.6114 37.663 10.6114 37.6373 10.6114 37.6373C10.5344 37.5859 10.4316 37.5346 10.3546 37.5089C10.3032 37.4832 10.2775 37.4575 10.2262 37.4318C10.2262 37.4318 10.2005 37.4319 10.2005 37.4062C10.0978 37.3291 9.96936 37.2778 9.84095 37.2007C9.78959 37.175 9.73824 37.1494 9.68687 37.1237C9.66119 37.1237 9.6612 37.098 9.63552 37.098C9.60984 37.0723 9.58415 37.0723 9.55847 37.0466C9.5071 37.0209 9.45574 36.9953 9.43006 36.9696C9.40438 36.9439 9.37868 36.9439 9.353 36.9182C9.32732 36.8925 9.30166 36.8669 9.2503 36.8669C9.19894 36.8155 9.12187 36.7898 9.07051 36.7385L9.04483 36.7128L9.01916 36.6871L8.99348 36.6614H8.96778C8.91641 36.6357 8.86506 36.5844 8.81369 36.5587C8.73665 36.5073 8.6853 36.4816 8.63394 36.4303C8.63394 36.4303 8.63394 36.4303 8.60826 36.4303C8.60826 36.4303 8.58255 36.4303 8.58255 36.4046C8.55687 36.3789 8.53121 36.3532 8.50553 36.3532L8.47985 36.3275C8.45417 36.3275 8.45415 36.3019 8.42847 36.3019C8.37711 36.2762 8.35143 36.2505 8.30006 36.2248C8.30006 36.2248 8.30007 36.2248 8.27439 36.2248C8.1203 36.1221 7.9662 35.9937 7.81211 35.891C7.70938 35.8139 7.60666 35.7369 7.52962 35.6598C7.42689 35.5571 7.2985 35.4801 7.19578 35.3773C7.1701 35.3516 7.17008 35.3517 7.1444 35.326C6.99031 35.1976 6.83624 35.0692 6.68215 34.9151C6.55374 34.8123 6.45101 34.6839 6.3226 34.5812C6.14283 34.4014 5.96307 34.2473 5.78329 34.0676C5.65489 33.9392 5.52647 33.8108 5.42375 33.6824C5.24398 33.4769 5.06421 33.2971 4.88444 33.0917C4.83308 33.0403 4.80739 33.0146 4.78171 32.9633C4.47353 32.6037 4.19103 32.2442 3.90853 31.859C3.75444 31.6535 3.60034 31.4224 3.44625 31.2169C3.42057 31.1912 3.39491 31.1399 3.36923 31.1142C3.31786 31.0628 3.29218 30.9858 3.24082 30.9344C3.24082 30.9344 3.24082 30.9344 3.24082 30.9087C3.00969 30.5749 2.80423 30.2153 2.59878 29.8558C2.5731 29.8044 2.54741 29.7788 2.52172 29.7274C2.39332 29.4706 2.23923 29.2394 2.1365 28.9826C2.05946 28.8029 1.98241 28.6488 1.87969 28.469C1.59719 27.8783 1.36607 27.2877 1.13493 26.6713C1.03221 26.3888 0.92947 26.1063 0.852425 25.8238C0.852425 25.7981 0.82675 25.7724 0.82675 25.7468C0.801069 25.6954 0.801065 25.6184 0.775384 25.567C0.724021 25.4129 0.672658 25.2331 0.646976 25.079C-0.688462 19.8914 0.0049542 14.1901 3.08674 9.33627C8.99348 -0.0117992 21.372 -2.81108 30.72 3.09567C40.0167 8.92537 42.7903 21.2782 36.8836 30.6262Z"
        fill="#64154A" />
    <path
        d="M15.5937 35.8909C14.9259 36.8925 14.2325 37.9197 13.5391 38.8956C13.4364 38.8699 13.3594 38.8443 13.2566 38.7929C13.2053 38.7672 13.1539 38.7672 13.1026 38.7415C13.0255 38.7159 12.9485 38.6902 12.8714 38.6645C12.6403 38.5874 12.4348 38.4847 12.2037 38.4077C12.178 38.4077 12.178 38.4077 12.1523 38.382C12.1266 38.382 12.1267 38.382 12.101 38.3563C12.0239 38.3306 11.9469 38.2793 11.8698 38.2536C11.8442 38.2536 11.8185 38.2279 11.7928 38.2279C11.7414 38.2022 11.6644 38.1765 11.613 38.1509C11.5617 38.1252 11.5103 38.0995 11.4589 38.0738C11.4076 38.0481 11.3819 38.0225 11.3305 38.0225C11.2535 37.9711 11.1508 37.9454 11.0737 37.894C10.9967 37.8684 10.9196 37.817 10.8683 37.7913C10.8426 37.7913 10.8426 37.7656 10.8169 37.7656C10.7655 37.74 10.7142 37.7143 10.6628 37.6886C10.6371 37.6629 10.6114 37.6629 10.5858 37.6372C10.5858 37.6372 10.5601 37.6372 10.5601 37.6115C10.5344 37.6115 10.5344 37.5859 10.5344 37.5859C10.4574 37.5345 10.3546 37.4831 10.2776 37.4575C10.2262 37.4318 10.2006 37.4061 10.1492 37.3804C10.1492 37.3804 10.1235 37.3804 10.1235 37.3547C10.0208 37.2777 9.89237 37.2263 9.76396 37.1493C9.7126 37.1236 9.66121 37.0979 9.60985 37.0722C9.58417 37.0722 9.58418 37.0466 9.5585 37.0466C9.53282 37.0209 9.50712 37.0209 9.48144 36.9952C9.43008 36.9695 9.37872 36.9438 9.35304 36.9181C9.32735 36.8925 9.30169 36.8925 9.27601 36.8668C9.25033 36.8411 9.22464 36.8154 9.17328 36.8154C9.12191 36.7641 9.04488 36.7384 8.99352 36.687L8.96781 36.6613L8.94214 36.6357L8.91646 36.61H8.89079C8.83942 36.5843 8.78807 36.5329 8.7367 36.5072C8.65966 36.4559 8.60828 36.4302 8.55691 36.3788C8.55691 36.3788 8.55692 36.3788 8.53124 36.3788C8.53124 36.3788 8.50556 36.3788 8.50556 36.3532C8.47988 36.3275 8.45419 36.3018 8.42851 36.3018L8.40283 36.2761C9.276 34.8379 10.0721 33.6823 10.6114 33.0146C10.6885 32.9118 10.9196 32.7321 11.1764 32.5009C11.6644 32.09 12.2807 31.6021 12.4348 31.4223L15.5937 35.8909Z"
        fill="#686766" />
    <path
        d="M31.85 31.5764C31.8243 31.6535 31.7986 31.7562 31.7472 31.8333C31.3107 33.143 30.9254 34.838 30.5916 36.8155C30.5916 36.8411 30.5916 36.8668 30.5659 36.8925C30.4888 36.9439 30.4118 36.9952 30.3604 37.0209C30.1807 37.1236 30.0009 37.2264 29.8211 37.3291C29.7698 37.3548 29.7441 37.3805 29.6927 37.4061C29.6414 37.4318 29.5643 37.4832 29.5129 37.5089C29.4359 37.5602 29.3589 37.5859 29.2818 37.6373C29.2818 37.6373 29.2561 37.6373 29.2561 37.663C28.8709 37.8684 28.4857 38.0482 28.1004 38.2279C28.0491 38.2536 27.9977 38.2793 27.972 38.2793C27.9464 38.2793 27.9464 38.305 27.9207 38.305C27.8436 38.3307 27.7923 38.3564 27.7152 38.382C27.5611 38.4591 27.4071 38.5104 27.253 38.5618C27.2016 38.5875 27.1502 38.6132 27.0732 38.6132H27.0475C27.0475 38.6132 27.0218 38.6132 27.0218 38.6389C26.9705 38.6645 26.9191 38.6902 26.8677 38.6902C26.8421 38.7159 26.7907 38.7159 26.765 38.7416C26.7393 38.7416 26.7136 38.7673 26.688 38.7673C26.6623 38.7673 26.6366 38.7929 26.6366 38.7929C26.5339 38.8443 26.4055 38.87 26.2771 38.9214C26.123 38.9727 25.9432 39.0241 25.7891 39.0754C25.7634 39.0754 25.7378 39.0754 25.7378 39.1011C25.6864 39.1268 25.635 39.1268 25.5837 39.1525C25.4553 39.1782 25.3269 39.2295 25.1985 39.2552C25.1471 39.2552 25.1214 39.2809 25.0957 39.2809C25.0187 39.3066 24.9159 39.3323 24.8389 39.3579C24.8132 39.3579 24.7875 39.3836 24.7618 39.3836C24.7362 39.3836 24.7105 39.3836 24.7105 39.4093C24.6848 39.4093 24.6848 39.4093 24.6591 39.435C24.5564 39.4607 24.4537 39.4863 24.3509 39.512C24.3509 39.512 24.351 39.512 24.3253 39.512C24.2739 39.512 24.2482 39.5377 24.1969 39.5377C24.0941 39.5634 23.9914 39.5891 23.8887 39.6147C23.863 39.6147 23.8373 39.6147 23.8373 39.6147C23.6832 39.6404 23.5035 39.6661 23.3494 39.6918C23.0669 39.7432 22.7587 39.7945 22.4762 39.8202C22.3992 39.8202 22.3478 39.8459 22.2708 39.8459C22.168 39.8716 22.0396 39.8716 21.9369 39.8716C21.8598 39.8716 21.8085 39.8972 21.7314 39.8972C21.603 39.9229 21.5003 39.9229 21.3719 39.9229C21.2435 39.9229 21.1408 39.9486 21.0124 39.9486C20.8069 39.9743 20.6271 39.9743 20.4474 39.9743C20.396 39.9743 20.3703 39.9743 20.319 39.9743H20.2933C20.2419 39.9743 20.2162 39.9743 20.1649 39.9743C20.1135 39.9743 20.0878 39.9743 20.0365 39.9743C19.9594 39.9743 19.8567 39.9743 19.7797 39.9743C19.5999 39.9743 19.4201 39.9743 19.266 39.9486C18.9578 39.9486 18.6497 39.9229 18.3672 39.8972C18.3158 39.8972 18.2644 39.8972 18.1874 39.8716C18.1103 39.8716 18.0333 39.8459 17.9562 39.8459C17.571 39.8202 17.1858 39.7688 16.8006 39.6918C16.6465 39.6661 16.4924 39.6404 16.364 39.6147C16.3126 39.6147 16.2613 39.5891 16.2099 39.5891C16.1586 39.5891 16.1329 39.5634 16.0815 39.5634C16.0558 39.5634 16.0558 39.5634 16.0301 39.5634C15.9531 39.5377 15.8761 39.5377 15.799 39.512C15.7733 39.512 15.7476 39.512 15.7476 39.4863C15.6706 39.4607 15.5936 39.4607 15.4908 39.435C15.1826 39.3579 14.8745 39.2809 14.5663 39.2038C14.5406 39.2038 14.5149 39.1782 14.4636 39.1782C14.1811 39.1011 13.8986 38.9984 13.6161 38.9214C13.5134 38.8957 13.4363 38.87 13.3336 38.8186C13.2822 38.7929 13.2309 38.7929 13.1795 38.7673C13.1024 38.7416 13.0254 38.7159 12.9483 38.6902C12.7172 38.6132 12.5118 38.5104 12.2806 38.4334C12.255 38.4334 12.255 38.4334 12.2293 38.4077C12.2036 38.4077 12.2036 38.4077 12.1779 38.382C12.1009 38.3564 12.0238 38.305 11.9468 38.2793C11.9211 38.2793 11.8954 38.2536 11.8697 38.2536C11.8184 38.2279 11.7413 38.2023 11.69 38.1766C11.6386 38.1509 11.5872 38.1252 11.5359 38.0995C11.4845 38.0739 11.4588 38.0482 11.4075 38.0482C11.3304 37.9968 11.2277 37.9711 11.1506 37.9198C11.0736 37.8941 10.9966 37.8427 10.9452 37.817C10.9195 37.817 10.9195 37.7914 10.8938 37.7914C10.8425 37.7657 10.7911 37.74 10.7397 37.7143C10.7911 35.7625 10.9452 34.0162 11.1764 32.8348C11.202 32.7321 11.2277 32.6551 11.2534 32.5523C11.7413 31.2939 13.8215 29.9585 16.7236 29.2137C17.1858 29.0853 17.6994 28.9826 18.2131 28.9056C18.3928 28.8799 18.5469 28.8542 18.7267 28.8285C18.9321 28.8028 19.1633 28.7772 19.3687 28.7515C19.4971 28.7258 19.6255 28.7258 19.754 28.7258C20.5758 28.6487 21.4489 28.6231 22.3221 28.6744C22.5019 28.6744 22.656 28.7001 22.8357 28.7001C23.1696 28.7258 23.4778 28.7515 23.8116 28.8028C23.8887 28.8028 23.9657 28.8285 24.0428 28.8285C24.1198 28.8285 24.1969 28.8542 24.2739 28.8542C26.7137 29.111 29.3589 29.9842 31.85 31.5764Z"
        fill="#5E5D5B" />
    <path
        d="M30.5917 36.8411C30.5917 36.8668 30.5917 36.8925 30.566 36.9182C30.489 36.9695 30.4119 37.0209 30.3606 37.0466C30.1808 37.1493 30.001 37.252 29.8213 37.3547C29.7699 37.3804 29.7442 37.4061 29.6929 37.4318C29.924 36.8925 30.2065 36.4045 30.489 36.1477L30.5917 36.8411Z"
        fill="#424140" />
    <path
        d="M18.1358 28.8799L21.9367 28.8285C23.0666 28.546 23.4005 28.3149 24.171 29.0596C27.0216 31.8076 19.2401 36.4816 17.5708 36.5329C14.6688 36.5843 15.6961 30.241 18.1358 28.8799Z"
        fill="#424140" />
    <path
        d="M18.1359 28.8799L22.0909 27.9554C23.2209 27.6729 24.4279 28.8542 24.4022 29.9329C24.3765 32.0131 20.062 35.0948 18.3927 35.1462C15.4907 35.2232 17.0316 30.1897 18.1359 28.8799Z"
        fill="#FBA479" />
    <path
        d="M18.6236 22.9218L18.0586 29.9071L24.1708 29.034C24.1708 29.034 24.2735 24.8736 24.0424 21.1241C23.9654 19.7116 18.6236 22.9218 18.6236 22.9218Z"
        fill="#FBA479" />
    <path
        d="M18.495 24.3599L18.1611 28.4433C20.6009 29.5476 23.0406 26.3631 23.7083 25.3101C24.4788 24.0261 24.1449 22.7163 24.1449 22.7163L19.8818 23.7436L18.495 24.3599Z"
        fill="#EF7950" />
    <path
        d="M25.5578 21.7147C25.5322 18.2734 26.4567 14.9862 24.9671 12.0328C24.4792 11.0826 21.9624 9.84986 21.4745 9.67009C21.1663 9.54168 20.8581 9.46464 20.5242 9.41327C20.1904 9.38759 19.8822 9.41327 19.5484 9.46463C19.0347 9.54168 17.237 10.646 16.6463 11.2623C15.4393 12.4951 15.3623 13.7791 14.9 16.9893C14.7459 17.9652 14.5661 19.1209 14.3093 20.5077C13.8984 22.6136 14.7973 24.3342 16.03 25.9778C16.672 26.8253 16.3382 27.5958 17.6222 27.7499C20.4729 27.9296 22.3476 26.1833 23.5547 25.0533C24.6076 24.0004 25.5835 23.1272 25.5578 21.7147Z"
        fill="#FBA479" />
    <path
        d="M20.2676 25.644C19.5485 25.6697 18.4699 25.7981 17.9819 26.3631L18.0333 25.6697C18.701 25.4385 19.5228 25.6183 20.2676 25.644Z"
        fill="#EF7950" />
    <path
        d="M23.8372 13.5994C24.6847 13.8049 25.5836 13.8049 25.9945 13.548C26.4567 10.8001 24.4792 9.13082 21.0379 9.23355C20.2418 9.25923 8.73648 9.33627 14.746 13.7278C16.2098 14.8064 19.0861 13.2142 20.6014 12.4951C21.1663 12.2383 21.5002 11.9815 21.9625 12.1099C22.5275 12.1356 23.5034 13.1115 23.8372 13.5994Z"
        fill="#261411" />
    <path
        d="M21.5514 22.3825C21.1919 23.23 19.651 25.1818 18.2642 25.3102C17.1856 25.4129 15.6447 23.8463 15.1567 23.307C15.5676 23.307 16.3381 23.23 16.6976 23.2043C17.1342 23.1786 20.4985 22.8448 21.5514 22.3825Z"
        fill="#873421" />
    <path
        d="M20.5242 23.5638C20.4471 23.795 20.3187 24.0261 20.1646 24.2316C20.1133 24.2829 20.0876 24.3343 20.0362 24.3857C19.9335 24.5141 19.8308 24.6425 19.728 24.7709C19.2658 25.1047 18.7778 25.3616 18.2899 25.4129C17.8276 25.4643 17.314 25.2331 16.826 24.8993L16.7747 24.8222C16.7233 24.7709 16.6719 24.7195 16.6206 24.6682C16.5179 24.5141 16.4408 24.3086 16.3638 24.1545C16.6206 24.1288 20.3444 23.5895 20.5242 23.5638Z"
        fill="white" />
    <path
        d="M21.0635 22.4338C20.9351 22.8704 20.781 23.4354 20.5242 23.6409C20.4728 23.6922 20.0876 23.7693 19.6253 23.872C18.5467 24.0775 16.8261 24.3343 16.4665 24.1288C16.184 23.9747 15.9272 23.6152 15.7218 23.2556C15.6961 23.23 15.6961 23.2043 15.6704 23.1786C15.7218 23.1786 15.7475 23.1786 15.7988 23.1786C15.9529 23.1786 16.1327 23.1529 16.3381 23.1272C17.7506 23.0245 19.9335 22.7677 21.0635 22.4338Z"
        fill="white" />
    <path
        d="M20.4985 23.6409C20.2674 23.7436 16.7747 24.3343 16.4151 24.1288C16.1327 23.9747 15.8759 23.6152 15.6704 23.2557L15.7474 23.1786C15.9015 23.1786 16.0813 23.1529 16.2867 23.1273C16.3638 23.3584 16.4665 23.5895 16.5693 23.795C16.6206 23.8977 16.6206 23.8977 16.7233 23.9234C16.8774 24.0004 20.0876 23.6666 20.4985 23.6409Z"
        fill="#E8E6E6" />
    <path
        d="M21.6286 22.2284C21.5515 22.2797 21.4745 22.3054 21.3717 22.3568C21.269 22.3825 21.1663 22.4338 21.0636 22.4595C21.0379 22.4595 20.9865 22.4852 20.9608 22.4852C20.9352 22.4852 20.8838 22.5109 20.8581 22.5109C20.8324 22.5109 20.8067 22.5109 20.7811 22.5365C20.7554 22.5365 20.7297 22.5365 20.7297 22.5622C20.704 22.5622 20.704 22.5622 20.6784 22.5879C20.6784 22.5879 20.6783 22.5879 20.6526 22.5879H20.627H20.6013C20.6013 22.5879 20.6013 22.5879 20.5756 22.5879H20.5499C20.5243 22.5879 20.5242 22.5879 20.4986 22.5879C20.4729 22.5879 20.4729 22.5879 20.4472 22.5879H20.4215C20.3959 22.5879 20.3702 22.5879 20.3445 22.6136H20.3188C20.2931 22.6136 20.2674 22.6136 20.2418 22.6393H20.2161C20.1904 22.6393 20.1904 22.6393 20.1647 22.6393C20.139 22.6393 20.139 22.6393 20.1133 22.6393C20.0877 22.6393 20.0877 22.6393 20.062 22.6393C20.0363 22.6393 20.0106 22.6393 19.9849 22.665C19.9593 22.665 19.9336 22.665 19.9336 22.665H19.9079H19.8822H19.8565H19.8309C19.8309 22.665 19.8309 22.665 19.8052 22.665C19.8052 22.665 19.8052 22.665 19.7795 22.665H19.7538C19.7281 22.665 19.7025 22.665 19.6768 22.665C19.6511 22.665 19.6254 22.665 19.5997 22.665C19.574 22.665 19.574 22.665 19.5484 22.665C19.5227 22.665 19.5227 22.665 19.497 22.665C19.4456 22.665 19.4199 22.6906 19.3686 22.6906C19.3429 22.6906 19.3429 22.6906 19.3172 22.6906H19.2915C19.2659 22.6906 19.2402 22.6906 19.1888 22.7163C19.1631 22.7163 19.1375 22.7163 19.1375 22.7163C19.1118 22.7163 19.0861 22.7163 19.0604 22.742C19.0347 22.742 18.9834 22.742 18.9577 22.7677C18.9063 22.7677 18.855 22.7934 18.8036 22.7934C18.7779 22.7934 18.7522 22.7934 18.7265 22.7934C18.7009 22.7934 18.6495 22.7934 18.6238 22.819C18.5982 22.819 18.5981 22.819 18.5981 22.819H18.5725C18.5468 22.819 18.5211 22.819 18.4697 22.8447C18.444 22.8447 18.4184 22.8447 18.4184 22.8447C18.367 22.8447 18.3156 22.8704 18.2643 22.8704C18.2386 22.8704 18.2386 22.8704 18.2129 22.8704H18.1872C18.1872 22.8704 18.1872 22.8704 18.1616 22.8704C18.1102 22.8704 18.0588 22.8961 18.0075 22.8961H17.9818C17.9304 22.8961 17.879 22.9218 17.8277 22.9218C17.802 22.9218 17.802 22.9218 17.7763 22.9218C17.7507 22.9218 17.7507 22.9218 17.725 22.9218C17.6736 22.9218 17.6479 22.9218 17.6222 22.9218C17.5966 22.9218 17.5709 22.9218 17.5452 22.9218C17.5195 22.9218 17.4938 22.9218 17.4682 22.9218C17.4425 22.9218 17.4168 22.9218 17.3911 22.9218C17.3141 22.9218 17.2627 22.9475 17.1856 22.9475H17.16C17.1343 22.9475 17.0829 22.9475 17.0572 22.9475C17.0572 22.9475 17.0572 22.9475 17.0316 22.9475C17.0316 22.9475 17.0316 22.9475 17.0059 22.9475C16.9802 22.9475 16.9545 22.9475 16.9288 22.9475C16.9031 22.9475 16.8775 22.9475 16.8518 22.9475C16.8004 22.9475 16.7491 22.9475 16.6977 22.9731C16.6207 22.9731 16.5436 22.9988 16.4409 22.9988C16.3895 22.9988 16.3125 22.9988 16.2611 23.0245C16.2354 23.0245 16.2098 23.0245 16.1841 23.0245C16.1327 23.0245 16.107 23.0245 16.0557 23.0245H16.03H15.953C15.9273 23.0245 15.9273 23.0245 15.9016 23.0245C15.8759 23.0245 15.8502 23.0245 15.8245 23.0245C15.7989 23.0245 15.7732 23.0245 15.7475 23.0245C15.7218 23.0245 15.6961 23.0245 15.6961 23.0245C15.6705 23.0245 15.6448 23.0245 15.6191 23.0245C15.5934 23.0245 15.5677 23.0245 15.5677 23.0245C15.3623 23.0245 15.2082 23.0502 15.0798 23.0502C14.9514 23.0502 14.8743 23.0502 14.8486 23.0245C14.8486 23.0245 15.0798 23.307 15.4393 23.6665C15.4907 23.7179 15.542 23.7436 15.5677 23.7949C15.5934 23.8206 15.6191 23.8463 15.6448 23.872C15.9529 24.1545 16.3382 24.4883 16.7234 24.7452C16.7491 24.7452 16.7491 24.7708 16.7747 24.7708C16.8004 24.7965 16.8518 24.8222 16.8775 24.8222C16.9032 24.8222 16.9031 24.8479 16.9288 24.8479C16.9545 24.8736 16.9802 24.8736 17.0316 24.8992C17.0316 24.8992 17.0316 24.8992 17.0572 24.8992C17.0829 24.9249 17.1086 24.9249 17.1343 24.9506C17.16 24.9763 17.1857 24.9763 17.2114 25.002C17.2627 25.0277 17.2884 25.0533 17.3398 25.0533C17.3654 25.079 17.3911 25.079 17.4168 25.1047C17.4938 25.1304 17.5709 25.1561 17.6479 25.1817C17.6993 25.2074 17.7506 25.2074 17.802 25.2331C17.8534 25.2331 17.8791 25.2588 17.9304 25.2588C17.9561 25.2588 18.0075 25.2588 18.0331 25.2588C18.0588 25.2588 18.1102 25.2588 18.1359 25.2588C18.1872 25.2588 18.2129 25.2588 18.2643 25.2588C18.3156 25.2588 18.3413 25.2588 18.3927 25.2331C18.4184 25.2331 18.4184 25.2331 18.444 25.2331C18.4697 25.2331 18.4954 25.2331 18.5211 25.2074C18.5468 25.2074 18.5724 25.1817 18.5981 25.1817C18.6238 25.1817 18.6495 25.1561 18.6752 25.1561C18.7009 25.1561 18.7009 25.1561 18.7265 25.1304C18.7522 25.1304 18.7522 25.1304 18.7779 25.1047C18.8036 25.1047 18.8293 25.079 18.8549 25.079C18.8806 25.079 18.9063 25.0533 18.9063 25.0533C18.932 25.0277 18.9577 25.0277 18.9834 25.002H19.0091C19.0347 25.002 19.0604 24.9763 19.0604 24.9763C19.0861 24.9506 19.1375 24.9506 19.1631 24.9249C19.2145 24.8993 19.2915 24.8479 19.3429 24.8222C19.3686 24.7965 19.3943 24.7965 19.42 24.7708C19.4456 24.7452 19.4713 24.7195 19.497 24.7195C19.5227 24.6938 19.5484 24.6938 19.574 24.6681C19.5997 24.6424 19.6511 24.6167 19.6768 24.5911C19.7538 24.5397 19.8308 24.4883 19.8822 24.4113C20.2931 24.0774 20.6527 23.6665 20.9608 23.2813C21.0379 23.1786 21.1149 23.0502 21.192 22.9475C21.2433 22.8704 21.269 22.819 21.3204 22.7677C21.3461 22.7163 21.3717 22.665 21.4231 22.6136C21.5001 22.5109 21.5515 22.3825 21.5772 22.3054C21.5772 22.2797 21.6029 22.2797 21.6029 22.2541C21.6286 22.2027 21.6542 22.1256 21.6542 22.0743C21.6542 22.0229 21.6799 21.9972 21.6799 21.9716C21.7056 22.177 21.6799 22.2027 21.6286 22.2284ZM21.5515 22.4081L21.5258 22.4595C21.5258 22.4595 21.5258 22.4852 21.5002 22.4852C21.5002 22.5109 21.4745 22.5109 21.4745 22.5365C21.4488 22.5622 21.4488 22.6136 21.4231 22.6393C21.4231 22.665 21.3974 22.6906 21.3974 22.7163C21.3974 22.742 21.3717 22.7677 21.3717 22.7677C21.3461 22.7934 21.3461 22.819 21.3204 22.8447C21.2947 22.8704 21.269 22.9218 21.2433 22.9475C21.2177 22.9988 21.192 23.0245 21.1663 23.0759C21.1663 23.1015 21.1406 23.1015 21.1406 23.1272C21.1406 23.1272 21.1406 23.1272 21.1406 23.1529C21.1149 23.1786 21.1149 23.2043 21.0893 23.23C21.0893 23.23 21.0893 23.2556 21.0636 23.2556C21.0379 23.2813 21.0379 23.307 21.0122 23.3327C20.9865 23.3584 20.9865 23.384 20.9608 23.4097C20.9608 23.4354 20.9352 23.4354 20.9352 23.4611C20.9352 23.4611 20.9351 23.4868 20.9095 23.4868L20.8838 23.5124C20.8581 23.5381 20.8581 23.5638 20.8324 23.5638C20.8068 23.5895 20.7811 23.6152 20.7554 23.6665C20.7554 23.6665 20.7554 23.6922 20.7297 23.6922C20.7297 23.6922 20.7297 23.6922 20.7297 23.7179C20.7297 23.7179 20.7297 23.7179 20.7297 23.7436C20.704 23.7693 20.6783 23.7949 20.6526 23.8463C20.627 23.8977 20.5756 23.9233 20.5499 23.949C20.5499 23.949 20.5499 23.949 20.5242 23.9747C20.4986 24.0004 20.4986 24.0004 20.4729 24.0261C20.4472 24.0518 20.4472 24.0774 20.4215 24.0774C20.3959 24.1031 20.3958 24.1031 20.3702 24.1288C20.3702 24.1288 20.3702 24.1288 20.3445 24.1545C20.3445 24.1545 20.3445 24.1545 20.3188 24.1802L20.2931 24.2058C20.2675 24.2315 20.2418 24.2572 20.2161 24.2829C20.1904 24.3086 20.1904 24.3086 20.1647 24.3343C20.139 24.3599 20.1133 24.3856 20.1133 24.3856C20.1133 24.3856 20.1133 24.3856 20.0877 24.4113L20.062 24.437L20.0363 24.4627L20.0106 24.4883C20.0106 24.4883 20.0106 24.4883 19.9849 24.514C19.9849 24.514 19.9849 24.514 19.9593 24.514C19.9336 24.5397 19.9336 24.5397 19.9079 24.5654C19.8822 24.5911 19.8309 24.6424 19.8052 24.6681C19.7795 24.6938 19.7538 24.6938 19.7538 24.7195L19.7281 24.7452C19.7024 24.7708 19.6768 24.7708 19.6511 24.7965C19.574 24.8479 19.5227 24.8993 19.4456 24.9249C19.4199 24.9506 19.3686 24.9763 19.3429 25.002C19.3172 25.0277 19.2916 25.0277 19.2659 25.0533C19.2402 25.079 19.2145 25.079 19.1631 25.1047C19.1375 25.1304 19.1118 25.1304 19.0604 25.1561C19.0347 25.1817 19.009 25.1817 18.9834 25.2074C18.9834 25.2074 18.9834 25.2074 18.9577 25.2074C18.932 25.2331 18.9063 25.2331 18.8806 25.2588C18.855 25.2845 18.8293 25.2845 18.7779 25.2845C18.7522 25.2845 18.7265 25.3102 18.7009 25.3102C18.7009 25.3102 18.7009 25.3102 18.6752 25.3102H18.6495C18.5981 25.3358 18.5468 25.3358 18.4954 25.3615C18.4697 25.3615 18.4697 25.3615 18.4697 25.3615H18.444C18.444 25.3615 18.4441 25.3615 18.4184 25.3615H18.3927H18.367C18.3413 25.3615 18.3413 25.3615 18.3156 25.3615C18.29 25.3615 18.29 25.3615 18.2643 25.3615C18.2386 25.3615 18.2386 25.3615 18.2129 25.3615C18.1872 25.3615 18.1616 25.3615 18.1359 25.3615C18.1102 25.3615 18.1102 25.3615 18.0845 25.3615H18.0588H18.0331C18.0075 25.3615 17.9818 25.3615 17.9818 25.3615C17.9818 25.3615 17.9818 25.3615 17.9561 25.3615C17.9304 25.3615 17.9047 25.3615 17.8791 25.3358C17.8534 25.3358 17.8277 25.3358 17.802 25.3102C17.7763 25.3102 17.7763 25.3102 17.7507 25.2845H17.725C17.6993 25.2845 17.6736 25.2588 17.6479 25.2588H17.6222C17.5966 25.2588 17.5965 25.2331 17.5709 25.2331C17.5452 25.2331 17.5195 25.2074 17.4682 25.2074C17.4425 25.2074 17.4425 25.1817 17.4168 25.1817C17.3911 25.1817 17.3654 25.1561 17.3398 25.1561C17.3398 25.1561 17.3141 25.1561 17.3141 25.1304C17.2884 25.1047 17.237 25.1047 17.2114 25.079C17.1857 25.079 17.16 25.0533 17.1343 25.0533C17.1086 25.0533 17.1086 25.0277 17.0829 25.0277L17.0572 25.002C17.0316 25.002 17.0316 24.9763 17.0059 24.9763L16.9802 24.9506C16.9545 24.9249 16.9288 24.8992 16.8775 24.8992C16.8518 24.8736 16.8261 24.8479 16.7747 24.8479C16.7747 24.8479 16.7748 24.8479 16.7491 24.8479C16.7491 24.8479 16.7491 24.8479 16.7234 24.8479C16.672 24.8222 16.6207 24.7708 16.595 24.7452C16.5693 24.7195 16.5693 24.7195 16.5436 24.6938C16.5436 24.6938 16.5436 24.6938 16.5179 24.6681C16.4922 24.6681 16.4923 24.6424 16.4666 24.6424C16.4409 24.6168 16.4409 24.6167 16.4152 24.5911C16.3895 24.5654 16.3895 24.5654 16.3638 24.5397C16.3382 24.514 16.3382 24.514 16.3125 24.4883C16.2868 24.4627 16.2611 24.437 16.2354 24.4113C16.2098 24.3856 16.1841 24.3599 16.1584 24.3599C16.1327 24.3343 16.1327 24.3343 16.107 24.3343C16.0814 24.3086 16.0557 24.2829 16.03 24.2829C16.0043 24.2572 15.9786 24.2315 15.953 24.2315C15.9016 24.1802 15.8502 24.1545 15.8245 24.1031C15.7989 24.0774 15.7732 24.0518 15.7475 24.0518L15.7218 24.0261L15.6961 24.0004L15.6705 23.9747C15.6448 23.949 15.6448 23.949 15.6191 23.9234C15.5934 23.8977 15.542 23.872 15.5163 23.8206C15.465 23.7693 15.4136 23.7179 15.3879 23.6922C15.3623 23.6665 15.3366 23.6409 15.3109 23.6152C15.2852 23.5895 15.2595 23.5638 15.2595 23.5638C15.2338 23.5381 15.2339 23.5381 15.2082 23.5124L15.1825 23.4868L15.1568 23.4611C15.1825 23.4611 15.1825 23.4611 15.1825 23.4611C15.2082 23.4611 15.2339 23.4611 15.2852 23.4611C15.3109 23.4611 15.3109 23.4611 15.3366 23.4611C15.3623 23.4611 15.3623 23.4611 15.3879 23.4611C15.4136 23.4611 15.465 23.4611 15.5163 23.4611C15.542 23.4611 15.542 23.4611 15.5677 23.4611C15.5934 23.4611 15.5934 23.4611 15.6191 23.4611C15.6448 23.4611 15.6448 23.4611 15.6705 23.4611C15.6961 23.4611 15.6961 23.4611 15.7218 23.4611C15.7475 23.4611 15.7475 23.4611 15.7732 23.4611H15.7989H15.8759C15.9273 23.4611 15.9786 23.4611 16.0557 23.4611C16.0814 23.4611 16.1327 23.4611 16.1584 23.4611C16.1841 23.4611 16.2354 23.4611 16.2611 23.4611H16.2868C16.3125 23.4611 16.3382 23.4611 16.3638 23.4611C16.3895 23.4611 16.3895 23.4611 16.4152 23.4611C16.4152 23.4611 16.4152 23.4611 16.4409 23.4611C16.4666 23.4611 16.4922 23.4611 16.5179 23.4611C16.5693 23.4611 16.6207 23.4611 16.6463 23.4611C16.6977 23.4611 16.7234 23.4611 16.7491 23.4611H16.7747C16.7747 23.4611 16.7747 23.4611 16.8004 23.4611H16.8261C16.8261 23.4611 16.8261 23.4611 16.8518 23.4611C16.8775 23.4611 16.9031 23.4611 16.9288 23.4611C16.9802 23.4611 17.0316 23.4354 17.1086 23.4354C17.1343 23.4354 17.1343 23.4354 17.16 23.4354C17.1857 23.4354 17.2113 23.4354 17.237 23.4354C17.2627 23.4354 17.3141 23.4354 17.3398 23.4097C17.3654 23.4097 17.3911 23.4097 17.4168 23.4097C17.4425 23.4097 17.4682 23.4097 17.5195 23.4097H17.5452C17.5452 23.4097 17.5452 23.4097 17.5709 23.4097H17.5966C17.6223 23.4097 17.6479 23.4097 17.6736 23.4097C17.6993 23.4097 17.6993 23.4097 17.725 23.4097C17.7507 23.4097 17.7507 23.4097 17.7763 23.4097C17.802 23.4097 17.8534 23.4097 17.8791 23.4097C17.9047 23.4097 17.9561 23.4097 17.9818 23.384C18.0332 23.384 18.0845 23.3584 18.1359 23.3584H18.1616H18.1872C18.2129 23.3584 18.2386 23.3584 18.2643 23.3584C18.3156 23.3584 18.367 23.3584 18.3927 23.3327H18.4184C18.4184 23.3327 18.4184 23.3327 18.444 23.3327C18.4697 23.3327 18.4954 23.3327 18.5211 23.3327C18.5468 23.3327 18.5724 23.3327 18.5981 23.307C18.6238 23.307 18.6752 23.307 18.7009 23.2813C18.7265 23.2813 18.7522 23.2813 18.8036 23.2813C18.855 23.2813 18.8806 23.2556 18.932 23.2556C18.9577 23.2556 18.9577 23.2556 18.9834 23.2556C19.0347 23.2556 19.0861 23.23 19.1375 23.23C19.1888 23.23 19.2145 23.2043 19.2659 23.2043C19.2916 23.2043 19.3172 23.2043 19.3429 23.2043H19.3686C19.3943 23.2043 19.42 23.2043 19.42 23.2043C19.4713 23.2043 19.497 23.1786 19.5484 23.1786H19.574H19.5997H19.6254C19.6511 23.1786 19.7024 23.1786 19.7281 23.1529C19.7538 23.1529 19.7795 23.1529 19.8309 23.1272C19.8565 23.1272 19.8822 23.1272 19.9079 23.1015C19.9079 23.1015 19.9079 23.1015 19.9336 23.1015C20.0106 23.0759 20.0877 23.0759 20.1647 23.0502C20.1647 23.0502 20.1647 23.0502 20.1904 23.0502H20.2161C20.2418 23.0502 20.2675 23.0502 20.2931 23.0245H20.3188H20.3445C20.3445 23.0245 20.3445 23.0245 20.3702 23.0245C20.3958 23.0245 20.3959 23.0245 20.4215 23.0245C20.4472 23.0245 20.4729 23.0245 20.4986 22.9988C20.5756 22.9731 20.6527 22.9731 20.7297 22.9475C20.7554 22.9475 20.7811 22.9475 20.8068 22.9218C20.8324 22.9218 20.8581 22.8961 20.9095 22.8961C20.9351 22.8961 20.9352 22.8961 20.9608 22.8961C21.0122 22.8704 21.0636 22.8704 21.1149 22.8447H21.1406C21.1663 22.8447 21.192 22.819 21.2433 22.819C21.269 22.819 21.2947 22.7934 21.3204 22.7934C21.3204 22.7934 21.3204 22.7934 21.3461 22.7934H21.3717C21.3974 22.7934 21.4231 22.7677 21.4745 22.7677C21.5002 22.7677 21.5258 22.742 21.5515 22.742C21.5515 22.742 21.5772 22.742 21.5772 22.7163C21.5002 22.4081 21.5001 22.4081 21.5515 22.4081C21.5515 22.3825 21.5515 22.3825 21.5515 22.3825C21.5515 22.3825 21.5515 22.3825 21.5515 22.4081C21.5515 22.3825 21.5515 22.3825 21.5515 22.4081Z"
        fill="#E26939" />
    <path
        d="M25.9688 18.8898L25.5322 17.9396C25.147 17.9653 24.7618 18.1194 24.3509 18.145C23.8373 22.7677 20.8839 26.0806 19.0092 26.4915C18.8808 26.1577 18.5726 25.9265 18.5469 25.567C18.0589 25.5927 18.2644 26.2347 17.9562 26.3888C17.6737 26.5429 14.9001 24.5654 14.4122 23.3327C14.3094 23.872 15.6962 27.7242 16.0301 28.2635C16.5437 29.1624 17.3655 29.8558 18.0332 30.6519C18.0589 30.5235 18.1873 30.4208 18.213 30.2924C18.4441 30.4465 18.7523 31.0628 18.9064 31.3453C19.7282 30.9344 20.4473 30.2667 20.8839 29.4706C20.9609 29.6503 21.0637 29.8044 21.115 29.9842C23.6575 26.9024 26.2 23.0759 25.9688 18.8898Z"
        fill="#261411" />
    <path
        d="M17.5711 22.2541L16.2357 22.2027C15.3625 22.6906 14.2582 23.4868 13.3594 24.1031C14.0271 24.1288 17.0832 23.5638 17.8023 23.3584C17.8023 22.9988 17.7252 22.5622 17.5711 22.2541Z"
        fill="#261411" />
    <path
        d="M17.982 22.2027L19.266 21.7661C20.2419 21.9716 21.5517 22.4082 22.5533 22.742C21.9112 22.9731 18.8294 23.307 18.0847 23.3327C18.0076 22.9731 17.9306 22.5366 17.982 22.2027Z"
        fill="#261411" />
    <path
        d="M18.5724 21.9973C18.1615 21.7405 17.1086 21.9459 16.8004 21.7148C16.5692 21.535 17.4681 17.8625 16.2097 16.5271C17.0059 18.2221 16.2611 21.1755 15.7988 22.2284C16.6977 22.4852 17.802 22.3311 18.5724 21.9973Z"
        fill="#EF7950" />
    <path
        d="M18.5985 16.8096C18.3417 17.2719 18.8296 18.4789 18.958 18.8898L19.5487 19.0439C19.446 18.7614 18.9837 17.8368 19.523 16.861C19.7798 16.373 20.4732 16.0391 20.576 15.9621C20.3962 16.0391 18.8039 16.4757 18.5985 16.8096Z"
        fill="#EF7950" />
    <path
        d="M22.2964 18.4275C22.2194 18.6073 22.0396 18.7357 21.8084 18.8384C21.4489 19.0182 20.9353 19.0952 20.4217 19.1209C19.831 19.1466 19.2403 19.0438 18.9321 18.8898C18.9578 18.8641 18.9578 18.8641 18.9835 18.8384C19.0348 18.8127 19.0605 18.7613 19.0862 18.7357C19.5485 18.1964 19.343 17.5029 20.1391 17.4259C20.2419 17.4259 20.3189 17.4259 20.4217 17.4259C20.9353 17.4259 21.4232 17.6057 21.7571 17.8625C22.0139 17.9909 22.1937 18.1963 22.2964 18.4275Z"
        fill="white" />
    <path
        d="M19.5999 18.1706C19.4971 18.71 19.8053 19.2236 20.2676 19.3263C20.7299 19.429 21.1664 19.0695 21.2692 18.5302C21.3719 17.9909 21.0637 17.4773 20.6015 17.3745C20.1392 17.2718 19.7026 17.6313 19.5999 18.1706Z"
        fill="#6D4A44" />
    <path
        d="M19.7026 18.1193C19.6512 18.4788 19.831 18.787 20.1135 18.864C20.396 18.9154 20.6785 18.6843 20.7555 18.3504C20.8069 18.0166 20.6271 17.6827 20.3446 17.6057C20.0621 17.5543 19.7796 17.7854 19.7026 18.1193Z"
        fill="#261411" />
    <path
        d="M20.6016 18.145L21.6545 18.1706C21.6545 18.1706 21.7059 18.6329 21.5775 18.6843C21.295 18.7356 20.6016 18.145 20.6016 18.145Z"
        fill="white" />
    <path
        d="M22.2968 18.4275C22.1941 18.1964 22.0143 18.0937 21.7832 17.9396C21.4236 17.6828 20.9614 17.503 20.4478 17.503C20.345 17.503 20.3707 17.503 20.268 17.503C19.5489 17.5544 19.5232 18.3248 19.1123 18.7614C19.4205 18.3505 19.3434 17.6314 19.4719 17.1691C19.5489 16.9894 19.6773 16.8609 19.9085 16.8353C20.0112 16.8353 20.0882 16.8353 20.1909 16.8353C20.7046 16.8353 21.1925 17.015 21.5264 17.2718C21.7318 17.4259 21.8603 17.5287 21.963 17.7598C21.963 17.7855 22.2968 18.4018 22.2968 18.4275Z"
        fill="#6D4A44" />
    <path
        d="M22.2966 18.4275C22.2453 18.3248 22.1939 18.2477 22.1425 18.1707C22.0398 18.0423 21.9371 17.9395 21.8087 17.8368C21.4491 17.58 20.9869 17.4002 20.4732 17.4002C20.3705 17.4002 20.2935 17.4002 20.1907 17.4002C19.4203 17.4773 19.5487 18.222 19.0864 18.7613C19.3946 18.3504 19.3432 17.6057 19.4716 17.1691C19.523 16.938 19.6514 16.7839 19.9339 16.7582C20.0367 16.7582 20.1137 16.7582 20.2164 16.7582C20.73 16.7582 21.218 16.938 21.5518 17.1948C21.7573 17.3489 21.8857 17.4516 21.9884 17.6827C21.9884 17.6827 22.2709 18.3761 22.2966 18.4275Z"
        fill="#EF7950" />
    <path
        d="M22.2966 18.4275C22.2966 18.4275 22.1939 18.8127 21.8086 19.0182C21.4491 19.1979 20.9355 19.275 20.4219 19.3007C19.8312 19.3263 19.2662 19.0695 18.958 18.8898C19.2662 19.0695 19.8312 19.1466 20.4475 19.1209C20.9612 19.0952 21.4748 19.0182 21.8344 18.8384C22.0398 18.7357 22.2196 18.6073 22.2966 18.4275Z"
        fill="#EF7950" />
    <path
        d="M19.0352 19.1722L19.4204 19.5831C20.1908 19.9427 20.9099 19.6088 21.3978 19.5061C20.6788 19.6345 19.6001 19.5061 19.0352 19.1722Z"
        fill="#EF7950" />
    <path
        d="M16.441 18.9925C16.441 18.9925 16.2099 19.5318 16.0558 19.6345C15.9017 19.7373 15.7476 19.7373 15.5679 19.7886C15.8247 19.7886 16.0558 19.7886 16.2869 19.6859C16.364 19.6602 16.5695 19.5832 16.5951 19.5061C16.6465 19.4291 16.4667 19.0695 16.441 18.9925Z"
        fill="#EF7950" />
    <path
        d="M14.438 18.8641C14.515 19.0439 14.6178 19.1466 14.7719 19.2493C15.003 19.4034 15.3368 19.4548 15.645 19.4291C16.0045 19.4034 16.3641 19.3007 16.5182 19.0952C16.5182 19.0696 16.4925 19.0696 16.4925 19.0439C16.4668 19.0182 16.4411 18.9668 16.4155 18.9412C16.0816 18.4275 16.133 17.7598 15.6707 17.7341C15.6194 17.7341 15.568 17.7341 15.4909 17.7341C15.1827 17.7855 14.9002 17.9653 14.7205 18.2478C14.5664 18.4275 14.4894 18.633 14.438 18.8641Z"
        fill="white" />
    <path
        d="M14.8745 18.6073C14.8745 19.1466 15.08 19.6088 15.3625 19.6345C15.645 19.6602 15.8761 19.2236 15.8761 18.6843C15.8761 18.145 15.6706 17.6827 15.3881 17.657C15.1313 17.657 14.9002 18.068 14.8745 18.6073Z"
        fill="#6D4A44" />
    <path
        d="M15.2085 18.6843C15.2085 19.0439 15.3369 19.3264 15.5167 19.3264C15.6964 19.3264 15.8505 19.0696 15.8505 18.71C15.8505 18.3505 15.7221 18.068 15.5424 18.068C15.3626 18.068 15.2085 18.3248 15.2085 18.6843Z"
        fill="#261411" />
    <path
        d="M15.645 18.4275H15.8762C15.8762 18.4275 16.0816 18.8898 16.0046 18.9668C15.8505 19.0695 15.645 18.4275 15.645 18.4275Z"
        fill="white" />
    <path
        d="M14.438 18.8641C14.4894 18.633 14.5921 18.5046 14.6948 18.3505C14.8746 18.068 15.1571 17.8882 15.4652 17.8369C15.5166 17.8369 15.5166 17.8369 15.568 17.8369C16.0046 17.8625 16.1073 18.6073 16.3898 18.9925C16.1586 18.6073 16.133 17.8882 16.0302 17.4773C15.9532 17.2976 15.8762 17.1948 15.7221 17.1948C15.6707 17.1948 15.6194 17.1948 15.5423 17.1948C15.2341 17.2462 14.9516 17.426 14.7719 17.7085C14.6435 17.8882 14.5921 17.991 14.5407 18.2221C14.5921 18.1964 14.438 18.8384 14.438 18.8641Z"
        fill="#6D4A44" />
    <path
        d="M14.438 18.8641C14.4637 18.7613 14.4894 18.6843 14.515 18.6072C14.5664 18.4788 14.6178 18.3761 14.6948 18.2734C14.8746 17.9909 15.1571 17.8111 15.4652 17.7598C15.5166 17.7598 15.568 17.7598 15.645 17.7598C16.133 17.7854 16.21 18.8384 16.5182 19.1209C16.3898 18.6329 16.1843 17.9138 16.0559 17.4773C16.0046 17.2461 15.9018 17.1177 15.7477 17.092C15.6964 17.092 15.645 17.092 15.568 17.092C15.2598 17.1434 14.9773 17.3232 14.7975 17.6057C14.6691 17.7854 14.6178 17.8882 14.5664 18.1193C14.5664 18.1193 14.438 18.8127 14.438 18.8641Z"
        fill="#EF7950" />
    <path
        d="M14.438 18.8641C14.438 18.8641 14.5921 19.352 14.8489 19.5061C15.08 19.6602 15.3368 19.6859 15.645 19.6859C16.0045 19.6602 16.3384 19.3007 16.4925 19.0952C16.3384 19.3007 15.9789 19.4034 15.6193 19.4291C15.3112 19.4548 15.003 19.3777 14.7462 19.2493C14.6177 19.1466 14.515 19.0182 14.438 18.8641Z"
        fill="#EF7950" />
    <path
        d="M18.5469 15.6796C18.6753 15.6539 18.9322 15.6025 18.9322 15.6025L19.3687 16.0134C19.3687 16.0134 19.2917 15.5769 19.3687 15.5769C21.3462 15.3714 22.168 16.2189 22.168 16.2189C19.4715 15.9364 19.0606 17.0407 18.3929 16.9637C17.9049 16.8866 18.0333 15.9364 18.5469 15.6796Z"
        fill="#261411" />
    <path
        d="M16.1072 16.0905C15.9788 16.0648 15.722 16.0134 15.722 16.0134L15.3111 16.45C15.3111 16.45 15.3625 16.0134 15.2854 16.0134C14.1041 15.9621 13.7959 17.015 13.7959 17.015C16.4925 16.6041 15.6707 17.4516 16.3384 17.3232C16.8263 17.2461 16.6465 16.3216 16.1072 16.0905Z"
        fill="#261411" />
    <path
        d="M25.1985 17.1178C25.6864 16.5784 26.9962 16.7325 27.3814 17.3232C27.818 17.9909 26.2258 20.7388 25.558 20.6104C24.0428 20.3023 25.1985 17.1178 25.1985 17.1178Z"
        fill="#FBA479" />
    <path
        d="M25.0444 18.71C25.0701 18.4789 25.0958 18.2221 25.1471 18.0166C25.1728 17.8882 25.2242 17.7855 25.2755 17.6571C25.3012 17.6057 25.3269 17.5287 25.3526 17.4773C25.6351 17.1178 26.0974 17.1948 26.4569 17.2205C26.5853 17.2462 26.8421 17.2719 26.9448 17.3489C27.0219 17.426 27.0476 17.58 27.0732 17.6828C26.8678 17.3489 26.2258 17.3746 25.9176 17.503C25.5837 17.6314 25.3526 18.1707 25.4039 18.5303C25.6864 18.5559 25.8919 18.9155 25.7892 19.1723C25.7121 19.4291 25.1471 19.4805 25.1215 19.198C25.6094 19.2237 25.3012 18.7871 25.0444 18.71Z"
        fill="#EF7950" />
    <path
        d="M34.0076 34.2216C33.6994 34.5041 33.3913 34.8123 33.0831 35.0691C32.9803 35.1462 32.9033 35.2232 32.8006 35.3003C32.7235 35.3516 32.6722 35.403 32.5951 35.48C32.5181 35.5314 32.4667 35.5827 32.3897 35.6341C32.0301 35.9166 31.6706 36.1991 31.2854 36.4559C31.234 36.5073 31.157 36.533 31.1056 36.5843C30.9258 36.7127 30.7461 36.8155 30.5663 36.9439C30.4893 36.9952 30.4122 37.0466 30.3608 37.0723C30.1811 37.175 30.0013 37.2777 29.8215 37.3805C29.7702 37.4061 29.7445 37.4318 29.6931 37.4575C29.6418 37.4832 29.5647 37.5345 29.5133 37.5602C29.4363 37.6116 29.3593 37.6373 29.2822 37.6886C29.2822 37.6886 29.2565 37.6886 29.2565 37.7143C28.8713 37.9198 28.4861 38.0995 28.1009 38.2793C28.0495 38.305 27.9981 38.3307 27.9724 38.3307C27.9468 38.3307 27.9468 38.3564 27.9211 38.3564C27.8441 38.382 27.7927 38.4077 27.7156 38.4334C27.5615 38.5104 27.4075 38.5618 27.2534 38.6132C27.202 38.6388 27.1506 38.6645 27.0736 38.6645H27.0479C27.0479 38.6645 27.0222 38.6645 27.0222 38.6902C26.9709 38.7159 26.9195 38.7416 26.8682 38.7416C26.8425 38.7673 26.7911 38.7673 26.7654 38.7929C26.7397 38.7929 26.7141 38.8186 26.6884 38.8186C26.6627 38.8186 26.637 38.8443 26.637 38.8443C26.5343 38.8957 26.4059 38.9213 26.2775 38.9727C26.1234 39.0241 25.9436 39.0754 25.7895 39.1268C25.7638 39.1268 25.7382 39.1268 25.7382 39.1525C25.6868 39.1782 25.6354 39.1782 25.5841 39.2038C25.4557 39.2295 25.3273 39.2809 25.1989 39.3066C25.1475 39.3066 25.1218 39.3323 25.0961 39.3323C25.0191 39.3579 24.9164 39.3836 24.8393 39.4093C24.8136 39.4093 24.7879 39.435 24.7623 39.435C24.7366 39.435 24.7109 39.435 24.7109 39.4607C24.6852 39.4607 24.6852 39.4607 24.6596 39.4863C24.5568 39.512 24.4541 39.5377 24.3514 39.5634C24.3514 39.5634 24.3514 39.5634 24.3257 39.5634C24.5825 39.0241 24.865 38.5104 25.1475 38.0225C27.0736 34.6069 29.2565 32.0387 31.4395 31.936C31.5679 31.936 31.6963 31.936 31.799 31.936C33.1088 31.936 33.7765 32.8862 34.0076 34.2216Z"
        fill="#686766" />
    <path
        d="M25.096 37.9454C24.9163 38.4334 24.7622 38.9213 24.5824 39.4093C24.4797 39.435 24.377 39.4606 24.2742 39.4863C24.2742 39.4863 24.2742 39.4863 24.2485 39.4863C24.5567 38.9727 24.8135 38.4591 25.096 37.9454Z"
        fill="#424140" />
</svg>
    