<svg width="41" height="41" viewBox="0 0 41 41" fill="none" xmlns="http://www.w3.org/2000/svg">
<rect x="0.5" y="0.410156" width="40" height="40" rx="5" fill="#00A31A" fill-opacity="0.1"/>
<path d="M10.7487 15.7838C10.7412 15.8247 10.7369 15.8661 10.7356 15.9075V16.7581C10.7366 17.1086 10.9544 17.422 11.2828 17.5451V18.7967C11.2843 19.2157 11.6138 19.5601 12.0322 19.5799V26.8103C11.6138 26.8303 11.2843 27.1747 11.2828 27.5936V28.8414C10.9537 28.9678 10.7361 29.2835 10.7356 29.6359V30.4679C10.7356 30.623 10.8616 30.7488 11.0167 30.7488H29.9708C30.1259 30.7488 30.2518 30.623 30.2518 30.4679V29.6359C30.2512 29.2834 30.0336 28.9677 29.7047 28.8414V27.5862C29.7032 27.1672 29.3736 26.8228 28.9552 26.803V19.5799C29.3736 19.5601 29.7032 19.2157 29.7047 18.7967V17.5451C30.033 17.422 30.2507 17.1086 30.2518 16.7581V15.9131C30.2505 15.8717 30.2462 15.8303 30.2386 15.7894C30.3799 15.852 30.5452 15.7883 30.6078 15.647C30.6704 15.5058 30.6067 15.3406 30.4655 15.2779L20.623 10.1048C20.5409 10.0614 20.4427 10.0614 20.3606 10.1048L10.5183 15.2723C10.3809 15.3448 10.3283 15.5147 10.4006 15.6521C10.4667 15.7775 10.616 15.8341 10.7487 15.7838ZM11.8449 18.0322V17.5994H15.0862V18.0285L11.8449 18.0322ZM19.0622 19.5818V26.8103C18.6437 26.8303 18.3142 27.1747 18.3127 27.5936V28.789H15.6445V27.5936C15.643 27.1747 15.3135 26.8303 14.895 26.8103V19.5799C15.3135 19.5601 15.643 19.2157 15.6445 18.7967V17.5994H18.3089V18.7949C18.3096 19.2146 18.6393 19.5598 19.0585 19.5799L19.0622 19.5818ZM18.8748 18.0322V17.5994H22.1163V18.0285L18.8748 18.0322ZM26.0923 19.5818V26.8103C25.6738 26.8303 25.3442 27.1747 25.3427 27.5936V28.789H22.6746V27.5936C22.6731 27.1747 22.3435 26.8303 21.9251 26.8103V19.5799C22.3435 19.5601 22.6731 19.2157 22.6746 18.7967V17.5994H25.339V18.7949C25.3395 19.2146 25.6693 19.5598 26.0884 19.5799L26.0923 19.5818ZM25.9049 18.0322V17.5994H29.1463V18.0285L25.9049 18.0322ZM29.1463 28.36V28.789H25.9011V28.36H29.1463ZM22.1163 28.36V28.789H18.8711V28.36H22.1163ZM19.3395 19.0234H19.0959C18.9717 19.0234 18.8711 18.9228 18.8711 18.7986V18.5943H22.1125V18.7986C22.1125 18.9228 22.0119 19.0234 21.8877 19.0234H19.3395ZM21.365 19.5855V26.8067H19.6206V19.5855H21.365ZM19.3395 27.3687H21.8877C22.0119 27.3687 22.1125 27.4693 22.1125 27.5936V27.7979H18.8711V27.5936C18.8711 27.4693 18.9717 27.3687 19.0959 27.3687H19.3395ZM15.0825 28.36V28.789H11.841V28.36H15.0825ZM11.841 18.8042V18.5943H15.0825V18.7986C15.0825 18.9228 14.982 19.0234 14.8576 19.0234H12.0602C11.9375 19.0204 11.8399 18.9194 11.841 18.7967V18.8042ZM14.3331 19.5911V26.8067H12.5905V19.5855L14.3331 19.5911ZM11.841 27.5993C11.841 27.4749 11.9416 27.3744 12.0658 27.3744H14.8576C14.982 27.3744 15.0825 27.4749 15.0825 27.5993V27.8035H11.841V27.5993ZM29.6897 29.6472V30.198H11.294V29.6472C11.294 29.4868 11.4239 29.3567 11.5844 29.3567H29.3993C29.5574 29.3567 29.6867 29.4833 29.6897 29.6415V29.6472ZM29.1426 27.5993V27.8035H25.9011V27.5993C25.9011 27.4749 26.0017 27.3744 26.1259 27.3744H28.9234C29.0432 27.3774 29.1396 27.4737 29.1426 27.5936V27.5993ZM26.6505 26.8123V19.5855H28.3949V26.8067L26.6505 26.8123ZM29.1426 18.8042C29.1426 18.9284 29.042 19.029 28.9178 19.029H26.1278C26.0036 19.029 25.903 18.9284 25.903 18.8042V18.5943H29.1444L29.1426 18.8042ZM20.4918 10.6669L28.8615 15.0662H12.1221L20.4918 10.6669ZM11.294 15.9131C11.294 15.758 11.4198 15.6321 11.5749 15.6321H29.4087C29.5638 15.6321 29.6897 15.758 29.6897 15.9131V16.7638C29.6897 16.9189 29.5638 17.0448 29.4087 17.0448H11.5749C11.4198 17.0448 11.294 16.9189 11.294 16.7638V15.9131Z" fill="#00A31A" stroke="#00A31A" stroke-width="0.2"/>
</svg>
