<svg width="60" height="61" viewBox="0 0 60 61" fill="none" xmlns="http://www.w3.org/2000/svg">
<rect y="0.5" width="60" height="60" rx="15" fill="#00D1FF" fill-opacity="0.1"/>
<path d="M15.7222 23.7252C15.7112 23.7851 15.705 23.8457 15.703 23.9063V25.1518C15.7046 25.665 16.0233 26.1239 16.5042 26.3042V28.1367C16.5064 28.7503 16.9889 29.2545 17.6016 29.2835V39.8705C16.9889 39.8997 16.5064 40.404 16.5042 41.0173V42.8444C16.0223 43.0295 15.7038 43.4918 15.703 44.0076V45.2259C15.703 45.453 15.8875 45.6373 16.1146 45.6373H43.8675C44.0946 45.6373 44.2789 45.453 44.2789 45.2259V44.0076C44.2781 43.4916 43.9596 43.0293 43.4779 42.8444V41.0065C43.4757 40.3929 42.9931 39.8887 42.3805 39.8597V29.2835C42.9931 29.2545 43.4757 28.7503 43.4779 28.1367V26.3042C43.9586 26.1239 44.2773 25.665 44.2789 25.1518V23.9145C44.2771 23.8539 44.2707 23.7933 44.2597 23.7334C44.4666 23.8251 44.7086 23.7318 44.8002 23.5249C44.8918 23.3182 44.7986 23.0763 44.5919 22.9844L30.1804 15.4099C30.0601 15.3464 29.9164 15.3464 29.7962 15.4099L15.3848 22.9762C15.1837 23.0825 15.1067 23.3312 15.2125 23.5323C15.3094 23.716 15.5279 23.7989 15.7222 23.7252ZM17.3272 27.0174V26.3836H22.0733V27.0119L17.3272 27.0174ZM27.895 29.2863V39.8705C27.2822 39.8997 26.7998 40.404 26.7976 41.0173V42.7676H22.8907V41.0173C22.8885 40.404 22.4061 39.8997 21.7934 39.8705V29.2835C22.4061 29.2545 22.8885 28.7503 22.8907 28.1367V26.3836H26.792V28.1341C26.793 28.7487 27.2758 29.2541 27.8896 29.2835L27.895 29.2863ZM27.6206 27.0174V26.3836H32.3669V27.0119L27.6206 27.0174ZM38.1885 29.2863V39.8705C37.5758 39.8997 37.0932 40.404 37.091 41.0173V42.7676H33.1843V41.0173C33.1821 40.404 32.6995 39.8997 32.087 39.8705V29.2835C32.6995 29.2545 33.1821 28.7503 33.1843 28.1367V26.3836H37.0856V28.1341C37.0864 28.7487 37.5692 29.2541 38.1829 29.2835L38.1885 29.2863ZM37.9142 27.0174V26.3836H42.6603V27.0119L37.9142 27.0174ZM42.6603 42.1395V42.7676H37.9086V42.1395H42.6603ZM32.3669 42.1395V42.7676H27.6152V42.1395H32.3669ZM28.301 28.4687H27.9444C27.7625 28.4687 27.6152 28.3214 27.6152 28.1395V27.8404H32.3613V28.1395C32.3613 28.3214 32.214 28.4687 32.0321 28.4687H28.301ZM31.2667 29.2917V39.8651H28.7126V29.2917H31.2667ZM28.301 40.6881H32.0321C32.214 40.6881 32.3613 40.8354 32.3613 41.0173V41.3164H27.6152V41.0173C27.6152 40.8354 27.7625 40.6881 27.9444 40.6881H28.301ZM22.0679 42.1395V42.7676H17.3216V42.1395H22.0679ZM17.3216 28.1477V27.8404H22.0679V28.1395C22.0679 28.3214 21.9206 28.4687 21.7385 28.4687H17.6426C17.4629 28.4643 17.32 28.3164 17.3216 28.1367V28.1477ZM20.9705 29.2999V39.8651H18.419V29.2917L20.9705 29.2999ZM17.3216 41.0257C17.3216 40.8436 17.4689 40.6963 17.6508 40.6963H21.7385C21.9206 40.6963 22.0679 40.8436 22.0679 41.0257V41.3246H17.3216V41.0257ZM43.4559 44.0242V44.8307H16.5206V44.0242C16.5206 43.7893 16.7109 43.5988 16.9458 43.5988H43.0307C43.2622 43.5988 43.4515 43.7843 43.4559 44.0158V44.0242ZM42.6549 41.0257V41.3246H37.9086V41.0257C37.9086 40.8436 38.0559 40.6963 38.2378 40.6963H42.3339C42.5094 40.7007 42.6505 40.8418 42.6549 41.0173V41.0257ZM39.006 39.8733V29.2917H41.5601V39.8651L39.006 39.8733ZM42.6549 28.1477C42.6549 28.3296 42.5076 28.4769 42.3257 28.4769H38.2406C38.0587 28.4769 37.9114 28.3296 37.9114 28.1477V27.8404H42.6575L42.6549 28.1477ZM29.9883 16.2329L42.2433 22.6745H17.7332L29.9883 16.2329ZM16.5206 23.9145C16.5206 23.6874 16.7049 23.5031 16.932 23.5031H43.0445C43.2716 23.5031 43.4559 23.6874 43.4559 23.9145V25.1602C43.4559 25.3873 43.2716 25.5716 43.0445 25.5716H16.932C16.7049 25.5716 16.5206 25.3873 16.5206 25.1602V23.9145Z" fill="#00D1FF" stroke="#00D1FF" stroke-width="0.5"/>
</svg>
