<svg width="20" height="20" viewBox="0 0 20 20" fill="none" xmlns="http://www.w3.org/2000/svg">
    <g clip-path="url(#clip0_291_3399)">
        <path
            d="M16.4813 9.16663H3.51836C2.49561 9.16663 1.6665 9.98065 1.6665 10.9848V17.3484C1.6665 18.3526 2.49561 19.1666 3.51836 19.1666H16.4813C17.5041 19.1666 18.3332 18.3526 18.3332 17.3484V10.9848C18.3332 9.98065 17.5041 9.16663 16.4813 9.16663Z"
            stroke="#A2A2A8" stroke-width="1.5" stroke-linecap="round" stroke-linejoin="round" />
        <path
            d="M5 9.16671V5.463C5 4.23515 5.52678 3.05759 6.46447 2.18936C7.40215 1.32114 8.67392 0.833374 10 0.833374C11.3261 0.833374 12.5979 1.32114 13.5355 2.18936C14.4732 3.05759 15 4.23515 15 5.463V9.16671"
            stroke="#A2A2A8" stroke-width="1.5" stroke-linecap="round" stroke-linejoin="round" />
    </g>
    <defs>
        <clipPath id="clip0_291_3399">
            <rect width="20" height="20" fill="white" />
        </clipPath>
    </defs>
</svg>
    