<svg width="35" height="36" viewBox="0 0 35 36" fill="none" xmlns="http://www.w3.org/2000/svg">
<rect y="0.0712891" width="35" height="35" rx="5" fill="url(#paint0_linear_980_2610)" fill-opacity="0.05"/>
<path d="M28.1875 8.57129H6.81248C5.26225 8.57129 4 9.83354 4 11.3838V23.7588C4 25.309 5.26225 26.5713 6.81248 26.5713H28.1874C29.7376 26.5713 30.9999 25.309 30.9999 23.7588V11.3838C30.9999 9.83354 29.7377 8.57129 28.1875 8.57129ZM29.875 23.7588C29.875 24.6892 29.1179 25.4463 28.1875 25.4463H6.81248C5.88209 25.4463 5.12498 24.6892 5.12498 23.7588V11.3838C5.12498 10.4534 5.88209 9.69632 6.81248 9.69632H28.1874C29.1178 9.69632 29.8749 10.4534 29.8749 11.3838V23.7588H29.875Z" fill="url(#paint1_linear_980_2610)"/>
<path d="M30.4374 11.9463H4.56252C4.25202 11.9463 4 12.1983 4 12.5088V15.8838C4 16.1943 4.25202 16.4463 4.56252 16.4463H30.4375C30.748 16.4463 31 16.1943 31 15.8838V12.5088C30.9999 12.1983 30.7479 11.9463 30.4374 11.9463ZM29.875 15.3213H5.12498V13.0713H29.8749V15.3213H29.875Z" fill="url(#paint2_linear_980_2610)"/>
<path d="M14.6875 19.8213H7.93752C7.62702 19.8213 7.375 20.0733 7.375 20.3838C7.375 20.6943 7.62702 20.9463 7.93752 20.9463H14.6875C14.998 20.9463 15.25 20.6943 15.25 20.3838C15.25 20.0733 14.998 19.8213 14.6875 19.8213Z" fill="url(#paint3_linear_980_2610)"/>
<path d="M14.6875 22.0713H7.93752C7.62702 22.0713 7.375 22.3233 7.375 22.6338C7.375 22.9443 7.62702 23.1963 7.93752 23.1963H14.6875C14.998 23.1963 15.25 22.9443 15.25 22.6338C15.25 22.3233 14.998 22.0713 14.6875 22.0713Z" fill="url(#paint4_linear_980_2610)"/>
<path d="M25.9375 18.6963H24.8125C23.8821 18.6963 23.125 19.4534 23.125 20.3838V21.5088C23.125 22.4392 23.8821 23.1963 24.8125 23.1963H25.9375C26.8679 23.1963 27.625 22.4392 27.625 21.5088V20.3838C27.625 19.4534 26.8679 18.6963 25.9375 18.6963ZM26.5 21.5088C26.5 21.8193 26.248 22.0713 25.9375 22.0713H24.8125C24.502 22.0713 24.25 21.8193 24.25 21.5088V20.3838C24.25 20.0733 24.502 19.8213 24.8125 19.8213H25.9375C26.248 19.8213 26.5 20.0733 26.5 20.3838V21.5088Z" fill="url(#paint5_linear_980_2610)"/>
<defs>
<linearGradient id="paint0_linear_980_2610" x1="0" y1="0.0712891" x2="35" y2="35.0713" gradientUnits="userSpaceOnUse">
<stop stop-color="#043D69"/>
<stop offset="1" stop-color="#5D0440"/>
</linearGradient>
<linearGradient id="paint1_linear_980_2610" x1="17.4999" y1="8.57129" x2="17.4999" y2="26.5713" gradientUnits="userSpaceOnUse">
<stop stop-color="#043D69"/>
<stop offset="1" stop-color="#5D0440"/>
</linearGradient>
<linearGradient id="paint2_linear_980_2610" x1="17.5" y1="11.9463" x2="17.5" y2="16.4463" gradientUnits="userSpaceOnUse">
<stop stop-color="#043D69"/>
<stop offset="1" stop-color="#5D0440"/>
</linearGradient>
<linearGradient id="paint3_linear_980_2610" x1="11.3125" y1="19.8213" x2="11.3125" y2="20.9463" gradientUnits="userSpaceOnUse">
<stop stop-color="#043D69"/>
<stop offset="1" stop-color="#5D0440"/>
</linearGradient>
<linearGradient id="paint4_linear_980_2610" x1="11.3125" y1="22.0713" x2="11.3125" y2="23.1963" gradientUnits="userSpaceOnUse">
<stop stop-color="#043D69"/>
<stop offset="1" stop-color="#5D0440"/>
</linearGradient>
<linearGradient id="paint5_linear_980_2610" x1="25.375" y1="18.6963" x2="25.375" y2="23.1963" gradientUnits="userSpaceOnUse">
<stop stop-color="#043D69"/>
<stop offset="1" stop-color="#5D0440"/>
</linearGradient>
</defs>
</svg>
