<svg width="19" height="21" viewBox="0 0 19 21" fill="none" xmlns="http://www.w3.org/2000/svg">
<path d="M16.0317 14.3888V14.6938L16.2551 14.9014L18.2891 16.7929V16.8375H1.63018V16.7929L3.66423 14.9014L3.88754 14.6938V14.3888V9.14091C3.88754 6.18972 5.54258 3.82454 8.41724 3.19117L8.96662 3.07012V2.50757V1.79385C8.96662 1.35633 9.36067 0.919482 9.95965 0.919482C10.5586 0.919482 10.9527 1.35633 10.9527 1.79385V2.50757V3.0697L11.5016 3.19106C14.3659 3.82435 16.0317 6.2008 16.0317 9.14091V14.3888ZM11.3033 19.2871C11.0401 19.693 10.5539 19.9863 9.95965 19.9863C9.359 19.9863 8.87442 19.6935 8.61328 19.2871H11.3033Z" stroke="black" stroke-opacity="0.7" strokeWidth="1.4"/>
</svg>
