<svg width="21" height="21" viewBox="0 0 21 21" fill="none" xmlns="http://www.w3.org/2000/svg">
<path d="M9.992 0.961914H6.253C3.178 0.961914 1.25 3.13891 1.25 6.22091V14.5349C1.25 17.6169 3.169 19.7939 6.253 19.7939H15.077C18.162 19.7939 20.081 17.6169 20.081 14.5349V10.5069" stroke="black" stroke-width="1.5" stroke-linecap="round" stroke-linejoin="round"/>
<path fill-rule="evenodd" clip-rule="evenodd" d="M7.32666 9.09335L14.7997 1.62035C15.7307 0.690352 17.2397 0.690352 18.1707 1.62035L19.3877 2.83735C20.3187 3.76835 20.3187 5.27835 19.3877 6.20835L11.8787 13.7174C11.4717 14.1244 10.9197 14.3534 10.3437 14.3534H6.59766L6.69166 10.5734C6.70566 10.0174 6.93266 9.48735 7.32666 9.09335Z" stroke="black" stroke-width="1.5" stroke-linecap="round" stroke-linejoin="round"/>
<path d="M13.6641 2.77539L18.2301 7.34139" stroke="black" stroke-width="1.5" stroke-linecap="round" stroke-linejoin="round"/>
</svg>
