<svg width="41" height="41" viewBox="0 0 41 41" fill="none" xmlns="http://www.w3.org/2000/svg">
<rect x="0.5" y="0.410156" width="40" height="40" rx="5" fill="#00A3C7" fill-opacity="0.1"/>
<path d="M26.5 33.9102H14.5C13.7044 33.9102 12.9413 33.5941 12.3787 33.0315C11.8161 32.4689 11.5 31.7058 11.5 30.9102V29.9102C11.5 29.6449 11.6054 29.3906 11.7929 29.203C11.9804 29.0155 12.2348 28.9102 12.5 28.9102C12.7652 28.9102 13.0196 29.0155 13.2071 29.203C13.3946 29.3906 13.5 29.6449 13.5 29.9102V30.9102C13.5 31.1754 13.6054 31.4297 13.7929 31.6173C13.9804 31.8048 14.2348 31.9102 14.5 31.9102H26.5C26.7652 31.9102 27.0196 31.8048 27.2071 31.6173C27.3946 31.4297 27.5 31.1754 27.5 30.9102V9.91016C27.5 9.64494 27.3946 9.39059 27.2071 9.20305C27.0196 9.01551 26.7652 8.91016 26.5 8.91016H14.5C14.2348 8.91016 13.9804 9.01551 13.7929 9.20305C13.6054 9.39059 13.5 9.64494 13.5 9.91016V23.9102C13.5 24.1754 13.3946 24.4297 13.2071 24.6173C13.0196 24.8048 12.7652 24.9102 12.5 24.9102C12.2348 24.9102 11.9804 24.8048 11.7929 24.6173C11.6054 24.4297 11.5 24.1754 11.5 23.9102V9.91016C11.5 9.11451 11.8161 8.35145 12.3787 7.78884C12.9413 7.22623 13.7044 6.91016 14.5 6.91016H26.5C27.2956 6.91016 28.0587 7.22623 28.6213 7.78884C29.1839 8.35145 29.5 9.11451 29.5 9.91016V30.9102C29.5 31.7058 29.1839 32.4689 28.6213 33.0315C28.0587 33.5941 27.2956 33.9102 26.5 33.9102Z" fill="#00A3C7"/>
<path d="M17.5 18.9102H15.5V20.9102H17.5V18.9102Z" fill="#00A3C7"/>
<path d="M21.5 18.9102H19.5V20.9102H21.5V18.9102Z" fill="#00A3C7"/>
<path d="M17.5 22.9102H15.5V24.9102H17.5V22.9102Z" fill="#00A3C7"/>
<path d="M21.5 22.9102H19.5V24.9102H21.5V22.9102Z" fill="#00A3C7"/>
<path d="M17.5 26.9102H15.5V28.9102H17.5V26.9102Z" fill="#00A3C7"/>
<path d="M22.5 26.9102H19.5V28.9102H22.5V26.9102Z" fill="#00A3C7"/>
<path d="M25.5 18.9102H23.5V20.9102H25.5V18.9102Z" fill="#00A3C7"/>
<path d="M25.5 22.9102H23.5V24.9102H25.5V22.9102Z" fill="#00A3C7"/>
<path d="M25.5 25.9102H23.5V28.9102H25.5V25.9102Z" fill="#00A3C7"/>
<path d="M24.5 16.9102H16.5C16.2348 16.9102 15.9804 16.8048 15.7929 16.6173C15.6054 16.4297 15.5 16.1754 15.5 15.9102V11.9102C15.5 11.6449 15.6054 11.3906 15.7929 11.203C15.9804 11.0155 16.2348 10.9102 16.5 10.9102H24.5C24.7652 10.9102 25.0196 11.0155 25.2071 11.203C25.3946 11.3906 25.5 11.6449 25.5 11.9102V15.9102C25.5 16.1754 25.3946 16.4297 25.2071 16.6173C25.0196 16.8048 24.7652 16.9102 24.5 16.9102ZM17.5 14.9102H23.5V12.9102H17.5V14.9102Z" fill="#00A3C7"/>
<path d="M12.5 27.9102C13.0523 27.9102 13.5 27.4624 13.5 26.9102C13.5 26.3579 13.0523 25.9102 12.5 25.9102C11.9477 25.9102 11.5 26.3579 11.5 26.9102C11.5 27.4624 11.9477 27.9102 12.5 27.9102Z" fill="#00A3C7"/>
</svg>
