<svg width="40" height="41" viewBox="0 0 40 41" fill="none" xmlns="http://www.w3.org/2000/svg">
<rect y="0.410156" width="40" height="40" rx="5" fill="url(#paint0_linear_1455_3598)"/>
<path d="M26 33.9102H14C13.2044 33.9102 12.4413 33.5941 11.8787 33.0315C11.3161 32.4689 11 31.7058 11 30.9102V29.9102C11 29.6449 11.1054 29.3906 11.2929 29.203C11.4804 29.0155 11.7348 28.9102 12 28.9102C12.2652 28.9102 12.5196 29.0155 12.7071 29.203C12.8946 29.3906 13 29.6449 13 29.9102V30.9102C13 31.1754 13.1054 31.4297 13.2929 31.6173C13.4804 31.8048 13.7348 31.9102 14 31.9102H26C26.2652 31.9102 26.5196 31.8048 26.7071 31.6173C26.8946 31.4297 27 31.1754 27 30.9102V9.91016C27 9.64494 26.8946 9.39059 26.7071 9.20305C26.5196 9.01551 26.2652 8.91016 26 8.91016H14C13.7348 8.91016 13.4804 9.01551 13.2929 9.20305C13.1054 9.39059 13 9.64494 13 9.91016V23.9102C13 24.1754 12.8946 24.4297 12.7071 24.6173C12.5196 24.8048 12.2652 24.9102 12 24.9102C11.7348 24.9102 11.4804 24.8048 11.2929 24.6173C11.1054 24.4297 11 24.1754 11 23.9102V9.91016C11 9.11451 11.3161 8.35145 11.8787 7.78884C12.4413 7.22623 13.2044 6.91016 14 6.91016H26C26.7956 6.91016 27.5587 7.22623 28.1213 7.78884C28.6839 8.35145 29 9.11451 29 9.91016V30.9102C29 31.7058 28.6839 32.4689 28.1213 33.0315C27.5587 33.5941 26.7956 33.9102 26 33.9102Z" fill="white"/>
<path d="M17 18.9102H15V20.9102H17V18.9102Z" fill="white"/>
<path d="M21 18.9102H19V20.9102H21V18.9102Z" fill="white"/>
<path d="M17 22.9102H15V24.9102H17V22.9102Z" fill="white"/>
<path d="M21 22.9102H19V24.9102H21V22.9102Z" fill="white"/>
<path d="M17 26.9102H15V28.9102H17V26.9102Z" fill="white"/>
<path d="M22 26.9102H19V28.9102H22V26.9102Z" fill="white"/>
<path d="M25 18.9102H23V20.9102H25V18.9102Z" fill="white"/>
<path d="M25 22.9102H23V24.9102H25V22.9102Z" fill="white"/>
<path d="M25 25.9102H23V28.9102H25V25.9102Z" fill="white"/>
<path d="M24 16.9102H16C15.7348 16.9102 15.4804 16.8048 15.2929 16.6173C15.1054 16.4297 15 16.1754 15 15.9102V11.9102C15 11.6449 15.1054 11.3906 15.2929 11.203C15.4804 11.0155 15.7348 10.9102 16 10.9102H24C24.2652 10.9102 24.5196 11.0155 24.7071 11.203C24.8946 11.3906 25 11.6449 25 11.9102V15.9102C25 16.1754 24.8946 16.4297 24.7071 16.6173C24.5196 16.8048 24.2652 16.9102 24 16.9102ZM17 14.9102H23V12.9102H17V14.9102Z" fill="white"/>
<path d="M12 27.9102C12.5523 27.9102 13 27.4624 13 26.9102C13 26.3579 12.5523 25.9102 12 25.9102C11.4477 25.9102 11 26.3579 11 26.9102C11 27.4624 11.4477 27.9102 12 27.9102Z" fill="white"/>
<defs>
<linearGradient id="paint0_linear_1455_3598" x1="20" y1="0.410156" x2="20" y2="40.4102" gradientUnits="userSpaceOnUse">
<stop stop-color="#043D69"/>
<stop offset="1" stop-color="#5D0440"/>
</linearGradient>
</defs>
</svg>
