<svg width="45" height="45" viewBox="0 0 45 45" fill="none" xmlns="http://www.w3.org/2000/svg">
<rect width="45" height="45" rx="5" fill="#BD00FF" fillOpacity="0.1"/>
<path d="M32.2476 14.291H12.7518C11.3378 14.291 10.1865 15.4423 10.1865 16.8563V28.1434C10.1865 29.5573 11.3378 30.7086 12.7518 30.7086H32.2476C33.6615 30.7086 34.8128 29.5573 34.8128 28.1434V16.8563C34.8129 15.4423 33.6616 14.291 32.2476 14.291ZM33.7868 28.1433C33.7868 28.9919 33.0962 29.6825 32.2476 29.6825H12.7518C11.9032 29.6825 11.2126 28.9919 11.2126 28.1433V16.8563C11.2126 16.0077 11.9032 15.3171 12.7518 15.3171H32.2476C33.0962 15.3171 33.7867 16.0077 33.7867 16.8563V28.1433H33.7868Z" fill="#BD00FF"/>
<path d="M34.2998 17.3701H10.6996C10.4164 17.3701 10.1865 17.6 10.1865 17.8832V20.9615C10.1865 21.2447 10.4164 21.4745 10.6996 21.4745H34.2999C34.5831 21.4745 34.8129 21.2447 34.8129 20.9615V17.8832C34.8129 17.6 34.583 17.3701 34.2998 17.3701ZM33.7868 20.4484H11.2126V18.3962H33.7867V20.4484H33.7868Z" fill="#BD00FF"/>
<path d="M19.9353 24.5508H13.7787C13.4955 24.5508 13.2656 24.7806 13.2656 25.0638C13.2656 25.3471 13.4955 25.5769 13.7787 25.5769H19.9353C20.2185 25.5769 20.4483 25.347 20.4483 25.0638C20.4483 24.7806 20.2185 24.5508 19.9353 24.5508Z" fill="#BD00FF"/>
<path d="M19.9353 26.6045H13.7787C13.4955 26.6045 13.2656 26.8344 13.2656 27.1176C13.2656 27.4008 13.4955 27.6306 13.7787 27.6306H19.9353C20.2185 27.6306 20.4483 27.4008 20.4483 27.1176C20.4483 26.8344 20.2185 26.6045 19.9353 26.6045Z" fill="#BD00FF"/>
<path d="M30.1951 23.5254H29.169C28.3204 23.5254 27.6299 24.2159 27.6299 25.0645V26.0906C27.6299 26.9392 28.3204 27.6298 29.169 27.6298H30.1951C31.0437 27.6298 31.7343 26.9392 31.7343 26.0906V25.0645C31.7343 24.216 31.0437 23.5254 30.1951 23.5254ZM30.7082 26.0907C30.7082 26.3739 30.4783 26.6037 30.1951 26.6037H29.169C28.8858 26.6037 28.656 26.3739 28.656 26.0907V25.0646C28.656 24.7814 28.8858 24.5515 29.169 24.5515H30.1951C30.4783 24.5515 30.7082 24.7814 30.7082 25.0646V26.0907Z" fill="#BD00FF"/>
</svg>
