<svg width="73" height="57" viewBox="0 0 73 57" fill="none" xmlns="http://www.w3.org/2000/svg">
<path d="M68.5936 0.279541H9.10663C6.67303 0.279541 4.7002 2.25237 4.7002 4.68598V37.8812C4.7002 40.3148 6.67303 42.2876 9.10663 42.2876H68.5936C71.0272 42.2876 73 40.3148 73 37.8812V4.68598C73 2.25237 71.0272 0.279541 68.5936 0.279541Z" fill="url(#paint0_linear_65_1230)"/>
<path d="M73 7.91748H4.7002V17.3179H73V7.91748Z" fill="white"/>
<path d="M73.0002 7.91748H68.5938V17.3179H73.0002V7.91748Z" fill="white"/>
<path d="M63.8934 14.3801H4.40644C1.97283 14.3801 0 16.353 0 18.7866V51.9817C0 54.4153 1.97283 56.3882 4.40644 56.3882H63.8934C66.327 56.3882 68.2998 54.4153 68.2998 51.9817V18.7866C68.2998 16.353 66.327 14.3801 63.8934 14.3801Z" fill="url(#paint1_linear_65_1230)"/>
<path d="M59.7804 20.9897H43.4766C42.6654 20.9897 42.0078 21.6474 42.0078 22.4586V24.2211C42.0078 25.0323 42.6654 25.6899 43.4766 25.6899H59.7804C60.5917 25.6899 61.2493 25.0323 61.2493 24.2211V22.4586C61.2493 21.6474 60.5917 20.9897 59.7804 20.9897Z" fill="white"/>
<path d="M59.7805 20.9897H55.374C55.7636 20.9897 56.1372 21.1445 56.4126 21.42C56.6881 21.6954 56.8428 22.069 56.8428 22.4586V24.2211C56.8428 24.6107 56.6881 24.9843 56.4126 25.2597C56.1372 25.5352 55.7636 25.6899 55.374 25.6899H59.7805C60.17 25.6899 60.5436 25.5352 60.8191 25.2597C61.0945 24.9843 61.2493 24.6107 61.2493 24.2211V22.4586C61.2493 22.069 61.0945 21.6954 60.8191 21.42C60.5436 21.1445 60.17 20.9897 59.7805 20.9897Z" fill="#E1E1E3"/>
<path d="M15.8637 20.9897H8.51959C7.70839 20.9897 7.05078 21.6474 7.05078 22.4586V27.0119C7.05078 27.8231 7.70839 28.4807 8.51959 28.4807H15.8637C16.6749 28.4807 17.3325 27.8231 17.3325 27.0119V22.4586C17.3325 21.6474 16.6749 20.9897 15.8637 20.9897Z" fill="#F8BE32"/>
<path d="M15.8635 20.9897H12.7246C13.1142 20.9897 13.4878 21.1445 13.7632 21.42C14.0387 21.6954 14.1934 22.069 14.1934 22.4586V27.0119C14.1934 27.4014 14.0387 27.775 13.7632 28.0505C13.4878 28.3259 13.1142 28.4807 12.7246 28.4807H15.8635C16.253 28.4807 16.6266 28.3259 16.9021 28.0505C17.1775 27.775 17.3323 27.4014 17.3323 27.0119V22.4586C17.3323 22.069 17.1775 21.6954 16.9021 21.42C16.6266 21.1445 16.253 20.9897 15.8635 20.9897Z" fill="#FED030"/>
<path d="M30.049 46.4737H7.0518C6.75964 46.4737 6.47944 46.3577 6.27285 46.1511C6.06626 45.9445 5.9502 45.6643 5.9502 45.3721C5.9502 45.08 6.06626 44.7998 6.27285 44.5932C6.47944 44.3866 6.75964 44.2705 7.0518 44.2705H30.049C30.3412 44.2705 30.6214 44.3866 30.828 44.5932C31.0346 44.7998 31.1506 45.08 31.1506 45.3721C31.1506 45.6643 31.0346 45.9445 30.828 46.1511C30.6214 46.3577 30.3412 46.4737 30.049 46.4737ZM19.6821 50.8802H7.10174C6.80958 50.8802 6.52938 50.7641 6.32279 50.5575C6.1162 50.3509 6.00013 50.0707 6.00013 49.7786C6.00013 49.4864 6.1162 49.2062 6.32279 48.9996C6.52938 48.793 6.80958 48.6769 7.10174 48.6769H19.6821C19.9743 48.6769 20.2545 48.793 20.4611 48.9996C20.6677 49.2062 20.7837 49.4864 20.7837 49.7786C20.7837 50.0707 20.6677 50.3509 20.4611 50.5575C20.2545 50.7641 19.9743 50.8802 19.6821 50.8802Z" fill="white"/>
<path d="M57.9445 51.1006C59.7697 51.1006 61.2493 49.621 61.2493 47.7958C61.2493 45.9706 59.7697 44.491 57.9445 44.491C56.1193 44.491 54.6396 45.9706 54.6396 47.7958C54.6396 49.621 56.1193 51.1006 57.9445 51.1006Z" fill="#F9A242"/>
<path d="M57.9444 44.491C57.5691 44.491 57.1965 44.5551 56.8428 44.6804C57.4868 44.9084 58.0443 45.3304 58.4386 45.8883C58.8329 46.4462 59.0447 47.1126 59.0447 47.7958C59.0447 48.479 58.8329 49.1454 58.4386 49.7033C58.0443 50.2612 57.4868 50.6831 56.8428 50.9111C57.2966 51.0718 57.78 51.1314 58.2593 51.0857C58.7385 51.04 59.202 50.8902 59.6173 50.6467C60.0326 50.4032 60.3896 50.0719 60.6635 49.676C60.9374 49.2801 61.1215 48.8292 61.2029 48.3547C61.2844 47.8802 61.2611 47.3937 61.1349 46.9291C61.0086 46.4645 60.7824 46.0332 60.472 45.6652C60.1617 45.2972 59.7746 45.0014 59.338 44.7986C58.9014 44.5958 58.4258 44.4908 57.9444 44.491Z" fill="#F69531"/>
<path d="M53.5382 51.1006C55.3634 51.1006 56.8431 49.621 56.8431 47.7958C56.8431 45.9706 55.3634 44.491 53.5382 44.491C51.713 44.491 50.2334 45.9706 50.2334 47.7958C50.2334 49.621 51.713 51.1006 53.5382 51.1006Z" fill="#F8BE32"/>
<path d="M53.5381 44.491C53.1628 44.491 52.7903 44.5551 52.4365 44.6804C53.0805 44.9084 53.6381 45.3304 54.0324 45.8883C54.4267 46.4462 54.6384 47.1126 54.6384 47.7958C54.6384 48.479 54.4267 49.1454 54.0324 49.7033C53.6381 50.2612 53.0805 50.6831 52.4365 50.9111C52.8903 51.0718 53.3738 51.1314 53.853 51.0857C54.3323 51.04 54.7957 50.8902 55.211 50.6467C55.6263 50.4032 55.9834 50.0719 56.2573 49.676C56.5312 49.2801 56.7153 48.8292 56.7967 48.3547C56.8781 47.8802 56.8549 47.3937 56.7286 46.9291C56.6024 46.4645 56.3762 46.0332 56.0658 45.6652C55.7554 45.2972 55.3684 45.0014 54.9318 44.7986C54.4952 44.5958 54.0195 44.4908 53.5381 44.491Z" fill="#FED030"/>
<path d="M16.6489 38.836H7.10161C6.80944 38.836 6.52925 38.72 6.32265 38.5134C6.11606 38.3068 6 38.0266 6 37.7344C6 37.4423 6.11606 37.1621 6.32265 36.9555C6.52925 36.7489 6.80944 36.6328 7.10161 36.6328H16.6489C16.9411 36.6328 17.2213 36.7489 17.4278 36.9555C17.6344 37.1621 17.7505 37.4423 17.7505 37.7344C17.7505 38.0266 17.6344 38.3068 17.4278 38.5134C17.2213 38.72 16.9411 38.836 16.6489 38.836ZM31.5147 38.836H21.9675C21.6753 38.836 21.3951 38.72 21.1885 38.5134C20.9819 38.3068 20.8659 38.0266 20.8659 37.7344C20.8659 37.4423 20.9819 37.1621 21.1885 36.9555C21.3951 36.7489 21.6753 36.6328 21.9675 36.6328H31.5147C31.8069 36.6328 32.0871 36.7489 32.2937 36.9555C32.5003 37.1621 32.6164 37.4423 32.6164 37.7344C32.6164 38.0266 32.5003 38.3068 32.2937 38.5134C32.0871 38.72 31.8069 38.836 31.5147 38.836ZM46.3821 38.836H36.8348C36.5426 38.836 36.2624 38.72 36.0558 38.5134C35.8492 38.3068 35.7332 38.0266 35.7332 37.7344C35.7332 37.4423 35.8492 37.1621 36.0558 36.9555C36.2624 36.7489 36.5426 36.6328 36.8348 36.6328H46.3821C46.6742 36.6328 46.9544 36.7489 47.161 36.9555C47.3676 37.1621 47.4837 37.4423 47.4837 37.7344C47.4837 38.0266 47.3676 38.3068 47.161 38.5134C46.9544 38.72 46.6742 38.836 46.3821 38.836ZM61.2494 38.836H51.7021C51.4099 38.836 51.1297 38.72 50.9232 38.5134C50.7166 38.3068 50.6005 38.0266 50.6005 37.7344C50.6005 37.4423 50.7166 37.1621 50.9232 36.9555C51.1297 36.7489 51.4099 36.6328 51.7021 36.6328H61.2494C61.5416 36.6328 61.8218 36.7489 62.0284 36.9555C62.2349 37.1621 62.351 37.4423 62.351 37.7344C62.351 38.0266 62.2349 38.3068 62.0284 38.5134C61.8218 38.72 61.5416 38.836 61.2494 38.836Z" fill="white"/>
<defs>
<linearGradient id="paint0_linear_65_1230" x1="4.7002" y1="0.279541" x2="73" y2="42.2876" gradientUnits="userSpaceOnUse">
<stop stopColor="#043D69"/>
<stop offset="1" stopColor="#5D0440"/>
</linearGradient>
<linearGradient id="paint1_linear_65_1230" x1="0" y1="14.3801" x2="68.2998" y2="56.3882" gradientUnits="userSpaceOnUse">
<stop stopColor="#063A4F"/>
<stop offset="1" stopColor="#5D0440"/>
</linearGradient>
</defs>
</svg>
