<svg width="91" height="90" viewBox="0 0 91 90" fill="none" xmlns="http://www.w3.org/2000/svg">
<path d="M65.6676 34.4192L44.6145 55.4723L39.3694 60.7175L34.1061 55.4723L25.334 46.7002L30.5972 41.4369L39.3694 50.209L60.4043 29.1741L65.6676 34.4192Z" fill="#009A07"/>
<path d="M17.0137 46.7544H2.36337C1.36859 46.7544 0.554688 45.9405 0.554688 44.9458C0.554688 43.951 1.36859 43.1371 2.36337 43.1371H17.0137C18.0085 43.1371 18.8224 43.951 18.8224 44.9458C18.8224 45.9405 18.0085 46.7544 17.0137 46.7544Z" fill="#009A07"/>
<path d="M88.6387 46.7544H73.9884C72.9936 46.7544 72.1797 45.9405 72.1797 44.9458C72.1797 43.951 72.9936 43.1371 73.9884 43.1371H88.6387C89.6335 43.1371 90.4474 43.951 90.4474 44.9458C90.4474 45.9405 89.6335 46.7544 88.6387 46.7544Z" fill="#009A07"/>
<path d="M45.5001 18.2677C44.5053 18.2677 43.6914 17.4538 43.6914 16.459V1.80868C43.6914 0.813907 44.5053 0 45.5001 0C46.4949 0 47.3088 0.813907 47.3088 1.80868V16.459C47.3088 17.4538 46.4949 18.2677 45.5001 18.2677Z" fill="#009A07"/>
<path d="M45.5001 90C44.5053 90 43.6914 89.1861 43.6914 88.1913V73.4325C43.6914 72.4377 44.5053 71.6238 45.5001 71.6238C46.4949 71.6238 47.3088 72.4377 47.3088 73.4325V88.1913C47.3088 89.1861 46.4949 90 45.5001 90Z" fill="#009A07"/>
<path d="M76.1027 77.1583C75.6325 77.1583 75.1803 76.9775 74.8186 76.6338L64.4548 66.2701C63.7494 65.5647 63.7494 64.4252 64.4548 63.7198C65.1602 63.0144 66.2997 63.0144 67.0051 63.7198L77.3688 74.0836C78.0742 74.789 78.0742 75.9284 77.3688 76.6338C77.0252 76.9775 76.573 77.1583 76.1027 77.1583Z" fill="#009A07"/>
<path d="M14.2273 76.4892C13.757 76.4892 13.3048 76.3083 12.9431 75.9647C12.2377 75.2593 12.2377 74.1198 12.9431 73.4144L23.3249 63.0326C24.0303 62.3272 25.1698 62.3272 25.8752 63.0326C26.5806 63.738 26.5806 64.8774 25.8752 65.5828L15.5114 75.9647C15.1497 76.3083 14.6975 76.4892 14.2273 76.4892Z" fill="#009A07"/>
<path d="M64.8523 25.8461C64.382 25.8461 63.9298 25.6652 63.5681 25.3215C62.8627 24.6162 62.8627 23.4767 63.5681 22.7713L73.9319 12.4256C74.6372 11.7203 75.7767 11.7203 76.4821 12.4256C77.1875 13.131 77.1875 14.2705 76.4821 14.9759L66.1364 25.3215C65.7747 25.6652 65.3225 25.8461 64.8523 25.8461Z" fill="#009A07"/>
<path d="M25.3151 26.6418C24.8449 26.6418 24.3927 26.461 24.0309 26.1173L13.6853 15.7717C12.9799 15.0663 12.9799 13.9268 13.6853 13.2214C14.3907 12.516 15.5301 12.516 16.2355 13.2214L26.5812 23.5671C27.2866 24.2725 27.2866 25.4119 26.5812 26.1173C26.2375 26.461 25.7854 26.6418 25.3151 26.6418Z" fill="#009A07"/>
<path d="M34.738 20.3658C34.0146 20.3658 33.3453 19.9317 33.056 19.2263L30.3248 12.3714C29.9631 11.449 30.4153 10.4 31.3377 10.0202C32.2601 9.65841 33.3092 10.1106 33.689 11.033L36.4201 17.8879C36.7818 18.8103 36.3297 19.8594 35.4072 20.2392C35.1902 20.3296 34.9551 20.3658 34.738 20.3658ZM18.9844 36.3184C18.7674 36.3184 18.5503 36.2822 18.3514 36.2099L12.238 33.9128C11.2975 33.5692 10.8273 32.5202 11.189 31.5796C11.5326 30.6391 12.5817 30.1689 13.5222 30.5306L19.6355 32.8276C20.5761 33.1713 21.0463 34.2203 20.6846 35.1608C20.4133 35.8662 19.7079 36.3184 18.9844 36.3184ZM12.8711 60.7537C12.2561 60.7537 11.6412 60.4281 11.3156 59.8493C10.8092 58.9812 11.0986 57.8779 11.9667 57.3714L18.0801 53.8083C18.9482 53.3019 20.0515 53.5913 20.558 54.4595C21.0644 55.3276 20.775 56.4309 19.9068 56.9373L13.7935 60.5005C13.5041 60.6813 13.1785 60.7537 12.8711 60.7537ZM30.8494 79.2022C30.6142 79.2022 30.3972 79.166 30.1621 79.0756C29.2396 78.6958 28.7875 77.6468 29.1673 76.7243L31.8622 70.1407C32.2421 69.2183 33.2911 68.7661 34.2135 69.146C35.1359 69.5258 35.5881 70.5748 35.2083 71.4972L32.5134 78.0808C32.242 78.7862 31.5548 79.2022 30.8494 79.2022ZM60.3128 79.2022C59.6074 79.2022 58.9563 78.7862 58.6488 78.117L55.7911 71.5334C55.3932 70.611 55.8092 69.5439 56.7316 69.146C57.654 68.748 58.7211 69.164 59.1191 70.0865L61.9768 76.6701C62.3747 77.5925 61.9587 78.6596 61.0363 79.0575C60.8011 79.148 60.5479 79.2022 60.3128 79.2022ZM77.8751 59.7227C77.64 59.7227 77.3867 59.6685 77.1516 59.578L71.2915 57.0459C70.3691 56.648 69.9531 55.5808 70.351 54.6765C70.7489 53.7541 71.816 53.3381 72.7203 53.736L78.5805 56.2681C79.5029 56.666 79.9189 57.7332 79.521 58.6375C79.2316 59.3067 78.5805 59.7227 77.8751 59.7227ZM71.5266 35.1789C70.8393 35.1789 70.1701 34.781 69.8626 34.0937C69.4647 33.1713 69.8807 32.1042 70.7851 31.7062L77.1335 28.9028C78.056 28.5049 79.1231 28.9209 79.521 29.8252C79.9189 30.7476 79.5029 31.8148 78.5986 32.2127L72.2501 35.0161C72.015 35.1247 71.7798 35.1789 71.5266 35.1789ZM56.9667 20.6733C56.8039 20.6733 56.6231 20.6552 56.4603 20.6009C55.5017 20.3116 54.9591 19.3168 55.2304 18.3582L57.3465 11.1958C57.6359 10.2372 58.6307 9.69459 59.5893 9.96589C60.5479 10.2553 61.0905 11.2501 60.8192 12.2087L58.7031 19.371C58.4679 20.1669 57.7445 20.6733 56.9667 20.6733Z" fill="#009A07"/>
<path d="M69.6996 0.50647C69.6996 0.50647 69.6996 6.0953 64.1289 6.0953C64.1289 6.0953 69.6996 6.0953 69.6996 11.6841C69.6996 11.6841 69.6996 6.0953 75.2885 6.0953C75.2885 6.0953 69.6996 6.0953 69.6996 0.50647ZM66.1546 8.62745C66.1546 8.62745 66.1546 10.6532 64.1289 10.6532C64.1289 10.6532 66.1546 10.6532 66.1546 12.6789C66.1546 12.6789 66.1546 10.6532 68.1803 10.6532C68.1803 10.6532 66.1546 10.6532 66.1546 8.62745ZM20.1237 62.1644C20.1237 62.1644 20.1237 65.3115 16.9766 65.3115C16.9766 65.3115 20.1237 65.3115 20.1237 68.4586C20.1237 68.4586 20.1237 65.3115 23.2708 65.3115C23.2889 65.3115 20.1237 65.3115 20.1237 62.1644Z" fill="#FCC047"/>
</svg>
