<svg width="20" height="20" viewBox="0 0 20 20" fill="none" xmlns="http://www.w3.org/2000/svg">
<path d="M18.9171 1.19823C18.4715 0.752608 17.7568 0.752608 17.3112 1.19823L10.114 8.39548L2.91671 1.19823C2.47109 0.752608 1.7564 0.752608 1.31078 1.19823C0.865156 1.64386 0.865156 2.35854 1.31078 2.80416L8.50803 10.0014L1.31078 17.1987C0.865156 17.6443 0.865156 18.359 1.31078 18.8046C1.52939 19.0232 1.82367 19.1409 2.10954 19.1409C2.39541 19.1409 2.68969 19.0316 2.9083 18.8046L10.1056 11.6073L17.3028 18.8046C17.5214 19.0232 17.8157 19.1409 18.1016 19.1409C18.3958 19.1409 18.6817 19.0316 18.9003 18.8046C19.346 18.359 19.346 17.6443 18.9003 17.1987L11.7199 10.0014L18.9171 2.80416C19.3628 2.35854 19.3628 1.64386 18.9171 1.19823Z" fill="black" fillOpacity="0.8"/>
</svg>
