<svg width="41" height="41" viewBox="0 0 41 41" fill="none" xmlns="http://www.w3.org/2000/svg">
<rect x="0.5" y="0.410156" width="40" height="40" rx="5" fill="#FF00C7" fill-opacity="0.1"/>
<path d="M30.7592 11.7715H10.2412C8.75314 11.7715 7.5415 12.9831 7.5415 14.4713V26.3501C7.5415 27.8382 8.75314 29.0498 10.2412 29.0498H30.7592C32.2472 29.0498 33.4589 27.8382 33.4589 26.3501V14.4713C33.4589 12.9831 32.2473 11.7715 30.7592 11.7715ZM32.3791 26.35C32.3791 27.2431 31.6523 27.9699 30.7592 27.9699H10.2412C9.34813 27.9699 8.62138 27.2431 8.62138 26.35V14.4713C8.62138 13.5782 9.34813 12.8514 10.2412 12.8514H30.7592C31.6523 12.8514 32.379 13.5782 32.379 14.4713V26.35H32.3791Z" fill="#FF00C7"/>
<path d="M32.919 15.0107H8.08147C7.78342 15.0107 7.5415 15.2527 7.5415 15.5507V18.7904C7.5415 19.0884 7.78342 19.3303 8.08147 19.3303H32.919C33.2171 19.3303 33.459 19.0884 33.459 18.7904V15.5507C33.4589 15.2527 33.217 15.0107 32.919 15.0107ZM32.3791 18.2504H8.62138V16.0906H32.379V18.2504H32.3791Z" fill="#FF00C7"/>
<path d="M17.8006 22.5693H11.3212C11.0232 22.5693 10.7812 22.8113 10.7812 23.1093C10.7812 23.4074 11.0232 23.6492 11.3212 23.6492H17.8006C18.0986 23.6492 18.3405 23.4073 18.3405 23.1092C18.3405 22.8112 18.0986 22.5693 17.8006 22.5693Z" fill="#FF00C7"/>
<path d="M17.8006 24.7305H11.3212C11.0232 24.7305 10.7812 24.9724 10.7812 25.2704C10.7812 25.5685 11.0232 25.8104 11.3212 25.8104H17.8006C18.0986 25.8104 18.3405 25.5685 18.3405 25.2704C18.3405 24.9724 18.0986 24.7305 17.8006 24.7305Z" fill="#FF00C7"/>
<path d="M28.5991 21.4902H27.5193C26.6262 21.4902 25.8994 22.217 25.8994 23.1101V24.1899C25.8994 25.083 26.6262 25.8098 27.5193 25.8098H28.5991C29.4922 25.8098 30.219 25.083 30.219 24.1899V23.1101C30.219 22.217 29.4922 21.4902 28.5991 21.4902ZM29.1391 24.19C29.1391 24.4881 28.8972 24.73 28.5991 24.73H27.5193C27.2212 24.73 26.9793 24.4881 26.9793 24.19V23.1101C26.9793 22.8121 27.2212 22.5702 27.5193 22.5702H28.5991C28.8972 22.5702 29.1391 22.8121 29.1391 23.1101V24.19Z" fill="#FF00C7"/>
</svg>
