<svg width="18" height="18" viewBox="0 0 18 18" fill="none" xmlns="http://www.w3.org/2000/svg">
<path d="M16.1985 0.550781H6.8568C6.19102 0.550781 5.64941 1.09242 5.64941 1.75817V4.59198C5.90604 4.59198 10.9424 4.59198 11.1435 4.59198C12.417 4.59198 13.453 5.62806 13.453 6.90157C13.453 7.13997 13.453 12.2467 13.453 12.3073H16.1985C16.8642 12.3073 17.4059 11.7657 17.4059 11.0999V1.75817C17.4058 1.09242 16.8642 0.550781 16.1985 0.550781Z" fill="url(#paint0_linear_505_2048)"/>
<path d="M11.1428 5.69434H1.80117C1.13543 5.69434 0.59375 6.23598 0.59375 6.90176V16.2434C0.593787 16.9092 1.13539 17.4508 1.80117 17.4508H11.1428C11.8086 17.4508 12.3503 16.9092 12.3503 16.2435V6.90176C12.3503 6.23598 11.8086 5.69434 11.1428 5.69434Z" fill="url(#paint1_linear_505_2048)"/>
<defs>
<linearGradient id="paint0_linear_505_2048" x1="11.5276" y1="0.550781" x2="11.5276" y2="12.3073" gradientUnits="userSpaceOnUse">
<stop stopColor="#043D69"/>
<stop offset="1" stopColor="#5D0440"/>
</linearGradient>
<linearGradient id="paint1_linear_505_2048" x1="6.47201" y1="5.69434" x2="6.47201" y2="17.4508" gradientUnits="userSpaceOnUse">
<stop stopColor="#043D69"/>
<stop offset="1" stopColor="#5D0440"/>
</linearGradient>
</defs>
</svg>
