<svg width="30" height="32" viewBox="0 0 30 32" fill="none" xmlns="http://www.w3.org/2000/svg">
<path d="M11.5255 29.7536H10.0196V27.7697C10.0196 27.3417 9.6725 26.9945 9.24443 26.9945C8.81635 26.9945 8.46921 27.3417 8.46921 27.7697V29.7536H4.89053V29.0958C4.89053 25.5567 7.76959 22.6774 11.3084 22.6774H11.3946C11.7456 24.3342 13.2196 25.5815 14.9797 25.5815C16.7396 25.5815 18.2131 24.3342 18.5641 22.6774H18.6925C22.2312 22.6774 25.1103 25.5567 25.1103 29.0958V29.7536H21.5315V27.7697C21.5315 27.3417 21.1844 26.9945 20.7563 26.9945C20.3283 26.9945 19.9811 27.3417 19.9811 27.7697V29.7536H18.4753C18.0472 29.7536 17.7001 30.1007 17.7001 30.5288C17.7001 30.9569 18.0472 31.304 18.4753 31.304H25.8854C26.3135 31.304 26.6606 30.9569 26.6606 30.5288V29.0958C26.6606 25.1624 23.796 21.8859 20.0437 21.2421C21.3389 20.439 22.4299 19.3368 23.2192 18.0323C23.3613 18.2094 23.5792 18.3232 23.8239 18.3232H24.1753C26.9626 18.3232 29.2302 16.0555 29.2302 13.2682C29.2302 11.5386 28.3566 10.0097 27.0279 9.09798C26.241 6.64513 24.6833 4.44547 22.6193 2.88163C20.4118 1.20896 17.7773 0.324829 15.0004 0.324829C12.2235 0.324829 9.58893 1.20896 7.38144 2.88163C5.31744 4.44554 3.75965 6.64513 2.97281 9.09806C1.64409 10.0098 0.770508 11.5387 0.770508 13.2684C0.770508 16.0557 3.03808 18.3232 5.82535 18.3232H6.17676C6.42149 18.3232 6.6394 18.2095 6.7815 18.0324C7.57074 19.3369 8.66185 20.439 9.957 21.2421C6.20467 21.8859 3.34002 25.1624 3.34002 29.0959V30.5289C3.34002 30.9569 3.68716 31.3041 4.11524 31.3041H11.5254C11.9535 31.3041 12.3006 30.9569 12.3006 30.5289C12.3006 30.1008 11.9536 29.7536 11.5255 29.7536ZM14.9797 24.031C13.9987 24.031 13.1719 23.3597 12.9341 22.4526C13.6 22.5992 14.2912 22.6772 15.0004 22.6772C15.6936 22.6772 16.3698 22.6026 17.0217 22.4624C16.7807 23.3645 15.9567 24.031 14.9797 24.031ZM24.5992 16.7472V9.78931C26.3324 9.99916 27.6798 11.4794 27.6798 13.2683C27.6798 15.0573 26.3324 16.5374 24.5992 16.7472ZM8.31774 4.11732C10.2536 2.65046 12.5644 1.87518 15.0004 1.87518C17.4363 1.87518 19.7472 2.65046 21.683 4.11732C23.1263 5.21091 24.2857 6.65893 25.0471 8.29013C24.7637 8.24067 24.4728 8.21338 24.1754 8.21338H23.824C23.6503 8.21338 23.4904 8.27122 23.3612 8.36781C21.712 5.45224 18.5825 3.47963 15.0005 3.47963C11.4184 3.47963 8.2889 5.45224 6.63971 8.36781C6.51049 8.27129 6.35064 8.21338 6.17691 8.21338H5.82551C5.52814 8.21338 5.2372 8.24067 4.95378 8.29013C5.71504 6.65901 6.87445 5.21091 8.31774 4.11732ZM22.698 10.7271C19.2179 10.9646 16.6604 10.3015 15.0931 9.67807C13.2792 8.95666 12.3609 8.13144 12.3542 8.12532C12.1761 7.96043 11.9311 7.88842 11.6918 7.93097C11.4528 7.97353 11.2476 8.12555 11.1372 8.34176C11.1225 8.3706 9.74793 11.0037 7.12694 11.4075C7.89827 7.7688 11.1353 5.03005 15.0004 5.03005C18.6205 5.03005 21.6897 7.43267 22.698 10.7271ZM5.40162 16.7472C3.6684 16.5374 2.32101 15.0572 2.32101 13.2682C2.32101 11.4793 3.6684 9.99916 5.40162 9.78931V16.7472ZM6.95205 13.0785C6.95205 13.0485 6.95282 13.0186 6.95321 12.9887C9.58381 12.7732 11.2656 10.9142 12.0336 9.82582C13.4894 10.8172 17.1113 12.7166 23.0074 12.2594C23.0347 12.5288 23.0488 12.802 23.0488 13.0785C23.0488 13.8194 22.9476 14.537 22.7593 15.2189C22.7475 15.2253 22.7355 15.2311 22.7239 15.2381C21.8281 15.7839 19.9665 16.682 17.1944 16.8789C16.9933 15.7998 16.0452 14.9801 14.9087 14.9801C13.6263 14.9801 12.583 16.0234 12.583 17.3058C12.583 18.5881 13.6263 19.6314 14.9087 19.6314C15.7761 19.6314 16.5337 19.1536 16.9334 18.4478C18.9214 18.352 20.5248 17.9345 21.7608 17.4408C20.3258 19.6571 17.8315 21.1268 15.0004 21.1268C10.5625 21.1268 6.95205 17.5163 6.95205 13.0785ZM15.6839 17.3058C15.6839 17.7332 15.3361 18.081 14.9087 18.081C14.4812 18.081 14.1335 17.7332 14.1335 17.3058C14.1335 16.8783 14.4812 16.5306 14.9087 16.5306C15.3361 16.5306 15.6839 16.8784 15.6839 17.3058Z" fill="#009A07"/>
</svg>
