<svg width="21" height="21" viewBox="0 0 21 21" fill="none" xmlns="http://www.w3.org/2000/svg">
<path d="M9.492 0.961914H5.753C2.678 0.961914 0.75 3.13891 0.75 6.22091V14.5349C0.75 17.6169 2.669 19.7939 5.753 19.7939H14.577C17.662 19.7939 19.581 17.6169 19.581 14.5349V10.5069" stroke="white" stroke-width="1.5" stroke-linecap="round" stroke-linejoin="round"/>
<path fill-rule="evenodd" clip-rule="evenodd" d="M6.82666 9.09335L14.2997 1.62035C15.2307 0.690352 16.7397 0.690352 17.6707 1.62035L18.8877 2.83735C19.8187 3.76835 19.8187 5.27835 18.8877 6.20835L11.3787 13.7174C10.9717 14.1244 10.4197 14.3534 9.84366 14.3534H6.09766L6.19166 10.5734C6.20566 10.0174 6.43266 9.48735 6.82666 9.09335Z" stroke="white" stroke-width="1.5" stroke-linecap="round" stroke-linejoin="round"/>
<path d="M13.1641 2.77539L17.7301 7.34139" stroke="white" stroke-width="1.5" stroke-linecap="round" stroke-linejoin="round"/>
</svg>
