<svg width="20" height="26" viewBox="0 0 20 26" fill="none" xmlns="http://www.w3.org/2000/svg">
<path d="M18.7522 25.4221H3.0022C1.55495 25.4221 0.377197 24.2444 0.377197 22.7971V3.54712C0.377197 2.09987 1.55495 0.922119 3.0022 0.922119H17.0022C18.4494 0.922119 19.6272 2.09987 19.6272 3.54712V19.2971C19.6272 20.7444 18.4494 21.9221 17.0022 21.9221H3.0022C2.52095 21.9221 2.1272 22.3159 2.1272 22.7971C2.1272 23.2784 2.52095 23.6721 3.0022 23.6721H18.7522C18.9843 23.6721 19.2068 23.7643 19.3709 23.9284C19.535 24.0925 19.6272 24.3151 19.6272 24.5471C19.6272 24.7792 19.535 25.0017 19.3709 25.1658C19.2068 25.3299 18.9843 25.4221 18.7522 25.4221ZM3.0022 2.67212C2.52095 2.67212 2.1272 3.06587 2.1272 3.54712V20.3226C2.40803 20.2225 2.70404 20.1715 3.0022 20.1721H17.0022C17.4834 20.1721 17.8772 19.7784 17.8772 19.2971V3.54712C17.8772 3.06587 17.4834 2.67212 17.0022 2.67212H3.0022Z" fill="white"/>
<path d="M15.2523 9.67224H4.75226C4.52019 9.67224 4.29763 9.58005 4.13354 9.41596C3.96945 9.25187 3.87726 9.02931 3.87726 8.79724V5.29724C3.87726 5.06518 3.96945 4.84262 4.13354 4.67852C4.29763 4.51443 4.52019 4.42224 4.75226 4.42224H15.2523C15.4843 4.42224 15.7069 4.51443 15.871 4.67852C16.0351 4.84262 16.1273 5.06518 16.1273 5.29724V8.79724C16.1273 9.02931 16.0351 9.25187 15.871 9.41596C15.7069 9.58005 15.4843 9.67224 15.2523 9.67224ZM5.62726 7.92224H14.3773V6.17224H5.62726V7.92224Z" fill="white"/>
</svg>
