<svg width="25" height="25" viewBox="0 0 25 25" fill="none" xmlns="http://www.w3.org/2000/svg">
<path d="M12.0022 3.04318C11.8643 3.04318 11.7522 2.93104 11.7522 2.79318V0.836182C11.7522 0.698324 11.8643 0.586182 12.0022 0.586182C12.1401 0.586182 12.2522 0.698324 12.2522 0.836182V2.79318C12.2522 2.93104 12.1401 3.04318 12.0022 3.04318Z" stroke="white"/>
<path d="M18.3979 5.69278L18.3967 5.69157C18.299 5.59383 18.299 5.43541 18.3967 5.33767L19.7807 3.95367C19.8785 3.85594 20.0369 3.85594 20.1346 3.95367C20.2324 4.05141 20.2324 4.20983 20.1346 4.30757L18.7518 5.69036C18.7517 5.69052 18.7515 5.69067 18.7514 5.69082C18.7005 5.74107 18.6364 5.76512 18.5732 5.76512C18.5079 5.76512 18.4456 5.74076 18.3979 5.69278Z" stroke="white"/>
<path d="M23.2522 12.3362H21.2952C21.1573 12.3362 21.0452 12.224 21.0452 12.0862C21.0452 11.9483 21.1573 11.8362 21.2952 11.8362H23.2522C23.39 11.8362 23.5022 11.9483 23.5022 12.0862C23.5022 12.224 23.39 12.3362 23.2522 12.3362Z" stroke="white"/>
<path d="M19.7819 20.2188L19.7807 20.2176L18.3967 18.8336L18.0486 19.1817L18.3967 18.8336C18.299 18.7358 18.299 18.5774 18.3967 18.4797C18.4945 18.3819 18.6529 18.3819 18.7506 18.4797L19.1042 18.1261L18.7506 18.4797L20.1346 19.8637C20.2324 19.9614 20.2324 20.1198 20.1346 20.2176C20.0853 20.2669 20.0222 20.2911 19.9572 20.2911C19.8919 20.2911 19.8296 20.2668 19.7819 20.2188Z" stroke="white"/>
<path d="M3.87193 20.2188L3.87073 20.2176C3.77299 20.1198 3.77299 19.9614 3.87073 19.8637L5.25473 18.4797C5.35247 18.3819 5.51088 18.3819 5.60862 18.4797C5.70636 18.5774 5.70636 18.7358 5.60862 18.8336L5.96217 19.1871L5.60862 18.8336L4.22462 20.2176C4.17527 20.2669 4.11215 20.2911 4.04717 20.2911C3.98188 20.2911 3.91959 20.2668 3.87193 20.2188Z" stroke="white"/>
<path d="M2.7092 12.3362H0.752197C0.61434 12.3362 0.502197 12.224 0.502197 12.0862C0.502197 11.9483 0.61434 11.8362 0.752197 11.8362H2.7092C2.84706 11.8362 2.9592 11.9483 2.9592 12.0862C2.9592 12.224 2.84706 12.3362 2.7092 12.3362Z" stroke="white"/>
<path d="M5.25593 5.69278L5.25473 5.69157L3.87073 4.30757C3.77299 4.20983 3.77299 4.05141 3.87073 3.95367C3.96847 3.85594 4.12688 3.85594 4.22462 3.95367L5.60862 5.33767C5.70597 5.43502 5.70636 5.59256 5.6098 5.69038C5.55693 5.74192 5.49314 5.76512 5.43117 5.76512C5.36588 5.76512 5.30359 5.74076 5.25593 5.69278Z" stroke="white"/>
<path d="M10.6038 5.73573L10.6038 5.73572C8.15002 6.245 6.15169 8.25159 5.64184 10.7074C5.12078 13.2391 6.06831 15.7435 8.09264 17.2765C8.68181 17.7164 9.10881 18.3568 9.32487 19.0862H14.6658C14.8982 18.3582 15.3727 17.7025 16.0227 17.1934C17.594 15.947 18.5022 14.091 18.5022 12.0862C18.5022 10.1167 17.63 8.27941 16.0973 7.0345L10.6038 5.73573ZM10.6038 5.73573L10.6065 5.73516M10.6038 5.73573L10.6065 5.73516M10.6065 5.73516C12.5702 5.31636 14.5757 5.80061 16.0972 7.03444L10.6065 5.73516Z" stroke="white"/>
<path d="M9.498 20.0862H14.5023C14.5022 20.0961 14.5022 20.1061 14.5022 20.1162V22.3362C14.5022 23.02 13.936 23.5862 13.2522 23.5862H10.7522C10.4567 23.5862 10.1497 23.4733 9.91706 23.239C9.68978 23.01 9.50219 22.6327 9.50219 22.0462V20.2762C9.50219 20.2134 9.50087 20.15 9.498 20.0862Z" stroke="white"/>
<path d="M15.7522 12.0862C15.6143 12.0862 15.5022 11.974 15.5022 11.8362C15.5022 10.043 14.0453 8.58618 12.2522 8.58618C12.1143 8.58618 12.0022 8.47404 12.0022 8.33618C12.0022 8.19832 12.1143 8.08618 12.2522 8.08618C14.3191 8.08618 16.0022 9.76932 16.0022 11.8362C16.0022 11.974 15.8901 12.0862 15.7522 12.0862Z" fill="white" stroke="white"/>
</svg>
