<svg width="12" height="11" viewBox="0 0 12 11" fill="none" xmlns="http://www.w3.org/2000/svg">
<path d="M5.86184 2.74291C7.33263 2.74291 8.52632 3.93659 8.52632 5.40738C8.52632 5.75376 8.45704 6.07883 8.33447 6.38258L9.89053 7.93863C10.6952 7.26718 11.3293 6.39856 11.7184 5.40738C10.7964 3.06797 8.52099 1.41067 5.85651 1.41067C5.11046 1.41067 4.39638 1.54389 3.73559 1.7837L4.88664 2.93475C5.19039 2.81218 5.51546 2.74291 5.86184 2.74291ZM0.532895 1.2881L1.74789 2.5031L1.99303 2.74824C1.10842 3.43567 0.415658 4.35225 0 5.40738C0.921908 7.74679 3.19737 9.40409 5.86184 9.40409C6.68783 9.40409 7.47651 9.24422 8.19592 8.95646L8.41974 9.18027L9.98112 10.7363L10.6579 10.0596L1.20967 0.611328L0.532895 1.2881ZM3.4798 4.23501L4.30579 5.061C4.27914 5.17291 4.26316 5.29014 4.26316 5.40738C4.26316 6.29199 4.97724 7.00606 5.86184 7.00606C5.97908 7.00606 6.09632 6.99008 6.20822 6.96343L7.03421 7.78942C6.67717 7.96527 6.28283 8.07185 5.86184 8.07185C4.39105 8.07185 3.19737 6.87817 3.19737 5.40738C3.19737 4.98639 3.30395 4.59205 3.4798 4.23501ZM5.77658 3.81935L7.4552 5.49797L7.46586 5.41271C7.46586 4.5281 6.75178 3.81403 5.86717 3.81403L5.77658 3.81935Z" fill="black" fill-opacity="0.6"/>
</svg>
