<svg width="22" height="22" viewBox="0 0 22 22" fill="none" xmlns="http://www.w3.org/2000/svg">
<path d="M7.85039 11.4861V15.2311" stroke="white" strokeWidth="1.5" strokeLinecap="round" strokeLinejoin="round"/>
<path d="M9.76116 13.3589H5.94003" stroke="white" strokeWidth="1.5" strokeLinecap="round" strokeLinejoin="round"/>
<path d="M14.3683 11.6002H14.2612" stroke="white" strokeWidth="1.5" strokeLinecap="round" strokeLinejoin="round"/>
<path d="M16.1818 15.1747H16.0747" stroke="white" strokeWidth="1.5" strokeLinecap="round" strokeLinejoin="round"/>
<path d="M7.07431 1.17212C7.07431 1.9126 7.68679 2.51288 8.44233 2.51288H9.49881C10.6644 2.51704 11.6086 3.44238 11.6139 4.58478V5.25983" stroke="white" strokeWidth="1.5" strokeLinecap="round" strokeLinejoin="round"/>
<path fillRule="evenodd" clipRule="evenodd" d="M15.4305 21.1347C12.4253 21.1856 9.47517 21.1836 6.57488 21.1347C3.35564 21.1347 1.00214 18.8385 1.00214 15.6834V11.0339C1.00214 7.87876 3.35564 5.58253 6.57488 5.58253C9.49106 5.53268 12.4433 5.53372 15.4305 5.58253C18.6497 5.58253 21.0021 7.87979 21.0021 11.0339V15.6834C21.0021 18.8385 18.6497 21.1347 15.4305 21.1347Z" stroke="white" strokeWidth="1.5" strokeLinecap="round" strokeLinejoin="round"/>
</svg>
