<svg width="22" height="21" viewBox="0 0 22 21" fill="none" xmlns="http://www.w3.org/2000/svg">
<path d="M19.414 4.92816H14.48C14.6473 4.81189 14.8079 4.68937 14.9532 4.55343C16.2465 3.34431 16.0471 1.914 15.3147 1.09599C15.3021 1.08168 15.2885 1.06827 15.2744 1.05515C14.86 0.674467 14.3335 0.4646 13.7914 0.4646C13.3096 0.4646 12.584 0.630943 11.8634 1.42212C11.5463 1.77031 11.2851 2.18259 11.0792 2.64823C10.8736 2.18259 10.6121 1.77031 10.295 1.42212C9.57472 0.630943 8.8488 0.4646 8.36701 0.4646C7.82493 0.4646 7.29814 0.674467 6.884 1.05515C6.86988 1.06827 6.85635 1.08198 6.84341 1.09629C6.11161 1.914 5.91248 3.34461 7.20519 4.55343C7.35079 4.68937 7.51138 4.81189 7.67845 4.92816H2.44555C1.54109 4.92816 0.805176 5.67402 0.805176 6.5907V10.9258C0.805176 11.824 1.51197 12.5564 2.39143 12.5853V20.1179C2.39143 20.447 2.65497 20.7141 2.97969 20.7141H8.50526H13.1005H18.6257C18.9505 20.7141 19.214 20.447 19.214 20.1179V12.5883H19.4143C20.3188 12.5883 21.0547 11.8425 21.0547 10.9258V6.5907C21.0544 5.67402 20.3185 4.92816 19.414 4.92816ZM12.7284 2.23088C13.0699 1.85527 13.4378 1.65703 13.7917 1.65703C14.032 1.65703 14.2694 1.75004 14.4629 1.91936C14.8035 2.31912 14.8976 2.9836 14.1558 3.677C13.4837 4.30511 12.5655 4.56327 11.7613 4.65718C11.8539 3.84245 12.1081 2.91206 12.7284 2.23088ZM7.69639 1.91936C7.88993 1.75004 8.1273 1.65703 8.3676 1.65703C8.72144 1.65703 9.08911 1.85527 9.43089 2.23088C10.0509 2.91176 10.3053 3.84245 10.398 4.65747C9.59384 4.56327 8.67556 4.30541 8.00376 3.6773C7.26225 2.9836 7.35579 2.31942 7.69639 1.91936ZM3.56766 12.5883H7.9167V19.5217H3.56766V12.5883ZM9.09323 19.5217V12.5883H12.5119V19.5217H9.09323ZM18.0372 19.5217H13.6884V12.5883H18.0372V19.5217ZM19.8779 10.9258C19.8779 11.1851 19.6696 11.3959 19.414 11.3959H18.6255H13.1002H8.50496H2.9794H2.44555C2.18965 11.3959 1.9817 11.1851 1.9817 10.9258V6.5907C1.9817 6.33135 2.18995 6.12058 2.44555 6.12058H19.414C19.6699 6.12058 19.8779 6.33135 19.8779 6.5907V10.9258Z" fill="black" fillOpacity="0.7"/>
</svg>
