<svg width="29" height="35" viewBox="0 0 29 35" fill="none" xmlns="http://www.w3.org/2000/svg">
<path d="M20.8147 0.914917C19.0188 1.03913 16.9197 2.18867 15.6965 3.68559C14.5807 5.04356 13.6627 7.06051 14.0206 9.02061C15.9829 9.08167 18.0103 7.90476 19.1851 6.38258C20.2841 4.96566 21.1158 2.96134 20.8147 0.914917Z" fill="white"/>
<path d="M27.9119 12.2166C26.1876 10.0544 23.7643 8.79956 21.4758 8.79956C18.4546 8.79956 17.1766 10.246 15.0775 10.246C12.9132 10.246 11.2689 8.80377 8.65614 8.80377C6.08968 8.80377 3.35691 10.3723 1.62418 13.0545C-0.811737 16.8316 -0.394873 23.933 3.55271 29.9817C4.96541 32.1461 6.85183 34.5799 9.31933 34.6009C11.5152 34.622 12.1342 33.1924 15.1091 33.1777C18.084 33.1609 18.6482 34.6199 20.8399 34.5967C23.3096 34.5778 25.2991 31.8808 26.7118 29.7165C27.7245 28.1648 28.1014 27.3837 28.8867 25.632C23.1748 23.4572 22.259 15.3346 27.9119 12.2166Z" fill="white"/>
</svg>
