<svg width="35" height="36" viewBox="0 0 35 36" fill="none" xmlns="http://www.w3.org/2000/svg">
<rect y="0.821289" width="35" height="35" rx="5" fill="url(#paint0_linear_980_2644)" fill-opacity="0.05"/>
<path fill-rule="evenodd" clip-rule="evenodd" d="M7.5 9.78467C7.5 9.23239 7.94772 8.78467 8.5 8.78467H13.9V10.7847H9.5V15.1847H7.5V9.78467ZM25.5 10.7847H21.1V8.78467H26.5C27.0523 8.78467 27.5 9.23239 27.5 9.78467V15.1847H25.5V10.7847ZM9.5 26.7847V22.3847H7.5V27.7847C7.5 28.337 7.94772 28.7847 8.5 28.7847H13.9V26.7847H9.5ZM25.5 26.7847V22.3847H27.5V27.7847C27.5 28.337 27.0523 28.7847 26.5 28.7847H21.1V26.7847H25.5ZM27.5 19.7847H7.5V17.7847H27.5V19.7847Z" fill="url(#paint1_linear_980_2644)"/>
<defs>
<linearGradient id="paint0_linear_980_2644" x1="0" y1="0.821289" x2="35" y2="35.8213" gradientUnits="userSpaceOnUse">
<stop stop-color="#043D69"/>
<stop offset="1" stop-color="#5D0440"/>
</linearGradient>
<linearGradient id="paint1_linear_980_2644" x1="17.5" y1="8.78467" x2="17.5" y2="28.7847" gradientUnits="userSpaceOnUse">
<stop stop-color="#043D69"/>
<stop offset="1" stop-color="#5D0440"/>
</linearGradient>
</defs>
</svg>
