<svg width="380" height="409" viewBox="0 0 380 409" fill="none" xmlns="http://www.w3.org/2000/svg">
<path d="M0.5 5.61718C0.5 2.85576 2.73858 0.617188 5.5 0.617188H374.498C377.259 0.617188 379.498 2.85576 379.498 5.61719V403.617C379.498 406.379 377.259 408.617 374.498 408.617H360.842C359.659 408.617 358.514 408.198 357.611 407.433L346.773 398.256C344.803 396.588 341.888 396.693 340.044 398.499L333.207 405.192C331.263 407.095 328.155 407.095 326.211 405.192L320.238 399.345C318.064 397.216 314.51 397.506 312.71 399.959L309.764 403.971C307.964 406.424 304.409 406.714 302.235 404.585L296.971 399.432C294.767 397.274 291.154 397.607 289.381 400.131L286.918 403.639C285.108 406.217 281.394 406.499 279.215 404.223L274.637 399.442C272.544 397.256 269.005 397.416 267.117 399.781L263.633 404.148C261.745 406.514 258.206 406.674 256.113 404.488L251.065 399.217C249.05 397.111 245.668 397.17 243.726 399.343L239.234 404.369C237.222 406.62 233.689 406.589 231.718 404.301L227.759 399.708C225.765 397.393 222.179 397.393 220.184 399.708L216.226 404.301C214.255 406.589 210.722 406.62 208.71 404.369L204.413 399.561C202.401 397.31 198.868 397.342 196.897 399.629L193.01 404.139C190.991 406.482 187.35 406.448 185.375 404.068L181.817 399.78C179.865 397.428 176.278 397.362 174.242 399.641L169.763 404.653C167.842 406.802 164.508 406.887 162.48 404.838L156.935 399.234C154.857 397.133 151.42 397.284 149.533 399.557L145.482 404.44C143.615 406.689 140.225 406.864 138.136 404.819L132.101 398.91C130.088 396.94 126.846 397.02 124.933 399.087L119.781 404.653C117.802 406.791 114.421 406.791 112.442 404.653L107.531 399.347C105.529 397.184 102.098 397.214 100.134 399.412L95.9314 404.114C93.8419 406.452 90.1409 406.312 88.234 403.823L85.3881 400.107C83.4812 397.618 79.7802 397.478 77.6907 399.816L73.8498 404.114C71.7603 406.452 68.0592 406.312 66.1524 403.823L63.688 400.606C61.6609 397.959 57.6609 398 55.6883 400.687L54.2936 402.587C52.1853 405.459 47.8352 405.267 45.9878 402.221L45.593 401.57C43.7682 398.561 39.4885 398.328 37.3485 401.122L35.7516 403.207C33.6977 405.888 29.6313 405.804 27.6904 403.039L26.9025 401.918C24.7693 398.88 20.1863 399.143 18.4159 402.406L16.4649 406.002C15.5904 407.613 13.9039 408.617 12.0702 408.617H5.5C2.73857 408.617 0.5 406.379 0.5 403.617V5.61718Z" fill="#F9F9F9"/>
</svg>
