<svg width="35" height="36" viewBox="0 0 35 36" fill="none" xmlns="http://www.w3.org/2000/svg">
<rect y="0.821289" width="35" height="35" rx="5" fill="url(#paint0_linear_980_2638)" fill-opacity="0.05"/>
<path d="M25.2625 19.2851H22.9732V16.8855H25.2625C25.6064 16.8855 25.8853 16.5817 25.8853 16.2065C25.8853 15.8312 25.6064 15.5272 25.2625 15.5272H22.9732V12.1977C22.9732 11.7117 22.8852 11.3549 22.7116 11.1376C22.5466 10.9309 22.3297 10.8347 22.0293 10.8347C21.7427 10.8347 21.5339 10.9302 21.3721 11.1357C21.2006 11.3532 21.1135 11.7106 21.1135 12.1979V15.5276H16.8074L14.9764 12.5059C14.8197 12.2362 14.6724 11.9836 14.5293 11.7411C14.4005 11.5227 14.2749 11.3449 14.1562 11.2122C14.0511 11.0946 13.9314 11.0037 13.7914 10.9337C13.6592 10.868 13.4913 10.8349 13.2925 10.8349C13.039 10.8349 12.8089 10.9107 12.5886 11.0663C12.3706 11.2202 12.2199 11.4105 12.1278 11.6481C12.047 11.8738 12.0043 12.2198 12.0043 12.6664V15.5274H9.7378C9.39389 15.5274 9.11523 15.8314 9.11523 16.2067C9.11523 16.5819 9.39389 16.8857 9.73783 16.8857H12.0043V19.2855H9.73783C9.39389 19.2855 9.11523 19.5894 9.11523 19.9648C9.11523 20.3399 9.39389 20.6436 9.73783 20.6436H12.0043V24.4451C12.0043 24.9167 12.0952 25.2698 12.2752 25.4942C12.4463 25.7082 12.6633 25.8075 12.958 25.8075C13.2424 25.8075 13.4577 25.7077 13.6363 25.4934C13.8191 25.2738 13.9116 24.9209 13.9116 24.4451V20.6436H17.8082L19.9168 24.1701C20.0634 24.4032 20.2148 24.6385 20.3658 24.8693C20.502 25.0764 20.6506 25.259 20.8074 25.4114C20.9487 25.5494 21.1 25.6504 21.2574 25.7121C21.4194 25.7757 21.6088 25.8079 21.8189 25.8079C22.3891 25.8079 22.9732 25.6175 22.9732 24.2055V20.6436H25.2624C25.6064 20.6436 25.8852 20.3395 25.8852 19.9643C25.8853 19.5892 25.6064 19.2851 25.2625 19.2851ZM21.1135 16.8855V19.2851H19.0845L17.6307 16.8855H21.1135ZM13.9116 14.1283L14.7483 15.5272H13.9116V14.1283ZM13.9116 19.2851V16.8855H15.5608L16.9958 19.2851H13.9116ZM21.1135 22.6343L19.9076 20.6436H21.1135V22.6343Z" stroke="url(#paint1_linear_980_2638)"/>
<defs>
<linearGradient id="paint0_linear_980_2638" x1="0" y1="0.821289" x2="35" y2="35.8213" gradientUnits="userSpaceOnUse">
<stop stop-color="#043D69"/>
<stop offset="1" stop-color="#5D0440"/>
</linearGradient>
<linearGradient id="paint1_linear_980_2638" x1="17.5002" y1="10.8347" x2="17.5002" y2="25.8079" gradientUnits="userSpaceOnUse">
<stop stop-color="#043D69"/>
<stop offset="1" stop-color="#5D0440"/>
</linearGradient>
</defs>
</svg>
