<svg width="19" height="20" viewBox="0 0 19 20" fill="none" xmlns="http://www.w3.org/2000/svg">
<path d="M9.25 0.908203C4.14935 0.908203 0 5.05755 0 10.1582C0 15.2589 4.14935 19.4082 9.25 19.4082C14.3507 19.4082 18.5 15.2589 18.5 10.1582C18.5 5.05755 14.3507 0.908203 9.25 0.908203Z" fill="url(#paint0_linear_446_1930)"/>
<path d="M13.2972 10.929H10.0211V14.2051C10.0211 14.6307 9.67583 14.9759 9.25028 14.9759C8.82473 14.9759 8.47949 14.6307 8.47949 14.2051V10.929H5.2034C4.77785 10.929 4.43262 10.5838 4.43262 10.1582C4.43262 9.73269 4.77785 9.38745 5.2034 9.38745H8.47949V6.11136C8.47949 5.68581 8.82473 5.34058 9.25028 5.34058C9.67583 5.34058 10.0211 5.68581 10.0211 6.11136V9.38745H13.2972C13.7227 9.38745 14.0679 9.73269 14.0679 10.1582C14.0679 10.5838 13.7227 10.929 13.2972 10.929Z" fill="#FAFAFA"/>
<defs>
<linearGradient id="paint0_linear_446_1930" x1="9.25" y1="0.908203" x2="9.25" y2="19.4082" gradientUnits="userSpaceOnUse">
<stop stopColor="#043D69"/>
<stop offset="1" stopColor="#5D0440"/>
</linearGradient>
</defs>
</svg>
