<svg width="23" height="23" viewBox="0 0 23 23" fill="none" xmlns="http://www.w3.org/2000/svg">
<path d="M11.3499 0.686279C9.28904 0.686279 7.2745 1.29738 5.56099 2.44231C3.84749 3.58724 2.51197 5.21457 1.72333 7.11852C0.93469 9.02246 0.728346 11.1175 1.13039 13.1387C1.53244 15.16 2.52482 17.0166 3.98203 18.4738C5.43925 19.931 7.29586 20.9234 9.31708 21.3254C11.3383 21.7275 13.4333 21.5211 15.3373 20.7325C17.2412 19.9438 18.8686 18.6083 20.0135 16.8948C21.1584 15.1813 21.7695 13.1668 21.7695 11.106C21.7664 8.34344 20.6676 5.69498 18.7142 3.74158C16.7608 1.78819 14.1124 0.689406 11.3499 0.686279V0.686279ZM11.3499 17.5181C11.1121 17.5181 10.8797 17.4476 10.682 17.3155C10.4843 17.1834 10.3302 16.9956 10.2392 16.7759C10.1482 16.5562 10.1244 16.3145 10.1707 16.0813C10.2171 15.8481 10.3316 15.6338 10.4998 15.4657C10.6679 15.2976 10.8821 15.183 11.1154 15.1367C11.3486 15.0903 11.5903 15.1141 11.81 15.2051C12.0297 15.2961 12.2175 15.4502 12.3496 15.6479C12.4817 15.8456 12.5522 16.078 12.5522 16.3158C12.5522 16.6347 12.4255 16.9405 12.2 17.166C11.9746 17.3914 11.6688 17.5181 11.3499 17.5181ZM12.1514 12.6197V12.7095C12.1514 12.922 12.0669 13.1259 11.9166 13.2762C11.7663 13.4265 11.5624 13.511 11.3499 13.511C11.1373 13.511 10.9334 13.4265 10.7831 13.2762C10.6328 13.1259 10.5483 12.922 10.5483 12.7095V11.908C10.5484 11.6954 10.6328 11.4915 10.7831 11.3412C10.9334 11.1909 11.1373 11.1065 11.3499 11.1064C11.7462 11.1064 12.1336 10.9889 12.4631 10.7687C12.7926 10.5486 13.0495 10.2356 13.2011 9.86948C13.3528 9.50333 13.3925 9.10044 13.3151 8.71174C13.2378 8.32305 13.047 7.96601 12.7668 7.68577C12.4865 7.40554 12.1295 7.21469 11.7408 7.13738C11.3521 7.06006 10.9492 7.09974 10.583 7.2514C10.2169 7.40307 9.90395 7.6599 9.68378 7.98942C9.4636 8.31894 9.34608 8.70635 9.34608 9.10266C9.34608 9.31523 9.26163 9.5191 9.11132 9.66941C8.96101 9.81973 8.75714 9.90417 8.54456 9.90417C8.33199 9.90417 8.12812 9.81973 7.97781 9.66941C7.8275 9.5191 7.74305 9.31523 7.74305 9.10266C7.74314 8.4237 7.93486 7.75856 8.29618 7.18372C8.65749 6.60889 9.17372 6.14771 9.78549 5.85323C10.3973 5.55875 11.0797 5.44292 11.7544 5.51907C12.4291 5.59522 13.0685 5.86026 13.5993 6.2837C14.13 6.70713 14.5305 7.27178 14.7546 7.91269C14.9786 8.5536 15.0173 9.24474 14.866 9.90664C14.7148 10.5685 14.3798 11.1743 13.8995 11.6542C13.4193 12.1342 12.8134 12.4689 12.1514 12.6197Z" stroke="black" stroke-opacity="0.7"/>
</svg>
