<svg width="20" height="21" viewBox="0 0 20 21" fill="none" xmlns="http://www.w3.org/2000/svg">
<path d="M10.358 0.871094C8.45359 0.871094 6.59192 1.43583 5.00843 2.49388C3.42495 3.55193 2.19077 5.05578 1.46197 6.81525C0.733176 8.57473 0.542489 10.5108 0.914027 12.3786C1.28557 14.2465 2.20264 15.9622 3.54928 17.3089C4.89593 18.6555 6.61166 19.5726 8.47951 19.9441C10.3474 20.3157 12.2834 20.125 14.0429 19.3962C15.8024 18.6674 17.3062 17.4332 18.3643 15.8497C19.4223 14.2662 19.9871 12.4046 19.9871 10.5001C19.9842 7.94723 18.9688 5.49973 17.1636 3.69456C15.3584 1.88939 12.9109 0.873983 10.358 0.871094ZM10.3581 16.4257C10.1383 16.4257 9.92353 16.3605 9.74082 16.2385C9.55811 16.1164 9.41571 15.9429 9.33162 15.7398C9.24752 15.5368 9.22552 15.3134 9.26839 15.0979C9.31126 14.8824 9.41708 14.6844 9.57246 14.529C9.72784 14.3737 9.92581 14.2678 10.1413 14.225C10.3569 14.1821 10.5802 14.2041 10.7833 14.2882C10.9863 14.3723 11.1598 14.5147 11.2819 14.6974C11.404 14.8801 11.4691 15.0949 11.4691 15.3147C11.4691 15.6093 11.3521 15.8919 11.1437 16.1003C10.9353 16.3087 10.6528 16.4257 10.3581 16.4257ZM11.0987 11.899V11.982C11.0987 12.1784 11.0207 12.3668 10.8818 12.5057C10.7429 12.6446 10.5545 12.7227 10.358 12.7227C10.1616 12.7227 9.9732 12.6446 9.83429 12.5057C9.69538 12.3668 9.61734 12.1784 9.61734 11.982V11.2413C9.61736 11.0448 9.6954 10.8564 9.8343 10.7175C9.97321 10.5786 10.1616 10.5006 10.358 10.5006C10.7243 10.5006 11.0823 10.392 11.3868 10.1885C11.6913 9.98503 11.9287 9.69583 12.0688 9.35747C12.209 9.0191 12.2456 8.64678 12.1742 8.28758C12.1027 7.92838 11.9264 7.59843 11.6674 7.33946C11.4084 7.08049 11.0785 6.90413 10.7193 6.83268C10.3601 6.76123 9.98777 6.7979 9.64941 6.93805C9.31105 7.07821 9.02185 7.31555 8.81838 7.62007C8.61491 7.92458 8.5063 8.2826 8.5063 8.64884C8.5063 8.84528 8.42827 9.03368 8.28936 9.17259C8.15045 9.31149 7.96205 9.38953 7.76561 9.38953C7.56917 9.38953 7.38077 9.31149 7.24186 9.17259C7.10295 9.03368 7.02492 8.84528 7.02492 8.64884C7.025 8.0214 7.20217 7.40673 7.53607 6.87551C7.86997 6.34429 8.34702 5.91811 8.91237 5.64597C9.47772 5.37384 10.1084 5.2668 10.7319 5.33717C11.3554 5.40754 11.9463 5.65247 12.4368 6.04378C12.9272 6.43508 13.2973 6.95688 13.5044 7.54916C13.7115 8.14143 13.7472 8.78014 13.6074 9.39181C13.4676 10.0035 13.158 10.5633 12.7142 11.0068C12.2705 11.4503 11.7105 11.7596 11.0987 11.899Z" fill="black" fillOpacity="0.8"/>
</svg>
