<svg width="24" height="22" viewBox="0 0 24 22" fill="none" xmlns="http://www.w3.org/2000/svg">
<path d="M8.53018 20.5894C9.08246 20.5894 9.53018 20.1416 9.53018 19.5894V14.5305C9.53018 13.9782 9.97789 13.5305 10.5302 13.5305H13.3302C13.8825 13.5305 14.3302 13.9782 14.3302 14.5305V19.5894C14.3302 20.1416 14.7779 20.5894 15.3302 20.5894H19.3302C19.8825 20.5894 20.3302 20.1416 20.3302 19.5894V12.1653C20.3302 11.6198 20.7724 11.1776 21.3179 11.1776V11.1776C22.2279 11.1776 22.6537 10.0513 21.9714 9.44925L12.5918 1.17314C12.2138 0.83959 11.6466 0.83959 11.2686 1.17314L1.88897 9.44925C1.20661 10.0513 1.63246 11.1776 2.54246 11.1776V11.1776C3.08796 11.1776 3.53018 11.6198 3.53018 12.1653V19.5894C3.53018 20.1416 3.97789 20.5894 4.53018 20.5894H8.53018Z" stroke="black" strokeWidth="1.5"/>
</svg>
