<svg width="40" height="41" viewBox="0 0 40 41" fill="none" xmlns="http://www.w3.org/2000/svg">
<rect y="0.181152" width="40" height="40" rx="5" fill="#009A07"/>
<path d="M22.3525 10.6812C26.0535 11.0922 28.9775 14.0122 29.3925 17.7132" stroke="white" strokeWidth="1.5" strokeLinecap="round" strokeLinejoin="round"/>
<path d="M22.3525 14.2241C24.1235 14.5681 25.5075 15.9531 25.8525 17.7241" stroke="white" strokeWidth="1.5" strokeLinecap="round" strokeLinejoin="round"/>
<path fillRule="evenodd" clipRule="evenodd" d="M19.0315 20.6535C23.0205 24.6415 23.9254 20.0279 26.4653 22.566C28.9138 25.0139 30.3222 25.5044 27.2188 28.6059C26.8302 28.9182 24.3613 32.6754 15.6845 24.0008C7.00659 15.3252 10.7616 12.8536 11.0739 12.4651C14.1838 9.355 14.6668 10.7705 17.1154 13.2185C19.6541 15.7576 15.0425 16.6656 19.0315 20.6535Z" stroke="white" strokeWidth="1.5" strokeLinecap="round" strokeLinejoin="round"/>
</svg>
