<svg width="21" height="17" viewBox="0 0 21 17" fill="none" xmlns="http://www.w3.org/2000/svg">
<path d="M0.00213623 1.25806C0.00213623 0.99284 0.107493 0.738486 0.295029 0.55095C0.482566 0.363414 0.73692 0.258057 1.00214 0.258057H19.0021C19.2674 0.258057 19.5217 0.363414 19.7092 0.55095C19.8968 0.738486 20.0021 0.99284 20.0021 1.25806C20.0021 1.52327 19.8968 1.77763 19.7092 1.96516C19.5217 2.1527 19.2674 2.25806 19.0021 2.25806H1.00214C0.73692 2.25806 0.482566 2.1527 0.295029 1.96516C0.107493 1.77763 0.00213623 1.52327 0.00213623 1.25806ZM19.0021 6.25806H1.00214C0.73692 6.25806 0.482566 6.36341 0.295029 6.55095C0.107493 6.73849 0.00213623 6.99284 0.00213623 7.25806C0.00213623 7.52327 0.107493 7.77763 0.295029 7.96516C0.482566 8.1527 0.73692 8.25806 1.00214 8.25806H19.0021C19.2674 8.25806 19.5217 8.1527 19.7092 7.96516C19.8968 7.77763 20.0021 7.52327 20.0021 7.25806C20.0021 6.99284 19.8968 6.73849 19.7092 6.55095C19.5217 6.36341 19.2674 6.25806 19.0021 6.25806ZM11.0021 12.2581H1.00214C0.73692 12.2581 0.482566 12.3634 0.295029 12.5509C0.107493 12.7385 0.00213623 12.9928 0.00213623 13.2581C0.00213623 13.5233 0.107493 13.7776 0.295029 13.9652C0.482566 14.1527 0.73692 14.2581 1.00214 14.2581H11.0021C11.2674 14.2581 11.5217 14.1527 11.7092 13.9652C11.8968 13.7776 12.0021 13.5233 12.0021 13.2581C12.0021 12.9928 11.8968 12.7385 11.7092 12.5509C11.5217 12.3634 11.2674 12.2581 11.0021 12.2581ZM19.0021 12.2581H18.0021V11.2581C18.0021 10.9928 17.8968 10.7385 17.7092 10.551C17.5217 10.3634 17.2674 10.2581 17.0021 10.2581C16.7369 10.2581 16.4826 10.3634 16.295 10.551C16.1075 10.7385 16.0021 10.9928 16.0021 11.2581V12.2581H15.0021C14.7369 12.2581 14.4826 12.3634 14.295 12.5509C14.1075 12.7385 14.0021 12.9928 14.0021 13.2581C14.0021 13.5233 14.1075 13.7776 14.295 13.9652C14.4826 14.1527 14.7369 14.2581 15.0021 14.2581H16.0021V15.2581C16.0021 15.5233 16.1075 15.7776 16.295 15.9652C16.4826 16.1527 16.7369 16.2581 17.0021 16.2581C17.2674 16.2581 17.5217 16.1527 17.7092 15.9652C17.8968 15.7776 18.0021 15.5233 18.0021 15.2581V14.2581H19.0021C19.2674 14.2581 19.5217 14.1527 19.7092 13.9652C19.8968 13.7776 20.0021 13.5233 20.0021 13.2581C20.0021 12.9928 19.8968 12.7385 19.7092 12.5509C19.5217 12.3634 19.2674 12.2581 19.0021 12.2581Z" fill="white"/>
</svg>
