<svg width="41" height="41" viewBox="0 0 41 41" fill="none" xmlns="http://www.w3.org/2000/svg">
<rect x="0.5" y="0.410156" width="40" height="40" rx="5" fill="#FF6B00" fill-opacity="0.1"/>
<path fill-rule="evenodd" clip-rule="evenodd" d="M10.5 11.4102C10.5 10.8579 10.9477 10.4102 11.5 10.4102H16.9V12.4102H12.5V16.8102H10.5V11.4102ZM28.5 12.4102H24.1V10.4102H29.5C30.0523 10.4102 30.5 10.8579 30.5 11.4102V16.8102H28.5V12.4102ZM12.5 28.4102V24.0102H10.5V29.4102C10.5 29.9625 10.9477 30.4102 11.5 30.4102H16.9V28.4102H12.5ZM28.5 28.4102V24.0102H30.5V29.4102C30.5 29.9625 30.0523 30.4102 29.5 30.4102H24.1V28.4102H28.5ZM30.5 21.4102H10.5V19.4102H30.5V21.4102Z" fill="#FF6B00"/>
</svg>
