<svg width="28" height="34" viewBox="0 0 28 34" fill="none" xmlns="http://www.w3.org/2000/svg">
<path d="M20.7509 24.6797C20.5936 24.6797 20.4427 24.7422 20.3315 24.8535C20.2202 24.9647 20.1577 25.1156 20.1577 25.2729V29.7933C20.1577 30.2653 19.9702 30.718 19.6365 31.0517C19.3027 31.3855 18.85 31.573 18.378 31.573H3.84405C3.37205 31.573 2.91938 31.3855 2.58563 31.0517C2.25188 30.718 2.06438 30.2653 2.06438 29.7933V28.0136H18.2238C18.3811 28.0136 18.532 27.9511 18.6433 27.8399C18.7545 27.7286 18.817 27.5778 18.817 27.4204C18.817 27.2631 18.7545 27.1122 18.6433 27.0009C18.532 26.8897 18.3811 26.8272 18.2238 26.8272H2.06438V3.69146C2.06438 3.21946 2.25188 2.7668 2.58563 2.43304C2.91938 2.09929 3.37205 1.91179 3.84405 1.91179H18.378C18.85 1.91179 19.3027 2.09929 19.6365 2.43304C19.9702 2.7668 20.1577 3.21946 20.1577 3.69146V6.56267C20.1577 6.72 20.2202 6.87089 20.3315 6.98214C20.4427 7.09339 20.5936 7.15589 20.7509 7.15589C20.9073 7.15285 21.0564 7.08938 21.167 6.97878C21.2776 6.86818 21.3411 6.71905 21.3442 6.56267V3.69146C21.341 2.90576 21.0275 2.15313 20.4719 1.59755C19.9164 1.04197 19.1637 0.728466 18.378 0.725342H3.84405C3.05739 0.725342 2.30294 1.03784 1.74669 1.5941C1.19043 2.15035 0.87793 2.9048 0.87793 3.69146V29.7933C0.87793 30.58 1.19043 31.3344 1.74669 31.8907C2.30294 32.4469 3.05739 32.7594 3.84405 32.7594H18.378C19.1637 32.7563 19.9164 32.4428 20.4719 31.8872C21.0275 31.3316 21.341 30.579 21.3442 29.7933V25.2729C21.3442 25.1156 21.2817 24.9647 21.1704 24.8535C21.0592 24.7422 20.9083 24.6797 20.7509 24.6797Z" fill="#5D0440" stroke="#5D0440" strokeWidth="0.5"/>
<path d="M9.99001 29.7933C9.98054 30.0156 10.0378 30.2358 10.1545 30.4253C10.2711 30.6148 10.4418 30.7651 10.6446 30.8569C10.8473 30.9486 11.0729 30.9776 11.2923 30.94C11.5117 30.9025 11.7148 30.8002 11.8755 30.6463C12.0363 30.4924 12.1473 30.2939 12.1943 30.0764C12.2414 29.8588 12.2222 29.6322 12.1394 29.4256C12.0566 29.2191 11.9138 29.042 11.7295 28.9172C11.5452 28.7925 11.3278 28.7257 11.1053 28.7255C10.8175 28.7252 10.5408 28.8362 10.333 29.0352C10.1251 29.2342 10.0023 29.5058 9.99001 29.7933ZM11.1053 29.8645C11.0864 29.8645 11.0683 29.857 11.0549 29.8436C11.0416 29.8303 11.0341 29.8122 11.0341 29.7933H11.1053V29.8645ZM9.81204 3.43042C9.65471 3.43042 9.50382 3.49292 9.39257 3.60417C9.28132 3.71542 9.21882 3.86631 9.21882 4.02364C9.21882 4.18098 9.28132 4.33187 9.39257 4.44312C9.50382 4.55437 9.65471 4.61687 9.81204 4.61687H12.3985C12.5558 4.61687 12.7067 4.55437 12.818 4.44312C12.9292 4.33187 12.9917 4.18098 12.9917 4.02364C12.9917 3.86631 12.9292 3.71542 12.818 3.60417C12.7067 3.49292 12.5558 3.43042 12.3985 3.43042H9.81204ZM25.3426 8.80503H8.21034C7.7393 8.80814 7.28843 8.99664 6.95535 9.32972C6.62227 9.6628 6.43377 10.1137 6.43066 10.5847V21.4882C6.43066 21.9602 6.61816 22.4128 6.95192 22.7466C7.28567 23.0803 7.73834 23.2678 8.21034 23.2678H25.3426C25.8146 23.2678 26.2673 23.0803 26.6011 22.7466C26.9348 22.4128 27.1223 21.9602 27.1223 21.4882V10.5847C27.1223 10.1127 26.9348 9.66004 26.6011 9.32628C26.2673 8.99253 25.8146 8.80503 25.3426 8.80503ZM25.9359 21.4882C25.9359 21.6455 25.8734 21.7964 25.7621 21.9076C25.6509 22.0189 25.5 22.0814 25.3426 22.0814H8.21034C8.053 22.0814 7.90211 22.0189 7.79086 21.9076C7.67961 21.7964 7.61711 21.6455 7.61711 21.4882V10.5847C7.62015 10.4283 7.68362 10.2792 7.79422 10.1686C7.90482 10.058 8.05395 9.99451 8.21034 9.99148H25.3426C25.5 9.99148 25.6509 10.054 25.7621 10.1652C25.8734 10.2765 25.9359 10.4274 25.9359 10.5847V21.4882Z" fill="#5D0440" stroke="#5D0440" strokeWidth="0.5"/>
<path d="M21.7835 11.5458C21.5244 11.4563 21.2475 11.4304 20.9763 11.4705C20.705 11.5105 20.4474 11.6152 20.2252 11.7758C20.0029 11.9364 19.8226 12.1481 19.6994 12.393C19.5762 12.6379 19.5138 12.9089 19.5174 13.1831C19.5205 13.6404 19.7044 14.078 20.0289 14.4003C20.3535 14.7225 20.7923 14.9034 21.2496 14.9034C21.4413 14.8994 21.6305 14.8592 21.8073 14.7848C21.9884 14.8582 22.1813 14.8984 22.3767 14.9034C22.6249 14.9022 22.8697 14.8471 23.0944 14.7417C23.319 14.6363 23.518 14.4832 23.6775 14.2932C23.837 14.1031 23.9531 13.8806 24.0179 13.6411C24.0827 13.4016 24.0946 13.1508 24.0527 12.9063C24.0107 12.6617 23.916 12.4292 23.7752 12.225C23.6343 12.0207 23.4506 11.8496 23.237 11.7235C23.0233 11.5974 22.7847 11.5194 22.5378 11.4948C22.2909 11.4703 22.0416 11.4998 21.8073 11.5814L21.7835 11.5458ZM22.353 13.6814C22.2604 13.6763 22.1705 13.6477 22.092 13.5983C22.0136 13.5507 21.9478 13.4849 21.9003 13.4064C21.8528 13.3279 21.8249 13.239 21.8191 13.1475C21.8205 13.0549 21.8465 12.9643 21.8945 12.8851C21.9424 12.8059 22.0106 12.7408 22.092 12.6966C22.1679 12.6418 22.2594 12.6127 22.353 12.6136C22.4946 12.6136 22.6304 12.6698 22.7305 12.7699C22.8307 12.8701 22.8869 13.0059 22.8869 13.1475C22.8869 13.2891 22.8307 13.4249 22.7305 13.525C22.6304 13.6251 22.4946 13.6814 22.353 13.6814ZM10.5835 13.7407H12.1021C12.2594 13.7407 12.4103 13.6782 12.5216 13.5669C12.6328 13.4557 12.6953 13.3048 12.6953 13.1475C12.6953 12.9901 12.6328 12.8392 12.5216 12.728C12.4103 12.6167 12.2594 12.5542 12.1021 12.5542H10.5835C10.4261 12.5542 10.2752 12.6167 10.164 12.728C10.0527 12.8392 9.99023 12.9901 9.99023 13.1475C9.99023 13.3048 10.0527 13.4557 10.164 13.5669C10.2752 13.6782 10.4261 13.7407 10.5835 13.7407ZM10.5835 17.9289H11.7699C11.9272 17.9289 12.0781 17.8664 12.1894 17.7551C12.3006 17.6439 12.3631 17.493 12.3631 17.3356C12.3631 17.1783 12.3006 17.0274 12.1894 16.9162C12.0781 16.8049 11.9272 16.7424 11.7699 16.7424H10.5835C10.4261 16.7424 10.2752 16.8049 10.164 16.9162C10.0527 17.0274 9.99023 17.1783 9.99023 17.3356C9.99327 17.492 10.0567 17.6411 10.1673 17.7517C10.2779 17.8623 10.4271 17.9258 10.5835 17.9289ZM17.2276 16.7424H14.1428C13.9855 16.7424 13.8346 16.8049 13.7233 16.9162C13.6121 17.0274 13.5496 17.1783 13.5496 17.3356C13.5526 17.492 13.6161 17.6411 13.7267 17.7517C13.8373 17.8623 13.9864 17.9258 14.1428 17.9289H17.2276C17.3839 17.9258 17.5331 17.8623 17.6437 17.7517C17.7543 17.6411 17.8178 17.492 17.8208 17.3356C17.8208 17.1783 17.7583 17.0274 17.647 16.9162C17.5358 16.8049 17.3849 16.7424 17.2276 16.7424ZM20.7869 16.7424H19.6005C19.4431 16.7424 19.2922 16.8049 19.181 16.9162C19.0697 17.0274 19.0072 17.1783 19.0072 17.3356C19.0072 17.493 19.0697 17.6439 19.181 17.7551C19.2922 17.8664 19.4431 17.9289 19.6005 17.9289H20.7869C20.9433 17.9258 21.0924 17.8623 21.203 17.7517C21.3136 17.6411 21.3771 17.492 21.3801 17.3356C21.3801 17.1783 21.3176 17.0274 21.2064 16.9162C21.0951 16.8049 20.9442 16.7424 20.7869 16.7424ZM14.8547 19.317H10.5835C10.4271 19.32 10.2779 19.3835 10.1673 19.4941C10.0567 19.6047 9.99327 19.7538 9.99023 19.9102C9.99023 20.0676 10.0527 20.2184 10.164 20.3297C10.2752 20.4409 10.4261 20.5034 10.5835 20.5034H14.8547C15.012 20.5034 15.1629 20.4409 15.2741 20.3297C15.3854 20.2184 15.4479 20.0676 15.4479 19.9102C15.4449 19.7538 15.3814 19.6047 15.2708 19.4941C15.1602 19.3835 15.0111 19.32 14.8547 19.317Z" fill="#5D0440" stroke="#5D0440" strokeWidth="0.5"/>
</svg>
