<svg width="33" height="33" viewBox="0 0 33 33" fill="none" xmlns="http://www.w3.org/2000/svg">
<path d="M28.9663 10.5928V30.1732C28.9663 30.8662 28.4056 31.4332 27.7063 31.4332H14.3818C13.6888 31.4332 13.1218 30.8662 13.1218 30.1732V10.5928C13.1218 9.89976 13.6888 9.33276 14.3818 9.33276H27.7063C28.4056 9.33276 28.9663 9.89976 28.9663 10.5928Z" fill="#00759A"/>
<path d="M26.1018 9.33398H23.3928V31.4319H26.1018V9.33398Z" fill="white"/>
<path d="M21.0437 2.45177V27.0218C21.0437 27.7148 20.4768 28.2818 19.7837 28.2818H5.29369C4.60075 28.2818 4.03369 27.7148 4.03369 27.0218V2.45177C4.03369 1.75247 4.60075 1.19177 5.29369 1.19177H19.7837C20.4768 1.19177 21.0437 1.75247 21.0437 2.45177Z" fill="#00759A"/>
<path d="M19.4686 3.24255H5.60864V10.594H19.4686V3.24255Z" fill="white"/>
<path d="M19.0026 27.7589V28.2818H6.07495V27.7589C6.07495 27.411 6.357 27.1289 6.70495 27.1289H18.3726C18.7205 27.1289 19.0026 27.411 19.0026 27.7589Z" fill="#00759A"/>
<path d="M12.0298 13.053V13.9051C12.0298 14.1422 11.8323 14.3453 11.5897 14.3453H9.78379C9.54672 14.3453 9.34361 14.1421 9.34361 13.9051V13.053C9.34361 12.8103 9.54678 12.6128 9.78379 12.6128H11.5897C11.8323 12.6128 12.0298 12.8102 12.0298 13.053ZM12.0298 15.7179V16.57C12.0298 16.8127 11.8323 17.0102 11.5897 17.0102H9.78379C9.54672 17.0102 9.34361 16.8127 9.34361 16.57V15.7179C9.34361 15.4752 9.54678 15.2777 9.78379 15.2777H11.5897C11.8323 15.2776 12.0298 15.4752 12.0298 15.7179ZM12.0298 18.3827V19.2348C12.0298 19.4775 11.8323 19.675 11.5897 19.675H9.78379C9.54672 19.675 9.34361 19.4775 9.34361 19.2348V18.3827C9.34361 18.14 9.54678 17.9425 9.78379 17.9425H11.5897C11.8323 17.9426 12.0298 18.1401 12.0298 18.3827ZM12.0293 21.0482V21.9056C12.0293 22.1426 11.8319 22.34 11.5894 22.34H9.78417C9.54722 22.34 9.34411 22.1426 9.34411 21.9056V21.0482C9.34411 20.8112 9.54716 20.6138 9.78417 20.6138H11.5894C11.8319 20.6138 12.0293 20.8112 12.0293 21.0482ZM12.0298 23.7189V24.571C12.0298 24.8137 11.8323 25.0112 11.5897 25.0112H9.78379C9.54672 25.0112 9.34361 24.8137 9.34361 24.571V23.7189C9.34361 23.4762 9.54678 23.2787 9.78379 23.2787H11.5897C11.8323 23.2786 12.0298 23.4762 12.0298 23.7189ZM15.7283 13.053V13.9051C15.7283 14.1422 15.5308 14.3453 15.2937 14.3453H13.4879C13.2453 14.3453 13.0477 14.1421 13.0477 13.9051V13.053C13.0477 12.8103 13.2453 12.6128 13.4879 12.6128H15.2937C15.5308 12.6128 15.7283 12.8102 15.7283 13.053ZM8.3312 21.0482V21.9056C8.3312 22.1426 8.13376 22.34 7.89114 22.34H6.08607C5.84352 22.34 5.64601 22.1426 5.64601 21.9056V21.0482C5.64601 20.8112 5.84352 20.6138 6.08607 20.6138H7.89121C8.13382 20.6138 8.3312 20.8112 8.3312 21.0482ZM15.7283 15.7179V16.57C15.7283 16.8127 15.5308 17.0102 15.2937 17.0102H13.4879C13.2453 17.0102 13.0477 16.8127 13.0477 16.57V15.7179C13.0477 15.4752 13.2453 15.2777 13.4879 15.2777H15.2937C15.5308 15.2776 15.7283 15.4752 15.7283 15.7179ZM15.7283 18.3827V19.2348C15.7283 19.4775 15.5308 19.675 15.2937 19.675H13.4879C13.2453 19.675 13.0477 19.4775 13.0477 19.2348V18.3827C13.0477 18.14 13.2453 17.9425 13.4879 17.9425H15.2937C15.5308 17.9426 15.7283 18.1401 15.7283 18.3827ZM15.7277 21.0482V21.9056C15.7277 22.1426 15.5303 22.34 15.2933 22.34H13.4882C13.2456 22.34 13.0481 22.1426 13.0481 21.9056V21.0482C13.0481 20.8112 13.2456 20.6138 13.4882 20.6138H15.2933C15.5303 20.6138 15.7277 20.8112 15.7277 21.0482ZM15.7283 23.7189V24.571C15.7283 24.8137 15.5308 25.0112 15.2937 25.0112H13.4879C13.2453 25.0112 13.0477 24.8137 13.0477 24.571V23.7189C13.0477 23.4762 13.2453 23.2787 13.4879 23.2787H15.2937C15.5308 23.2786 15.7283 23.4762 15.7283 23.7189ZM8.3317 23.7189V24.571C8.3317 24.8137 8.1342 25.0112 7.89152 25.0112H6.08569C5.84308 25.0112 5.64551 24.8137 5.64551 24.571V23.7189C5.64551 23.4762 5.84308 23.2787 6.08569 23.2787H7.89152C8.13426 23.2786 8.3317 23.4762 8.3317 23.7189ZM8.3317 13.053V13.9051C8.3317 14.1422 8.1342 14.3453 7.89152 14.3453H6.08569C5.84308 14.3453 5.64551 14.1421 5.64551 13.9051V13.053C5.64551 12.8103 5.84308 12.6128 6.08569 12.6128H7.89152C8.13426 12.6128 8.3317 12.8102 8.3317 13.053ZM8.3317 15.7179V16.57C8.3317 16.8127 8.1342 17.0102 7.89152 17.0102H6.08569C5.84308 17.0102 5.64551 16.8127 5.64551 16.57V15.7179C5.64551 15.4752 5.84308 15.2777 6.08569 15.2777H7.89152C8.13426 15.2776 8.3317 15.4752 8.3317 15.7179ZM8.3317 18.3827V19.2348C8.3317 19.4775 8.1342 19.675 7.89152 19.675H6.08569C5.84308 19.675 5.64551 19.4775 5.64551 19.2348V18.3827C5.64551 18.14 5.84308 17.9425 6.08569 17.9425H7.89152C8.13426 17.9426 8.3317 18.1401 8.3317 18.3827Z" fill="white"/>
<path d="M19.4305 15.7171V16.5697C19.4305 16.8113 19.2328 17.0091 18.9911 17.0091H17.185C16.9434 17.0091 16.7456 16.8113 16.7456 16.5697V15.7171C16.7456 15.4755 16.9434 15.2777 17.185 15.2777H18.9911C19.2328 15.2777 19.4305 15.4755 19.4305 15.7171Z" fill="white"/>
<path d="M19.4305 18.3839V19.2364C19.4305 19.4781 19.2328 19.6758 18.9911 19.6758H17.185C16.9434 19.6758 16.7456 19.4781 16.7456 19.2364V18.3839C16.7456 18.1422 16.9434 17.9445 17.185 17.9445H18.9911C19.2328 17.9445 19.4305 18.1422 19.4305 18.3839Z" fill="white"/>
<path d="M19.5868 21.0011V24.6196C19.5868 24.8894 19.3661 25.1102 19.0962 25.1102H17.0799C16.8102 25.1102 16.5894 24.8894 16.5894 24.6196V21.0011C16.5894 20.7313 16.8102 20.5105 17.0799 20.5105H19.0962C19.3661 20.5105 19.5868 20.7313 19.5868 21.0011Z" fill="white"/>
<path d="M19.4323 13.053V13.9051C19.4323 14.1422 19.2348 14.3453 18.9922 14.3453H17.1863C16.9436 14.3453 16.7461 14.1421 16.7461 13.9051V13.053C16.7461 12.8103 16.9436 12.6128 17.1863 12.6128H18.9922C19.2348 12.6128 19.4323 12.8102 19.4323 13.053Z" fill="white"/>
</svg>
