<svg width="29" height="36" viewBox="0 0 29 36" fill="none" xmlns="http://www.w3.org/2000/svg">
<path d="M21.832 26.7858C21.6611 26.7858 21.4973 26.8545 21.3764 26.9768C21.2556 27.099 21.1877 27.2649 21.1877 27.4378V32.4058C21.1877 32.9245 20.9841 33.422 20.6217 33.7888C20.2592 34.1556 19.7676 34.3617 19.255 34.3617H3.47119C2.9586 34.3617 2.46701 34.1556 2.10456 33.7888C1.7421 33.422 1.53848 32.9245 1.53848 32.4058V30.4499H19.0875C19.2584 30.4499 19.4223 30.3812 19.5431 30.2589C19.6639 30.1366 19.7318 29.9708 19.7318 29.7979C19.7318 29.625 19.6639 29.4592 19.5431 29.3369C19.4223 29.2146 19.2584 29.1459 19.0875 29.1459H1.53848V3.71919C1.53848 3.20045 1.7421 2.70296 2.10456 2.33616C2.46701 1.96935 2.9586 1.76329 3.47119 1.76329H19.255C19.7676 1.76329 20.2592 1.96935 20.6217 2.33616C20.9841 2.70296 21.1877 3.20045 21.1877 3.71919V6.87471C21.1877 7.04763 21.2556 7.21346 21.3764 7.33572C21.4973 7.45799 21.6611 7.52668 21.832 7.52668C22.0018 7.52334 22.1638 7.45358 22.2839 7.33203C22.404 7.21048 22.4729 7.04658 22.4762 6.87471V3.71919C22.4728 2.85568 22.1324 2.02852 21.529 1.41793C20.9257 0.807333 20.1083 0.462784 19.255 0.459351H3.47119C2.61688 0.459351 1.79756 0.802797 1.19347 1.41414C0.589375 2.02547 0.25 2.85463 0.25 3.71919V32.4058C0.25 33.2703 0.589375 34.0995 1.19347 34.7108C1.79756 35.3222 2.61688 35.6656 3.47119 35.6656H19.255C20.1083 35.6622 20.9257 35.3176 21.529 34.707C22.1324 34.0964 22.4728 33.2693 22.4762 32.4058V27.4378C22.4762 27.2649 22.4083 27.099 22.2875 26.9768C22.1667 26.8545 22.0028 26.7858 21.832 26.7858Z" fill="#009A07" stroke="#009A07" strokeWidth="0.5"/>
<path d="M10.1445 32.4057C10.1342 32.6501 10.1964 32.892 10.3231 33.1003C10.4498 33.3086 10.6351 33.4738 10.8553 33.5746C11.0755 33.6754 11.3205 33.7072 11.5588 33.666C11.797 33.6248 12.0176 33.5123 12.1922 33.3432C12.3667 33.174 12.4873 32.9559 12.5384 32.7168C12.5894 32.4777 12.5687 32.2287 12.4787 32.0016C12.3887 31.7746 12.2337 31.58 12.0336 31.4429C11.8334 31.3058 11.5973 31.2324 11.3556 31.2322C11.0432 31.2319 10.7427 31.3538 10.5169 31.5725C10.2912 31.7912 10.1578 32.0897 10.1445 32.4057ZM11.3556 32.4839C11.3351 32.4839 11.3155 32.4757 11.301 32.461C11.2865 32.4463 11.2783 32.4264 11.2783 32.4057H11.3556V32.4839ZM9.95121 3.43225C9.78035 3.43225 9.61648 3.50094 9.49567 3.62321C9.37485 3.74548 9.30697 3.91131 9.30697 4.08422C9.30697 4.25713 9.37485 4.42296 9.49567 4.54523C9.61648 4.6675 9.78035 4.73619 9.95121 4.73619H12.7601C12.931 4.73619 13.0948 4.6675 13.2156 4.54523C13.3365 4.42296 13.4043 4.25713 13.4043 4.08422C13.4043 3.91131 13.3365 3.74548 13.2156 3.62321C13.0948 3.50094 12.931 3.43225 12.7601 3.43225H9.95121ZM26.8174 9.33908H8.21177C7.70022 9.3425 7.21059 9.54966 6.84886 9.91573C6.48714 10.2818 6.28243 10.7773 6.27905 11.295V23.2781C6.27905 23.7969 6.48268 24.2944 6.84513 24.6612C7.20759 25.028 7.69918 25.2341 8.21177 25.2341H26.8174C27.33 25.2341 27.8215 25.028 28.184 24.6612C28.5465 24.2944 28.7501 23.7969 28.7501 23.2781V11.295C28.7501 10.7762 28.5465 10.2788 28.184 9.91195C27.8215 9.54515 27.33 9.33908 26.8174 9.33908ZM27.4616 23.2781C27.4616 23.4511 27.3937 23.6169 27.2729 23.7392C27.1521 23.8614 26.9882 23.9301 26.8174 23.9301H8.21177C8.0409 23.9301 7.87704 23.8614 7.75622 23.7392C7.6354 23.6169 7.56753 23.4511 7.56753 23.2781V11.295C7.57083 11.1231 7.63976 10.9592 7.75987 10.8377C7.87998 10.7161 8.04194 10.6464 8.21177 10.643H26.8174C26.9882 10.643 27.1521 10.7117 27.2729 10.834C27.3937 10.9562 27.4616 11.1221 27.4616 11.295V23.2781Z" fill="#009A07" stroke="#009A07" strokeWidth="0.5"/>
<path d="M22.9535 12.3513C22.672 12.2529 22.3713 12.2245 22.0768 12.2685C21.7822 12.3125 21.5024 12.4276 21.2611 12.6041C21.0198 12.7806 20.8239 13.0132 20.6901 13.2824C20.5564 13.5516 20.4886 13.8494 20.4925 14.1507C20.4959 14.6534 20.6956 15.1343 21.048 15.4885C21.4004 15.8427 21.8769 16.0414 22.3736 16.0414C22.5818 16.037 22.7873 15.9928 22.9792 15.911C23.176 15.9918 23.3855 16.036 23.5977 16.0414C23.8671 16.0402 24.1331 15.9795 24.377 15.8637C24.621 15.7479 24.8371 15.5797 25.0103 15.3708C25.1835 15.1619 25.3096 14.9173 25.38 14.6541C25.4504 14.3909 25.4632 14.1153 25.4177 13.8465C25.3722 13.5778 25.2694 13.3223 25.1164 13.0978C24.9634 12.8733 24.7639 12.6852 24.5319 12.5467C24.2998 12.4081 24.0407 12.3223 23.7726 12.2953C23.5044 12.2684 23.2337 12.3008 22.9792 12.3904L22.9535 12.3513ZM23.5719 14.6984C23.4713 14.6928 23.3737 14.6614 23.2885 14.6071C23.2033 14.5548 23.1318 14.4824 23.0802 14.3961C23.0286 14.3099 22.9984 14.2123 22.9921 14.1116C22.9936 14.0098 23.0219 13.9103 23.074 13.8232C23.126 13.7362 23.2001 13.6647 23.2885 13.6161C23.3709 13.5559 23.4702 13.5239 23.5719 13.5248C23.7257 13.5248 23.8732 13.5867 23.9819 13.6967C24.0906 13.8067 24.1517 13.956 24.1517 14.1116C24.1517 14.2672 24.0906 14.4165 23.9819 14.5265C23.8732 14.6366 23.7257 14.6984 23.5719 14.6984ZM10.7902 14.7636H12.4395C12.6103 14.7636 12.7742 14.6949 12.895 14.5726C13.0158 14.4504 13.0837 14.2845 13.0837 14.1116C13.0837 13.9387 13.0158 13.7729 12.895 13.6506C12.7742 13.5283 12.6103 13.4596 12.4395 13.4596H10.7902C10.6194 13.4596 10.4555 13.5283 10.3347 13.6506C10.2139 13.7729 10.146 13.9387 10.146 14.1116C10.146 14.2845 10.2139 14.4504 10.3347 14.5726C10.4555 14.6949 10.6194 14.7636 10.7902 14.7636ZM10.7902 19.3665H12.0787C12.2496 19.3665 12.4134 19.2978 12.5343 19.1755C12.6551 19.0532 12.7229 18.8874 12.7229 18.7145C12.7229 18.5416 12.6551 18.3758 12.5343 18.2535C12.4134 18.1312 12.2496 18.0625 12.0787 18.0625H10.7902C10.6194 18.0625 10.4555 18.1312 10.3347 18.2535C10.2139 18.3758 10.146 18.5416 10.146 18.7145C10.1493 18.8864 10.2182 19.0503 10.3383 19.1718C10.4584 19.2934 10.6204 19.3631 10.7902 19.3665ZM18.0057 18.0625H14.6557C14.4848 18.0625 14.3209 18.1312 14.2001 18.2535C14.0793 18.3758 14.0114 18.5416 14.0114 18.7145C14.0147 18.8864 14.0837 19.0503 14.2038 19.1718C14.3239 19.2934 14.4858 19.3631 14.6557 19.3665H18.0057C18.1755 19.3631 18.3375 19.2934 18.4576 19.1718C18.5777 19.0503 18.6466 18.8864 18.6499 18.7145C18.6499 18.5416 18.5821 18.3758 18.4612 18.2535C18.3404 18.1312 18.1766 18.0625 18.0057 18.0625ZM21.8711 18.0625H20.5827C20.4118 18.0625 20.2479 18.1312 20.1271 18.2535C20.0063 18.3758 19.9384 18.5416 19.9384 18.7145C19.9384 18.8874 20.0063 19.0532 20.1271 19.1755C20.2479 19.2978 20.4118 19.3665 20.5827 19.3665H21.8711C22.041 19.3631 22.2029 19.2934 22.323 19.1718C22.4431 19.0503 22.5121 18.8864 22.5154 18.7145C22.5154 18.5416 22.4475 18.3758 22.3267 18.2535C22.2059 18.1312 22.042 18.0625 21.8711 18.0625ZM15.4287 20.8921H10.7902C10.6204 20.8954 10.4584 20.9652 10.3383 21.0867C10.2182 21.2083 10.1493 21.3722 10.146 21.544C10.146 21.717 10.2139 21.8828 10.3347 22.0051C10.4555 22.1273 10.6194 22.196 10.7902 22.196H15.4287C15.5996 22.196 15.7635 22.1273 15.8843 22.0051C16.0051 21.8828 16.073 21.717 16.073 21.544C16.0697 21.3722 16.0008 21.2083 15.8806 21.0867C15.7605 20.9652 15.5986 20.8954 15.4287 20.8921Z" fill="#009A07" stroke="#009A07" strokeWidth="0.5"/>
</svg>
