<svg width="34" height="35" viewBox="0 0 34 35" fill="none" xmlns="http://www.w3.org/2000/svg">
<path d="M18.6607 17.0696L2.02964 33.6228C1.63877 33.2473 1.32893 32.7958 1.1192 32.296C0.909482 31.7962 0.80432 31.2588 0.810201 30.7169V4.77143C0.807398 4.22133 0.918963 3.67664 1.13782 3.17194C1.35667 2.66723 1.67804 2.21353 2.08153 1.8396L18.6607 17.0696Z" fill="url(#paint0_linear_65_1072)"/>
<path d="M33.1901 17.7441C33.1854 18.4824 32.9801 19.2055 32.5962 19.8361C32.2123 20.4668 31.6643 20.9813 31.0106 21.3245L26.2626 23.9191L20.373 18.5224L18.6606 17.0695L24.9135 10.8685L30.9328 14.1636C31.601 14.4963 32.1649 15.0062 32.563 15.6376C32.961 16.2691 33.178 16.9977 33.1901 17.7441Z" fill="url(#paint1_linear_65_1072)"/>
<path d="M18.6606 17.0694L2.08145 1.81347C2.32038 1.59669 2.58124 1.40539 2.85981 1.24267C3.52946 0.852994 4.2904 0.647705 5.06518 0.647705C5.83995 0.647705 6.60089 0.852994 7.27054 1.24267L24.9913 10.9203L18.6606 17.0694Z" fill="url(#paint2_linear_65_1072)"/>
<path d="M26.2627 23.9451L7.27061 34.3233C6.60857 34.6794 5.86887 34.8666 5.11714 34.8681C4.32074 34.88 3.53755 34.664 2.85989 34.2455C2.5621 34.0675 2.28383 33.8588 2.02963 33.6228L18.6607 17.0696L20.2952 18.5485L26.2627 23.9451Z" fill="url(#paint3_linear_65_1072)"/>
<defs>
<linearGradient id="paint0_linear_65_1072" x1="9.78732" y1="32.559" x2="9.78732" y2="2.9812" gradientUnits="userSpaceOnUse">
<stop stopColor="#00E4FF"/>
<stop offset="0.99" stopColor="#00CCFF"/>
</linearGradient>
<linearGradient id="paint1_linear_65_1072" x1="18.7385" y1="17.4068" x2="33.1901" y2="17.4068" gradientUnits="userSpaceOnUse">
<stop offset="0.01" stopColor="#FFBC00"/>
<stop offset="1" stopColor="#FFE100"/>
</linearGradient>
<linearGradient id="paint2_linear_65_1072" x1="13.5234" y1="17.0694" x2="13.5234" y2="0.619983" gradientUnits="userSpaceOnUse">
<stop stopColor="#00F055"/>
<stop offset="0.99" stopColor="#00E05A"/>
</linearGradient>
<linearGradient id="paint3_linear_65_1072" x1="14.1461" y1="34.8681" x2="14.1461" y2="17.0696" gradientUnits="userSpaceOnUse">
<stop offset="0.01" stopColor="#DE1646"/>
<stop offset="1" stopColor="#FF2B43"/>
</linearGradient>
</defs>
</svg>
