<svg width="34" height="35" viewBox="0 0 34 35" fill="none" xmlns="http://www.w3.org/2000/svg">
<path d="M18.6607 17.0361L2.02964 33.5893C1.63877 33.2138 1.32893 32.7623 1.1192 32.2625C0.909482 31.7628 0.80432 31.2254 0.810201 30.6834V4.73799C0.807398 4.18788 0.918963 3.6432 1.13782 3.13849C1.35667 2.63379 1.67804 2.18008 2.08153 1.80615L18.6607 17.0361Z" fill="url(#paint0_linear_65_1279)"/>
<path d="M33.1901 17.7105C33.1854 18.4488 32.9801 19.1719 32.5962 19.8026C32.2123 20.4332 31.6643 20.9477 31.0106 21.291L26.2626 23.8855L20.373 18.4889L18.6606 17.0359L24.9135 10.835L30.9328 14.13C31.601 14.4627 32.1649 14.9726 32.563 15.6041C32.961 16.2355 33.178 16.9642 33.1901 17.7105Z" fill="url(#paint1_linear_65_1279)"/>
<path d="M18.6606 17.0359L2.08145 1.78003C2.32038 1.56324 2.58124 1.37194 2.85981 1.20923C3.52946 0.819547 4.2904 0.614258 5.06518 0.614258C5.83995 0.614258 6.60089 0.819547 7.27054 1.20923L24.9913 10.8869L18.6606 17.0359Z" fill="url(#paint2_linear_65_1279)"/>
<path d="M26.2627 23.9117L7.27061 34.2898C6.60857 34.6459 5.86887 34.8331 5.11714 34.8347C4.32074 34.8466 3.53755 34.6305 2.85989 34.212C2.5621 34.0341 2.28383 33.8254 2.02963 33.5893L18.6607 17.0361L20.2952 18.515L26.2627 23.9117Z" fill="url(#paint3_linear_65_1279)"/>
<defs>
<linearGradient id="paint0_linear_65_1279" x1="9.78732" y1="32.5255" x2="9.78732" y2="2.94775" gradientUnits="userSpaceOnUse">
<stop stopColor="#00E4FF"/>
<stop offset="0.99" stopColor="#00CCFF"/>
</linearGradient>
<linearGradient id="paint1_linear_65_1279" x1="18.7385" y1="17.3732" x2="33.1901" y2="17.3732" gradientUnits="userSpaceOnUse">
<stop offset="0.01" stopColor="#FFBC00"/>
<stop offset="1" stopColor="#FFE100"/>
</linearGradient>
<linearGradient id="paint2_linear_65_1279" x1="13.5234" y1="17.0359" x2="13.5234" y2="0.586535" gradientUnits="userSpaceOnUse">
<stop stopColor="#00F055"/>
<stop offset="0.99" stopColor="#00E05A"/>
</linearGradient>
<linearGradient id="paint3_linear_65_1279" x1="14.1461" y1="34.8347" x2="14.1461" y2="17.0361" gradientUnits="userSpaceOnUse">
<stop offset="0.01" stopColor="#DE1646"/>
<stop offset="1" stopColor="#FF2B43"/>
</linearGradient>
</defs>
</svg>
