<svg width="26" height="36" viewBox="0 0 26 36" fill="none" xmlns="http://www.w3.org/2000/svg">
<path d="M23.211 1.35046H2.78907C2.45056 1.35046 2.12591 1.48494 1.88654 1.7243C1.64718 1.96367 1.5127 2.28832 1.5127 2.62683V32.1493C1.51197 32.3807 1.57416 32.6079 1.69263 32.8067C1.81109 33.0055 1.98136 33.1683 2.18523 33.2778C2.3891 33.3873 2.6189 33.4393 2.85004 33.4282C3.08118 33.4172 3.30496 33.3435 3.49746 33.215L4.63343 32.4556C4.84317 32.3157 5.08967 32.241 5.34181 32.241C5.59395 32.241 5.84045 32.3157 6.0502 32.4556L8.46253 34.0638C8.67228 34.2038 8.91878 34.2784 9.17092 34.2784C9.42306 34.2784 9.66956 34.2038 9.87931 34.0638L12.2853 32.4556C12.495 32.3157 12.7415 32.241 12.9936 32.241C13.2458 32.241 13.4923 32.3157 13.702 32.4556L16.1144 34.0638C16.3241 34.2038 16.5706 34.2784 16.8228 34.2784C17.0749 34.2784 17.3214 34.2038 17.5311 34.0638L19.9499 32.4556C20.1589 32.317 20.4042 32.2431 20.6551 32.2431C20.9059 32.2431 21.1512 32.317 21.3602 32.4556L22.5026 33.215C22.6946 33.3432 22.9178 33.4168 23.1484 33.4281C23.379 33.4394 23.6083 33.388 23.812 33.2793C24.0157 33.1706 24.186 33.0087 24.305 32.8108C24.4239 32.6129 24.4869 32.3865 24.4874 32.1556V2.62683C24.4874 2.28832 24.3529 1.96367 24.1135 1.7243C23.8742 1.48494 23.5495 1.35046 23.211 1.35046ZM13 25.6015C12.7476 25.6015 12.5008 25.5266 12.2909 25.3864C12.081 25.2461 11.9174 25.0468 11.8208 24.8136C11.7242 24.5803 11.6989 24.3237 11.7482 24.0761C11.7974 23.8285 11.919 23.6011 12.0975 23.4226C12.276 23.2441 12.5034 23.1225 12.751 23.0733C12.9986 23.024 13.2552 23.0493 13.4885 23.1459C13.7217 23.2425 13.921 23.4061 14.0613 23.616C14.2015 23.8259 14.2764 24.0727 14.2764 24.3251C14.2764 24.6636 14.1419 24.9883 13.9026 25.2276C13.6632 25.467 13.3385 25.6015 13 25.6015ZM13 20.496C12.7476 20.496 12.5008 20.4212 12.2909 20.2809C12.081 20.1407 11.9174 19.9413 11.8208 19.7081C11.7242 19.4749 11.6989 19.2182 11.7482 18.9706C11.7974 18.723 11.919 18.4956 12.0975 18.3171C12.276 18.1386 12.5034 18.017 12.751 17.9678C12.9986 17.9185 13.2552 17.9438 13.4885 18.0404C13.7217 18.137 13.921 18.3006 14.0613 18.5105C14.2015 18.7204 14.2764 18.9672 14.2764 19.2196C14.2764 19.5582 14.1419 19.8828 13.9026 20.1222C13.6632 20.3615 13.3385 20.496 13 20.496ZM18.1055 15.3905H6.61818C6.27967 15.3905 5.95502 15.2561 5.71565 15.0167C5.47629 14.7773 5.34181 14.4527 5.34181 14.1142C5.34181 13.7756 5.47629 13.451 5.71565 13.2116C5.95502 12.9723 6.27967 12.8378 6.61818 12.8378H18.1055C18.444 12.8378 18.7687 12.9723 19.008 13.2116C19.2474 13.451 19.3819 13.7756 19.3819 14.1142C19.3819 14.4527 19.2474 14.7773 19.008 15.0167C18.7687 15.2561 18.444 15.3905 18.1055 15.3905ZM18.1055 10.2851H6.61818C6.27967 10.2851 5.95502 10.1506 5.71565 9.91121C5.47629 9.67185 5.34181 9.3472 5.34181 9.00868C5.34181 8.67017 5.47629 8.34552 5.71565 8.10615C5.95502 7.86679 6.27967 7.73231 6.61818 7.73231H18.1055C18.444 7.73231 18.7687 7.86679 19.008 8.10615C19.2474 8.34552 19.3819 8.67017 19.3819 9.00868C19.3819 9.3472 19.2474 9.67185 19.008 9.91121C18.7687 10.1506 18.444 10.2851 18.1055 10.2851Z" stroke="#00A9D3" strokeWidth="1.7"/>
</svg>
