<svg width="448" height="408" viewBox="0 0 448 408" fill="none" xmlns="http://www.w3.org/2000/svg">
<path d="M0.873047 5C0.873047 2.23857 3.11162 0 5.87305 0H442.124C444.886 0 447.124 2.23858 447.124 5V403C447.124 405.761 444.886 408 442.124 408H424.611C423.564 408 422.542 407.671 421.692 407.059L407.641 396.955C405.792 395.624 403.277 395.713 401.525 397.169L391.697 405.342C389.844 406.882 387.156 406.882 385.303 405.342L376.272 397.832C374.177 396.09 371.074 396.346 369.292 398.407L364.208 404.289C362.426 406.35 359.323 406.605 357.228 404.864L348.855 397.901C346.728 396.132 343.568 396.427 341.805 398.56L337.299 404.01C335.496 406.191 332.244 406.443 330.127 404.565L322.635 397.92C320.611 396.124 317.526 396.265 315.673 398.237L309.827 404.459C307.974 406.431 304.889 406.571 302.865 404.776L294.934 397.742C292.992 396.019 290.054 396.07 288.172 397.858L281.008 404.667C279.052 406.525 275.975 406.497 274.054 404.604L267.51 398.154C265.563 396.236 262.437 396.236 260.49 398.154L253.946 404.604C252.025 406.497 248.948 406.525 246.992 404.667L240.008 398.029C238.052 396.171 234.975 396.199 233.054 398.092L226.576 404.475C224.604 406.42 221.426 406.39 219.491 404.408L213.446 398.222C211.535 396.267 208.408 396.209 206.426 398.092L199.274 404.889C197.414 406.656 194.519 406.729 192.573 405.058L184.057 397.749C182.056 396.032 179.066 396.163 177.224 398.048L170.725 404.7C168.904 406.564 165.956 406.716 163.952 405.05L154.859 397.488C152.935 395.889 150.125 395.957 148.281 397.649L140.38 404.898C138.468 406.653 135.532 406.653 133.62 404.898L125.94 397.852C124.003 396.075 121.021 396.101 119.116 397.912L112.22 404.465C110.181 406.402 106.946 406.278 105.063 404.189L99.9372 398.506C98.0535 396.418 94.8186 396.293 92.78 398.231L86.22 404.465C84.1814 406.402 80.9465 406.278 79.0628 404.189L74.2926 398.9C72.2786 396.668 68.7634 396.705 66.797 398.98L63.1574 403.19C61.0398 405.64 57.1874 405.462 55.3056 402.826L53.1152 399.759C51.2586 397.159 47.4731 396.943 45.3332 399.315L41.3774 403.701C39.3339 405.967 35.7553 405.89 33.8111 403.538L30.8725 399.984C28.7117 397.371 24.6313 397.621 22.8056 400.478L19.4746 405.692C18.5559 407.13 16.9674 408 15.2611 408H5.87305C3.11162 408 0.873047 405.761 0.873047 403V5Z" fill="white"/>
</svg>
