<svg width="28" height="36" viewBox="0 0 28 36" fill="none" xmlns="http://www.w3.org/2000/svg">
<path fillRule="evenodd" clipRule="evenodd" d="M10.1869 28.1646C10.1869 28.3263 10.0499 28.4628 9.88815 28.4628H7.332C7.17024 28.4628 7.03424 28.3264 7.03424 28.1646V25.6082C7.03424 25.4464 7.17024 25.31 7.332 25.31H9.88815C10.0499 25.31 10.1869 25.4463 10.1869 25.6082V26.0774L9.42051 26.7724L8.54671 25.8989C8.33416 25.6857 7.98902 25.6857 7.77551 25.8989C7.56323 26.1118 7.56323 26.4569 7.77551 26.6698L9.01722 27.9113C9.12336 28.0174 9.26263 28.0708 9.40285 28.0708C9.53374 28.0708 9.66462 28.0238 9.76913 27.9293L10.1869 27.5504V28.1646ZM12.0507 24.3857L11.2007 25.1572C11.0132 24.6124 10.4964 24.2191 9.88822 24.2191H7.332C6.56625 24.2191 5.94332 24.8423 5.94332 25.6081V28.1645C5.94332 28.9303 6.56632 29.5535 7.332 29.5535H9.88815C10.6545 29.5535 11.2775 28.9303 11.2775 28.1645V26.5603L12.7836 25.1935C13.0072 24.9909 13.0236 24.6461 12.8209 24.4229C12.6187 24.2001 12.2735 24.1833 12.0507 24.3857ZM10.1869 20.9943C10.1869 21.1561 10.0499 21.2928 9.88815 21.2928H7.332C7.17024 21.2928 7.03424 21.1561 7.03424 20.9943V18.4382C7.03424 18.2764 7.17024 18.1397 7.332 18.1397H9.88815C10.0499 18.1397 10.1869 18.2764 10.1869 18.4382V18.9074L9.42051 19.6024L8.54671 18.7286C8.33416 18.5157 7.98902 18.5157 7.77551 18.7286C7.56323 18.9415 7.56323 19.2869 7.77551 19.4998L9.01722 20.7409C9.12336 20.8473 9.26263 20.9007 9.40285 20.9007C9.53374 20.9007 9.66462 20.8537 9.76913 20.7592L10.1869 20.3804V20.9943ZM12.0507 17.2157L11.2007 17.9872C11.0132 17.4421 10.4964 17.0491 9.88822 17.0491H7.332C6.56625 17.0491 5.94332 17.672 5.94332 18.4381V20.9942C5.94332 21.7603 6.56632 22.3833 7.332 22.3833H9.88815C10.6545 22.3833 11.2775 21.7603 11.2775 20.9942V19.3904L12.7836 18.0232C13.0072 17.8209 13.0236 17.4758 12.8209 17.253C12.6187 17.0299 12.2735 17.0131 12.0507 17.2157ZM10.1869 11.2679V11.7371L9.42051 12.4321L8.54671 11.5583C8.33416 11.3454 7.98902 11.3454 7.77551 11.5583C7.56323 11.7715 7.56323 12.1166 7.77551 12.3295L9.01722 13.5709C9.12336 13.6771 9.26263 13.7305 9.40285 13.7305C9.53374 13.7305 9.66462 13.6835 9.76913 13.5889L10.1869 13.21V13.8243C10.1869 13.9861 10.0499 14.1224 9.88815 14.1224H7.332C7.17024 14.1224 7.03424 13.9861 7.03424 13.8243V11.2678C7.03424 11.1064 7.17024 10.9697 7.332 10.9697H9.88815C10.05 10.9697 10.1869 11.1064 10.1869 11.2679ZM5.94332 11.2679V13.8244C5.94332 14.5901 6.56632 15.2134 7.332 15.2134H9.88815C10.6545 15.2134 11.2775 14.5901 11.2775 13.8244V12.2202L12.7836 10.8534C13.0072 10.6508 13.0236 10.306 12.8209 10.0828C12.6186 9.85993 12.2735 9.84316 12.0507 10.0455L11.2007 10.817C11.0132 10.2722 10.4964 9.87888 9.88822 9.87888H7.332C6.56632 9.87881 5.94332 10.5021 5.94332 11.2679ZM13.842 25.3707C13.842 25.0693 14.0862 24.8253 14.3875 24.8253H21.5105C21.8119 24.8253 22.056 25.0694 22.056 25.3707C22.056 25.6718 21.8119 25.9159 21.5105 25.9159H14.3875C14.0862 25.9159 13.842 25.6718 13.842 25.3707ZM13.842 28.4022C13.842 28.1008 14.0862 27.8568 14.3875 27.8568H21.5105C21.8119 27.8568 22.056 28.1009 22.056 28.4022C22.056 28.7033 21.8119 28.9474 21.5105 28.9474H14.3875C14.0862 28.9474 13.842 28.7033 13.842 28.4022ZM13.842 18.2005C13.842 17.8994 14.0862 17.655 14.3875 17.655H21.5105C21.8119 17.655 22.056 17.8995 22.056 18.2005C22.056 18.5018 21.8119 18.7459 21.5105 18.7459H14.3875C14.0862 18.7459 13.842 18.5018 13.842 18.2005ZM13.842 21.232C13.842 20.9306 14.0862 20.6865 14.3875 20.6865H21.5105C21.8119 20.6865 22.056 20.9306 22.056 21.232C22.056 21.533 21.8119 21.7774 21.5105 21.7774H14.3875C14.0862 21.7774 13.842 21.533 13.842 21.232ZM13.842 14.0617C13.842 13.7606 14.0862 13.5165 14.3875 13.5165H21.5105C21.8119 13.5165 22.056 13.7606 22.056 14.0617C22.056 14.3631 21.8119 14.6071 21.5105 14.6071H14.3875C14.0862 14.6071 13.842 14.363 13.842 14.0617ZM13.842 11.0305C13.842 10.7292 14.0862 10.4851 14.3875 10.4851H21.5105C21.8119 10.4851 22.056 10.7292 22.056 11.0305C22.056 11.3316 21.8119 11.5757 21.5105 11.5757H14.3875C14.0862 11.5757 13.842 11.3316 13.842 11.0305ZM26.643 33.2048V5.31132C26.643 4.77619 26.2072 4.341 25.6721 4.341H20.3816V5.3589H25.079C25.3803 5.3589 25.6245 5.60302 25.6245 5.90433V32.6117C25.6245 32.9131 25.3803 33.1571 25.079 33.1571H2.91987C2.61883 33.1571 2.37472 32.913 2.37472 32.6117V5.90439C2.37472 5.60309 2.61883 5.35897 2.91987 5.35897H7.61824V4.34106H2.3268C1.79201 4.34106 1.3562 4.77619 1.3562 5.31139V33.2048C1.3562 33.74 1.79201 34.1751 2.3268 34.1751H25.6721C26.2073 34.1751 26.643 33.74 26.643 33.2048ZM19.8362 7.36608H8.16374C7.86236 7.36608 7.61831 7.12197 7.61831 6.82066V6.44982H3.46536V32.0663H24.5337V6.44982H20.3817V6.82066C20.3816 7.12204 20.1369 7.36608 19.8362 7.36608ZM8.70882 3.42446H11.4943C11.7464 3.42446 11.9655 3.25206 12.0246 3.00699C12.245 2.0927 13.0576 1.45395 13.9997 1.45395C14.9416 1.45395 15.7543 2.0927 15.9743 3.00699C16.0338 3.25206 16.2525 3.42446 16.5049 3.42446H19.291V6.27551H8.70882V3.42446ZM25.6721 3.25015H20.3816V2.87931C20.3816 2.578 20.1369 2.33388 19.8362 2.33388H16.9031C16.4387 1.15489 15.2996 0.363037 13.9997 0.363037C12.6997 0.363037 11.5606 1.15448 11.0962 2.33382H8.16374C7.86236 2.33382 7.61831 2.57793 7.61831 2.87924V3.25008H2.3268C1.19055 3.25008 0.265625 4.17473 0.265625 5.31125V33.2047C0.265625 34.3413 1.19062 35.2659 2.3268 35.2659H25.6721C26.8087 35.2659 27.7336 34.3412 27.7336 33.2047V5.31132C27.7336 4.1748 26.8087 3.25015 25.6721 3.25015Z" fill="#84009A"/>
</svg>
