<svg width="12" height="12" viewBox="0 0 12 12" fill="none" xmlns="http://www.w3.org/2000/svg">
<path d="M11.2925 0.761168C11.0156 0.484314 10.5716 0.484314 10.2947 0.761168L5.82329 5.23262L1.35184 0.761168C1.07499 0.484314 0.630978 0.484314 0.354125 0.761168C0.0772709 1.03802 0.0772709 1.48203 0.354125 1.75889L4.82557 6.23034L0.354125 10.7018C0.0772709 10.9786 0.0772709 11.4226 0.354125 11.6995C0.48994 11.8353 0.672768 11.9084 0.850372 11.9084C1.02798 11.9084 1.2108 11.8405 1.34662 11.6995L5.81807 7.22805L10.2895 11.6995C10.4253 11.8353 10.6082 11.9084 10.7858 11.9084C10.9686 11.9084 11.1462 11.8405 11.282 11.6995C11.5589 11.4226 11.5589 10.9786 11.282 10.7018L6.82101 6.23034L11.2925 1.75889C11.5693 1.48203 11.5693 1.03802 11.2925 0.761168Z" fill="black"/>
</svg>
