<svg width="34" height="22" viewBox="0 0 34 22" fill="none" xmlns="http://www.w3.org/2000/svg">
<path d="M29.9974 0.0449219H4.00283C2.11756 0.0449219 0.58252 1.57997 0.58252 3.46529V18.5148C0.58252 20.4 2.11756 21.9351 4.00283 21.9351H29.9973C31.8826 21.9351 33.4176 20.4 33.4176 18.5148V3.46529C33.4177 1.57997 31.8826 0.0449219 29.9974 0.0449219ZM32.0495 18.5147C32.0495 19.6462 31.1288 20.5669 29.9974 20.5669H4.00283C2.87136 20.5669 1.95063 19.6462 1.95063 18.5147V3.46529C1.95063 2.33383 2.87136 1.4131 4.00283 1.4131H29.9973C31.1288 1.4131 32.0495 2.33383 32.0495 3.46529V18.5147H32.0495Z" fill="#BD00FF"/>
<path d="M32.7336 4.14941H1.26661C0.889002 4.14941 0.58252 4.4559 0.58252 4.8335V8.93789C0.58252 9.3155 0.889002 9.62198 1.26661 9.62198H32.7336C33.1112 9.62198 33.4177 9.3155 33.4177 8.93789V4.8335C33.4177 4.4559 33.1112 4.14941 32.7336 4.14941ZM32.0496 8.25381H1.95063V5.51752H32.0495V8.25381H32.0496Z" fill="#BD00FF"/>
<path d="M13.5794 13.7256H5.37061C4.99301 13.7256 4.68652 14.0321 4.68652 14.4097C4.68652 14.7873 4.99301 15.0937 5.37061 15.0937H13.5794C13.957 15.0937 14.2635 14.7872 14.2635 14.4096C14.2635 14.032 13.957 13.7256 13.5794 13.7256Z" fill="#BD00FF"/>
<path d="M13.5799 16.4619H5.3711C4.99349 16.4619 4.68701 16.7684 4.68701 17.146C4.68701 17.5236 4.99349 17.8301 5.3711 17.8301H13.5799C13.9575 17.8301 14.264 17.5236 14.264 17.146C14.2639 16.7684 13.9575 16.4619 13.5799 16.4619Z" fill="#BD00FF"/>
<path d="M27.2611 12.3584H25.893C24.7616 12.3584 23.8408 13.2791 23.8408 14.4106V15.7787C23.8408 16.9102 24.7616 17.8309 25.893 17.8309H27.2611C28.3926 17.8309 29.3133 16.9102 29.3133 15.7787V14.4106C29.3133 13.2792 28.3926 12.3584 27.2611 12.3584ZM27.9452 15.7788C27.9452 16.1564 27.6387 16.4629 27.2611 16.4629H25.893C25.5154 16.4629 25.2089 16.1564 25.2089 15.7788V14.4107C25.2089 14.0331 25.5154 13.7266 25.893 13.7266H27.2611C27.6387 13.7266 27.9452 14.0331 27.9452 14.4107V15.7788Z" fill="#BD00FF"/>
</svg>
