<svg width="79" height="79" viewBox="0 0 79 79" fill="none" xmlns="http://www.w3.org/2000/svg">
<rect x="0.396484" y="0.204102" width="78.2065" height="78.2065" rx="5" fill="#00A3C7"/>
<path d="M51.2313 65.7015H27.7693C26.2137 65.7015 24.7218 65.0836 23.6218 63.9836C22.5218 62.8836 21.9038 61.3917 21.9038 59.836V57.8809C21.9038 57.3623 22.1098 56.865 22.4765 56.4984C22.8431 56.1317 23.3404 55.9257 23.859 55.9257C24.3775 55.9257 24.8748 56.1317 25.2415 56.4984C25.6081 56.865 25.8141 57.3623 25.8141 57.8809V59.836C25.8141 60.3546 26.0201 60.8519 26.3868 61.2185C26.7535 61.5852 27.2508 61.7912 27.7693 61.7912H51.2313C51.7498 61.7912 52.2471 61.5852 52.6138 61.2185C52.9804 60.8519 53.1864 60.3546 53.1864 59.836V18.7776C53.1864 18.2591 52.9804 17.7618 52.6138 17.3951C52.2471 17.0284 51.7498 16.8224 51.2313 16.8224H27.7693C27.2508 16.8224 26.7535 17.0284 26.3868 17.3951C26.0201 17.7618 25.8141 18.2591 25.8141 18.7776V46.1499C25.8141 46.6684 25.6081 47.1657 25.2415 47.5324C24.8748 47.8991 24.3775 48.1051 23.859 48.1051C23.3404 48.1051 22.8431 47.8991 22.4765 47.5324C22.1098 47.1657 21.9038 46.6684 21.9038 46.1499V18.7776C21.9038 17.222 22.5218 15.7301 23.6218 14.6301C24.7218 13.5301 26.2137 12.9121 27.7693 12.9121H51.2313C52.7869 12.9121 54.2788 13.5301 55.3788 14.6301C56.4788 15.7301 57.0968 17.222 57.0968 18.7776V59.836C57.0968 61.3917 56.4788 62.8836 55.3788 63.9836C54.2788 65.0836 52.7869 65.7015 51.2313 65.7015Z" fill="white"/>
<path d="M33.6349 36.374H29.7246V40.2844H33.6349V36.374Z" fill="white"/>
<path d="M41.4552 36.374H37.5449V40.2844H41.4552V36.374Z" fill="white"/>
<path d="M33.6349 44.1943H29.7246V48.1047H33.6349V44.1943Z" fill="white"/>
<path d="M41.4552 44.1943H37.5449V48.1047H41.4552V44.1943Z" fill="white"/>
<path d="M33.6349 52.0156H29.7246V55.926H33.6349V52.0156Z" fill="white"/>
<path d="M43.4104 52.0156H37.5449V55.926H43.4104V52.0156Z" fill="white"/>
<path d="M49.276 36.374H45.3657V40.2844H49.276V36.374Z" fill="white"/>
<path d="M49.276 44.1943H45.3657V48.1047H49.276V44.1943Z" fill="white"/>
<path d="M49.276 50.0605H45.3657V55.926H49.276V50.0605Z" fill="white"/>
<path d="M47.3211 32.4634H31.6798C31.1612 32.4634 30.6639 32.2574 30.2973 31.8907C29.9306 31.5241 29.7246 31.0268 29.7246 30.5082V22.6876C29.7246 22.169 29.9306 21.6717 30.2973 21.3051C30.6639 20.9384 31.1612 20.7324 31.6798 20.7324H47.3211C47.8396 20.7324 48.3369 20.9384 48.7036 21.3051C49.0703 21.6717 49.2762 22.169 49.2762 22.6876V30.5082C49.2762 31.0268 49.0703 31.5241 48.7036 31.8907C48.3369 32.2574 47.8396 32.4634 47.3211 32.4634ZM33.6349 28.5531H45.3659V24.6427H33.6349V28.5531Z" fill="white"/>
<path d="M23.859 53.9709C24.9388 53.9709 25.8141 53.0955 25.8141 52.0157C25.8141 50.9359 24.9388 50.0605 23.859 50.0605C22.7792 50.0605 21.9038 50.9359 21.9038 52.0157C21.9038 53.0955 22.7792 53.9709 23.859 53.9709Z" fill="white"/>
</svg>
