<svg width="30" height="27" viewBox="0 0 30 27" fill="none" xmlns="http://www.w3.org/2000/svg">
<path d="M28.4274 12.9376H28.2742V8.75177C28.2742 7.44537 27.3067 6.3639 26.0512 6.17819V5.23647C26.0512 3.80013 24.8827 2.63163 23.4464 2.63163H22.2923L21.6846 1.01203C21.5985 0.782195 21.3462 0.660533 21.1133 0.735921L15.2292 2.63163H3.21718C1.99474 2.63163 1 3.62637 1 4.84881V23.3977C1 24.834 2.1685 26.0026 3.60484 26.0026H25.6694C27.1057 26.0026 28.2742 24.834 28.2742 23.3977V19.2119H28.4274C29.0189 19.2119 29.5 18.7308 29.5 18.1393V14.0102C29.5 13.419 29.0189 12.9376 28.4274 12.9376ZM22.6373 3.55129H23.4464C24.3755 3.55129 25.1318 4.30731 25.1318 5.23678V6.14724H23.6115L23.5199 5.903L22.6373 3.55129ZM21.3104 2.63194L22.0572 4.62203L22.6297 6.14724H7.31566L20.9779 1.74599L21.3104 2.63194ZM3.21718 3.55129H12.3752L6.60163 5.41145L4.31765 6.14724H3.21718C2.50161 6.14724 1.91935 5.56499 1.91935 4.84942C1.91935 4.13386 2.50161 3.55129 3.21718 3.55129ZM27.3548 23.3977C27.3548 24.3272 26.5985 25.0832 25.6694 25.0832H3.60484C2.67568 25.0832 1.91935 24.3272 1.91935 23.3977V6.64584C1.92579 6.65074 1.93345 6.65381 1.94019 6.65871C2.02048 6.7154 2.10415 6.7672 2.19179 6.81316C2.20803 6.82174 2.22519 6.8291 2.24174 6.83737C2.32295 6.87752 2.40661 6.91276 2.49303 6.94279C2.50774 6.948 2.52184 6.95382 2.53655 6.95873C2.63216 6.98968 2.73053 7.01297 2.83135 7.03074C2.85373 7.03473 2.8764 7.03779 2.89908 7.04116C3.00327 7.05618 3.109 7.0666 3.21718 7.0666H4.38966H4.46168H22.9744H23.2928H25.6694C26.5985 7.0666 27.3548 7.82262 27.3548 8.75208V12.9379H24.3093C22.873 12.9379 21.7045 14.1064 21.7045 15.5427V16.6074C21.7045 18.0437 22.873 19.2122 24.3093 19.2122H27.3548V23.3977ZM28.5806 18.1393C28.5806 18.2239 28.5117 18.2925 28.4274 18.2925H28.2742H24.3093C23.3802 18.2925 22.6238 17.5365 22.6238 16.6071V15.5424C22.6238 14.613 23.3802 13.857 24.3093 13.857H28.2742H28.4274C28.5117 13.857 28.5806 13.9256 28.5806 14.0102V18.1393Z" fill="#043D69" stroke="#043D69" strokeWidth="0.8"/>
</svg>
