<svg width="22" height="22" viewBox="0 0 22 22" fill="none" xmlns="http://www.w3.org/2000/svg">
<path d="M19.5736 9.74355H19.2878L18.2879 3.60069C18.0021 2.17212 16.8593 1.17212 15.4307 1.17212H12.4307H9.57357H6.43071C5.00214 1.17212 3.85928 2.17212 3.57357 3.60069L2.57356 9.74355H2.43071C1.57356 9.74355 1.00214 10.4578 1.00214 11.1721V16.8864C1.00214 17.7435 1.57356 18.315 2.43071 18.315H3.85928V19.7435C3.85928 20.4578 4.57356 21.1721 5.28785 21.1721C6.00214 21.1721 6.71642 20.6007 6.71642 19.7435V18.315H15.2879V19.7435C15.2879 20.4578 16.0021 21.1721 16.7164 21.1721C17.4307 21.1721 18.145 20.6007 18.145 19.7435V18.315H19.5736C20.4307 18.315 21.0021 17.7435 21.0021 16.8864V11.1721C21.0021 10.4578 20.2879 9.74355 19.5736 9.74355Z" stroke="white" strokemiterlimitv="10" strokeLinecap="round" strokeLinejoin="round"/>
<path d="M6.43068 4.0293H9.43068H15.4307L16.4307 9.74358H12.4307H9.57354H5.43068L6.43068 4.0293ZM5.28782 15.4579C4.43068 15.4579 3.85925 14.8864 3.85925 14.0293C3.85925 13.1722 4.43068 12.6007 5.28782 12.6007C6.14497 12.6007 6.7164 13.1722 6.7164 14.0293C6.7164 14.8864 6.00211 15.4579 5.28782 15.4579ZM16.7164 15.4579C15.8593 15.4579 15.2878 14.8864 15.2878 14.0293C15.2878 13.1722 15.8593 12.6007 16.7164 12.6007C17.5735 12.6007 18.145 13.1722 18.145 14.0293C18.145 14.8864 17.4307 15.4579 16.7164 15.4579Z" stroke="white" strokemiterlimitv="10" strokeLinecap="round" strokeLinejoin="round"/>
</svg>
