<svg width="52" height="82" viewBox="0 0 52 82" fill="none" xmlns="http://www.w3.org/2000/svg">
<path d="M25.7583 58.862C26.4602 58.862 27.0292 58.3316 27.0292 57.6772C27.0292 57.0229 26.4602 56.4924 25.7583 56.4924C25.0563 56.4924 24.4873 57.0229 24.4873 57.6772C24.4873 58.3316 25.0563 58.862 25.7583 58.862Z" fill="white"/>
<path d="M11.3928 20.6137C12.1911 20.6137 12.8383 20.0104 12.8383 19.2662C12.8383 18.522 12.1911 17.9187 11.3928 17.9187C10.5944 17.9187 9.94727 18.522 9.94727 19.2662C9.94727 20.0104 10.5944 20.6137 11.3928 20.6137Z" fill="black"/>
<path d="M45.2324 0.494629H6.2836C2.81326 0.494629 0 3.11717 0 6.35223V75.5186C0 78.7537 2.81326 81.3762 6.2836 81.3762H45.2324C48.7028 81.3762 51.516 78.7537 51.516 75.5186V6.35223C51.516 3.11717 48.7028 0.494629 45.2324 0.494629Z" fill="#2C2A2D"/>
<path d="M50.2379 67.1491V75.4521C50.2379 76.7091 49.7023 77.9145 48.7489 78.8032C47.7955 79.692 46.5024 80.1913 45.1541 80.1913H6.36116C5.01285 80.1913 3.71976 79.692 2.76636 78.8032C1.81296 77.9145 1.27734 76.7091 1.27734 75.4521V6.4374C1.27734 5.1805 1.81296 3.97507 2.76636 3.08631C3.71976 2.19754 5.01285 1.69824 6.36116 1.69824H45.1541C46.5024 1.69824 47.7955 2.19754 48.7489 3.08631C49.7023 3.97507 50.2379 5.1805 50.2379 6.4374V67.1491Z" fill="url(#paint0_linear_65_1207)"/>
<path d="M45.1541 1.69824H40.0703C41.4186 1.69824 42.7117 2.19754 43.6651 3.08631C44.6185 3.97507 45.1541 5.1805 45.1541 6.4374V75.4521C45.1541 76.7091 44.6185 77.9145 43.6651 78.8032C42.7117 79.692 41.4186 80.1913 40.0703 80.1913H45.1541C46.5024 80.1913 47.7955 79.692 48.7489 78.8032C49.7023 77.9145 50.2379 76.7091 50.2379 75.4521V6.4374C50.2379 5.1805 49.7023 3.97507 48.7489 3.08631C47.7955 2.19754 46.5024 1.69824 45.1541 1.69824Z" fill="#063A4F"/>
<path d="M14.1143 1.67944L16.2207 5.57819C16.4641 6.02675 16.8363 6.40352 17.2959 6.66654C17.7554 6.92955 18.2843 7.06848 18.8236 7.06786H32.6922C33.2315 7.06848 33.7603 6.92955 34.2199 6.66654C34.6795 6.40352 35.0517 6.02675 35.2951 5.57819L37.4015 1.67944" fill="#E1E1E3"/>
<path d="M32.3177 1.67944L30.2113 5.57819C29.9679 6.02675 29.5956 6.40352 29.1361 6.66654C28.6765 6.92955 28.1477 7.06848 27.6084 7.06786H32.6922C33.2315 7.06848 33.7603 6.92955 34.2199 6.66654C34.6795 6.40352 35.0517 6.02675 35.2951 5.57819L37.4015 1.67944H32.3177Z" fill="#DADADC"/>
<path d="M11.3994 30.0589L25.3172 19.7575C25.4374 19.6678 25.5869 19.6189 25.7409 19.6189C25.8949 19.6189 26.0443 19.6678 26.1645 19.7575L40.1213 30.0589H11.3994Z" fill="white"/>
<path d="M26.1594 19.7575C26.0392 19.6678 25.8898 19.6189 25.7358 19.6189C25.5818 19.6189 25.4324 19.6678 25.3121 19.7575L24.4648 20.3894L37.5709 30.0636H40.1128L26.1594 19.7575Z" fill="white"/>
<path d="M37.1961 34.6924H32.1123V48.2258H37.1961V34.6924Z" fill="white"/>
<path d="M37.1962 34.6924H34.6543V48.2258H37.1962V34.6924Z" fill="#4E7898"/>
<path d="M19.4032 32.4873H14.3193V48.226H19.4032V32.4873Z" fill="#DADADC"/>
<path d="M19.4032 34.6924H16.8613V48.2258H19.4032V34.6924Z" fill="#C8C5CC"/>
<path d="M40.1162 52.965H11.3994V50.5954C11.3994 49.967 11.6672 49.3642 12.1439 48.9199C12.6206 48.4755 13.2672 48.2258 13.9413 48.2258H37.5743C38.2484 48.2258 38.895 48.4755 39.3717 48.9199C39.8484 49.3642 40.1162 49.967 40.1162 50.5954V52.965Z" fill="white"/>
<path d="M37.5741 48.2258H35.0322C35.7064 48.2258 36.3529 48.4755 36.8296 48.9199C37.3063 49.3642 37.5741 49.967 37.5741 50.5954V52.965H40.116V50.5954C40.116 49.967 39.8482 49.3642 39.3715 48.9199C38.8948 48.4755 38.2483 48.2258 37.5741 48.2258Z" fill="white"/>
<path d="M39.4384 34.7982H12.0773C11.8975 34.7982 11.7251 34.7317 11.5979 34.6132C11.4708 34.4947 11.3994 34.3339 11.3994 34.1664V30.0591H40.1162V34.1664C40.1162 34.3339 40.0448 34.4947 39.9177 34.6132C39.7905 34.7317 39.6181 34.7982 39.4384 34.7982Z" fill="white"/>
<path d="M37.5743 30.0591V34.1664C37.5743 34.3339 37.5029 34.4947 37.3758 34.6132C37.2487 34.7317 37.0763 34.7982 36.8965 34.7982H39.4384C39.6182 34.7982 39.7906 34.7317 39.9177 34.6132C40.0448 34.4947 40.1162 34.3339 40.1162 34.1664V30.0591H37.5743Z" fill="white"/>
<path d="M26.9442 60.1179C26.9442 59.8836 26.8697 59.6545 26.73 59.4597C26.5904 59.2649 26.3919 59.113 26.1597 59.0233C25.9274 58.9337 25.6719 58.9102 25.4253 58.9559C25.1788 59.0016 24.9523 59.1145 24.7746 59.2802C24.5968 59.4459 24.4758 59.657 24.4267 59.8868C24.3777 60.1166 24.4029 60.3548 24.4991 60.5713C24.5953 60.7878 24.7582 60.9729 24.9672 61.103C25.1762 61.2332 25.4219 61.3027 25.6733 61.3027C26.0104 61.3027 26.3336 61.1779 26.572 60.9557C26.8103 60.7335 26.9442 60.4322 26.9442 60.1179ZM37.3627 74.2564H14.1466C13.8095 74.2564 13.4862 74.3812 13.2479 74.6034C13.0095 74.8256 12.8756 75.127 12.8756 75.4412C12.8756 75.7554 13.0095 76.0568 13.2479 76.279C13.4862 76.5012 13.8095 76.626 14.1466 76.626H37.3627C37.6998 76.626 38.023 76.5012 38.2614 76.279C38.4997 76.0568 38.6336 75.7554 38.6336 75.4412C38.6336 75.127 38.4997 74.8256 38.2614 74.6034C38.023 74.3812 37.6998 74.2564 37.3627 74.2564ZM21.8604 60.1179C21.8604 59.8836 21.7859 59.6545 21.6462 59.4597C21.5066 59.2649 21.3081 59.113 21.0758 59.0233C20.8436 58.9337 20.5881 58.9102 20.3415 58.9559C20.095 59.0016 19.8685 59.1145 19.6908 59.2802C19.513 59.4459 19.392 59.657 19.3429 59.8868C19.2939 60.1166 19.3191 60.3548 19.4153 60.5713C19.5115 60.7878 19.6744 60.9729 19.8834 61.103C20.0924 61.2332 20.3381 61.3027 20.5895 61.3027C20.9265 61.3027 21.2498 61.1779 21.4882 60.9557C21.7265 60.7335 21.8604 60.4322 21.8604 60.1179ZM45.1545 0.502503H37.6203C37.474 0.478007 37.3242 0.478007 37.178 0.502503H14.3313C14.1856 0.478027 14.0364 0.478027 13.8907 0.502503H6.35986C4.67427 0.503338 3.05791 1.12758 1.86555 2.23822C0.673182 3.34886 0.00224421 4.85514 0 6.42645V75.4412C0.00224179 77.0117 0.672481 78.5173 1.86375 79.6278C3.05501 80.7383 4.67007 81.3631 6.35477 81.3652H45.1545C46.8393 81.3635 48.4546 80.7388 49.646 79.6282C50.8374 78.5176 51.5075 77.0118 51.5092 75.4412V6.42645C51.5075 4.85583 50.8374 3.35003 49.646 2.23943C48.4546 1.12884 46.8393 0.504175 45.1545 0.502503ZM35.3258 2.87208L34.1582 5.03472C34.0212 5.28797 33.8111 5.50053 33.5515 5.64846C33.2919 5.79638 32.9932 5.87379 32.6889 5.87197H18.8237C18.5194 5.87379 18.2207 5.79638 17.9611 5.64846C17.7015 5.50053 17.4914 5.28797 17.3545 5.03472L16.1869 2.87208H35.3258ZM48.9741 75.4412C48.9728 76.3835 48.5706 77.2868 47.8559 77.9531C47.1411 78.6194 46.1721 78.9943 45.1613 78.9956H6.35986C5.34903 78.9943 4.38 78.6194 3.66524 77.9531C2.95048 77.2868 2.54834 76.3835 2.54699 75.4412V6.42645C2.54834 5.48416 2.95048 4.58082 3.66524 3.91452C4.38 3.24821 5.34903 2.87333 6.35986 2.87208H13.3416L15.082 6.09945C15.4304 6.74495 15.9653 7.28692 16.6264 7.66427C17.2875 8.04163 18.0485 8.23937 18.8237 8.23523H32.6906C33.4661 8.23949 34.2273 8.0418 34.8887 7.66445C35.5501 7.2871 36.0853 6.74508 36.434 6.09945L38.1778 2.87208H45.1579C46.1694 2.87208 47.1396 3.24646 47.8552 3.91294C48.5708 4.57942 48.9732 5.48348 48.9741 6.42645V75.4412ZM40.5316 28.9295L26.5308 18.5034C26.3053 18.3363 26.0257 18.2453 25.7377 18.2453C25.4496 18.2453 25.1701 18.3363 24.9446 18.5034L10.9099 28.9501C10.6784 29.04 10.4806 29.1918 10.3416 29.3863C10.2026 29.5809 10.1285 29.8095 10.1287 30.0432V34.7824C10.1287 35.0966 10.2626 35.398 10.5009 35.6202C10.7393 35.8424 11.0625 35.9672 11.3996 35.9672H13.0485V47.1247C12.2171 47.3126 11.4774 47.7552 10.9479 48.3817C10.4185 49.0081 10.13 49.7821 10.1287 50.5796V52.9492C10.1287 53.2634 10.2626 53.5648 10.5009 53.7869C10.7393 54.0091 11.0625 54.134 11.3996 54.134H40.1164C40.4535 54.134 40.7768 54.0091 41.0151 53.7869C41.2535 53.5648 41.3874 53.2634 41.3874 52.9492V50.5796C41.3849 49.7829 41.0958 49.01 40.5665 48.3845C40.0372 47.7591 39.2981 47.3172 38.4676 47.1295V35.9719H40.1164C40.4535 35.9719 40.7768 35.8471 41.0151 35.6249C41.2535 35.4027 41.3874 35.1014 41.3874 34.7871V30.048C41.3871 29.8018 41.3045 29.5618 41.1511 29.3613C40.9978 29.1609 40.7812 29.01 40.5316 28.9295ZM25.7377 20.9504L36.3679 28.8632H15.1057L25.7377 20.9504ZM38.8455 50.5843V51.7691H12.6706V50.5843C12.6706 50.2701 12.8045 49.9687 13.0428 49.7466C13.2812 49.5244 13.6044 49.3995 13.9415 49.3995H37.5745C37.9114 49.4 38.2345 49.5249 38.4727 49.747C38.711 49.9691 38.845 50.2702 38.8455 50.5843ZM15.5904 47.03V35.9719H18.1323V47.03H15.5904ZM20.6742 47.03V35.9719H30.8418V47.03H20.6742ZM33.3837 47.03V35.9719H35.9256V47.03H33.3837ZM38.8455 33.6024H12.6706V31.2328H38.8455V33.6024ZM25.7377 24.5695C25.4518 24.5695 25.1723 24.6486 24.9346 24.7966C24.6969 24.9447 24.5116 25.1551 24.4022 25.4014C24.2928 25.6476 24.2642 25.9185 24.32 26.1799C24.3757 26.4413 24.5134 26.6814 24.7156 26.8698C24.9177 27.0583 25.1753 27.1866 25.4557 27.2386C25.7361 27.2906 26.0267 27.2639 26.2908 27.1619C26.555 27.06 26.7807 26.8872 26.9396 26.6657C27.0984 26.4441 27.1832 26.1835 27.1832 25.917C27.1832 25.5596 27.0309 25.2169 26.7598 24.9642C26.4887 24.7115 26.121 24.5695 25.7377 24.5695ZM32.0281 60.1132C32.0281 59.8789 31.9535 59.6498 31.8139 59.455C31.6742 59.2601 31.4757 59.1083 31.2435 59.0186C31.0112 58.9289 30.7557 58.9054 30.5092 58.9512C30.2626 58.9969 30.0361 59.1097 29.8584 59.2754C29.6807 59.4411 29.5596 59.6522 29.5106 59.8821C29.4615 60.1119 29.4867 60.3501 29.5829 60.5666C29.6791 60.7831 29.842 60.9681 30.051 61.0983C30.26 61.2285 30.5057 61.298 30.7571 61.298C31.0933 61.298 31.4158 61.1738 31.654 60.9526C31.8922 60.7315 32.0267 60.4313 32.0281 60.1179V60.1132Z" fill="#4E7898"/>
<defs>
<linearGradient id="paint0_linear_65_1207" x1="25.7576" y1="1.69824" x2="25.7576" y2="80.1913" gradientUnits="userSpaceOnUse">
<stop stopColor="#063A4F"/>
<stop offset="1" stopColor="#5D0440"/>
</linearGradient>
</defs>
</svg>
