<svg width="25" height="25" viewBox="0 0 25 25" fill="none" xmlns="http://www.w3.org/2000/svg">
<path d="M2.4022 7.00806H21.6022C22.5135 7.00806 23.2522 7.74679 23.2522 8.65806V21.8581C23.2522 22.7693 22.5135 23.5081 21.6022 23.5081H2.4022C1.49093 23.5081 0.752197 22.7693 0.752197 21.8581V8.65806C0.752197 7.74679 1.49093 7.00806 2.4022 7.00806Z" stroke="white" strokeWidth="1.5" strokeLinecap="round" strokeLinejoin="round"/>
<mask id="path-2-inside-1_435_1307" fill="white">
<path fillRule="evenodd" clipRule="evenodd" d="M18.0022 0.258057L12.0022 6.25806L6.0022 0.258057"/>
</mask>
<path d="M19.0629 1.31872C19.6486 0.73293 19.6486 -0.216817 19.0629 -0.802603C18.4771 -1.38839 17.5273 -1.38839 16.9415 -0.802603L19.0629 1.31872ZM12.0022 6.25806L10.9415 7.31872C11.5273 7.9045 12.4771 7.9045 13.0629 7.31872L12.0022 6.25806ZM7.06286 -0.802603C6.47707 -1.38839 5.52732 -1.38839 4.94154 -0.802603C4.35575 -0.216817 4.35575 0.73293 4.94154 1.31872L7.06286 -0.802603ZM16.9415 -0.802603L10.9415 5.1974L13.0629 7.31872L19.0629 1.31872L16.9415 -0.802603ZM13.0629 5.1974L7.06286 -0.802603L4.94154 1.31872L10.9415 7.31872L13.0629 5.1974Z" fill="white" mask="url(#path-2-inside-1_435_1307)"/>
</svg>
