<svg width="60" height="61" viewBox="0 0 60 61" fill="none" xmlns="http://www.w3.org/2000/svg">
<rect y="0.481445" width="60" height="60" rx="15" fill="#FFB800" fill-opacity="0.1"/>
<path d="M42.4418 32.0265H38.7725V28.1802H42.4418C42.9932 28.1802 43.4401 27.6933 43.4401 27.0918C43.4401 26.4903 42.9932 26.003 42.4418 26.003H38.7725V20.6662C38.7725 19.8871 38.6313 19.3153 38.3531 18.967C38.0886 18.6356 37.7409 18.4814 37.2594 18.4814C36.8 18.4814 36.4654 18.6346 36.2061 18.9639C35.9311 19.3125 35.7915 19.8854 35.7915 20.6665V26.0037H28.8892L25.9545 21.1601C25.7033 20.7278 25.4671 20.3229 25.2378 19.9343C25.0313 19.5842 24.8299 19.2992 24.6397 19.0864C24.4713 18.8981 24.2794 18.7523 24.0549 18.6402C23.8431 18.5347 23.5739 18.4818 23.2553 18.4818C22.849 18.4818 22.4802 18.6032 22.127 18.8526C21.7775 19.0993 21.536 19.4043 21.3884 19.7851C21.2589 20.1471 21.1904 20.7016 21.1904 21.4174V26.0033H17.5575C17.0062 26.0034 16.5596 26.4906 16.5596 27.0921C16.5596 27.6936 17.0062 28.1805 17.5575 28.1805H21.1904V32.0272H17.5575C17.0062 32.0272 16.5596 32.5143 16.5596 33.116C16.5596 33.7173 17.0062 34.2041 17.5575 34.2041H21.1904V40.2974C21.1904 41.0534 21.3361 41.6194 21.6246 41.9791C21.8989 42.322 22.2468 42.4812 22.7192 42.4812C23.1749 42.4812 23.5201 42.3213 23.8063 41.9777C24.0994 41.6257 24.2476 41.0601 24.2476 40.2975V34.2041H30.4934L33.8733 39.8567C34.1083 40.2303 34.351 40.6075 34.593 40.9773C34.8114 41.3094 35.0496 41.602 35.3009 41.8464C35.5273 42.0675 35.7699 42.2294 36.0222 42.3283C36.2819 42.4302 36.5854 42.4819 36.9222 42.4819C37.8362 42.4819 38.7724 42.1767 38.7724 39.9133V34.2041H42.4417C42.9931 34.2041 43.44 33.7166 43.44 33.1153C43.4401 32.514 42.9932 32.0265 42.4418 32.0265ZM35.7914 28.1802V32.0264H32.5393L30.209 28.1802H35.7914ZM24.2477 23.7607L25.5888 26.003H24.2477V23.7607ZM24.2477 32.0265V28.1802H26.8911L29.1913 32.0265H24.2477ZM35.7914 37.395L33.8586 34.2041H35.7914V37.395Z" fill="#FFB800"/>
</svg>
