<svg width="19" height="19" viewBox="0 0 19 19" fill="none" xmlns="http://www.w3.org/2000/svg">
<path d="M18.6662 0.376943C18.2205 -0.0686814 17.5059 -0.0686814 17.0602 0.376943L9.86299 7.57419L2.66573 0.376943C2.22011 -0.0686814 1.50543 -0.0686814 1.0598 0.376943C0.61418 0.822567 0.61418 1.53725 1.0598 1.98287L8.25706 9.18012L1.0598 16.3774C0.61418 16.823 0.61418 17.5377 1.0598 17.9833C1.27841 18.2019 1.57269 18.3196 1.85856 18.3196C2.14444 18.3196 2.43872 18.2103 2.65732 17.9833L9.85458 10.7861L17.0518 17.9833C17.2704 18.2019 17.5647 18.3196 17.8506 18.3196C18.1449 18.3196 18.4307 18.2103 18.6493 17.9833C19.095 17.5377 19.095 16.823 18.6493 16.3774L11.4689 9.18012L18.6662 1.98287C19.1118 1.53725 19.1118 0.822567 18.6662 0.376943Z" fill="black"/>
</svg>
