<svg width="45" height="45" viewBox="0 0 45 45" fill="none" xmlns="http://www.w3.org/2000/svg">
<rect width="45" height="45" rx="5" fill="#FFB800" fill-opacity="0.1"/>
<path d="M31.8316 23.6588H29.0796V20.7741H31.8316C32.2451 20.7741 32.5803 20.4089 32.5803 19.9578C32.5803 19.5066 32.2451 19.1412 31.8316 19.1412H29.0796V15.1385C29.0796 14.5543 28.9737 14.1254 28.765 13.8642C28.5667 13.6156 28.3059 13.5 27.9448 13.5C27.6003 13.5 27.3493 13.6148 27.1548 13.8618C26.9486 14.1233 26.8439 14.553 26.8439 15.1388V19.1417H21.6672L19.4661 15.509C19.2777 15.1848 19.1006 14.8811 18.9286 14.5896C18.7737 14.3271 18.6227 14.1133 18.48 13.9538C18.3537 13.8125 18.2098 13.7031 18.0414 13.6191C17.8826 13.54 17.6806 13.5003 17.4417 13.5003C17.137 13.5003 16.8604 13.5913 16.5955 13.7784C16.3334 13.9634 16.1522 14.1922 16.0416 14.4778C15.9444 14.7492 15.893 15.1651 15.893 15.702V19.1414H13.1683C12.7549 19.1415 12.4199 19.5069 12.4199 19.958C12.4199 20.4091 12.7549 20.7743 13.1684 20.7743H15.8931V23.6593H13.1684C12.7549 23.6593 12.4199 24.0247 12.4199 24.4759C12.4199 24.9269 12.7549 25.292 13.1684 25.292H15.8931V29.862C15.8931 30.429 16.0023 30.8535 16.2187 31.1232C16.4244 31.3804 16.6853 31.4998 17.0396 31.4998C17.3814 31.4998 17.6403 31.3799 17.855 31.1222C18.0748 30.8582 18.186 30.434 18.186 29.862V25.292H22.8703L25.4052 29.5314C25.5815 29.8117 25.7635 30.0945 25.945 30.3719C26.1088 30.621 26.2874 30.8404 26.4759 31.0237C26.6457 31.1895 26.8277 31.311 27.0169 31.3851C27.2116 31.4616 27.4393 31.5004 27.6919 31.5004C28.3774 31.5004 29.0795 31.2715 29.0795 29.5739V25.292H31.8315C32.2451 25.292 32.5803 24.9263 32.5803 24.4754C32.5803 24.0244 32.2451 23.6588 31.8316 23.6588ZM26.8438 20.7741V23.6587H24.4047L22.657 20.7741H26.8438ZM18.186 17.4595L19.1919 19.1412H18.186V17.4595ZM18.186 23.6588V20.7741H20.1686L21.8937 23.6588H18.186ZM26.8438 27.6851L25.3942 25.292H26.8438V27.6851Z" fill="#FFB800"/>
</svg>
