<svg width="31" height="31" viewBox="0 0 31 31" fill="none" xmlns="http://www.w3.org/2000/svg">
<path d="M9.92565 6.36795C9.8314 6.46283 9.75987 6.5772 9.70012 6.70259L9.69339 6.69581L0.254828 28.101L0.264085 28.1104C0.0890471 28.4518 0.381898 29.1465 0.981906 29.7514C1.58191 30.3554 2.27197 30.6503 2.6111 30.474L2.61952 30.4825L23.8815 20.9795L23.8748 20.9719C23.9985 20.9126 24.1121 20.8406 24.2072 20.744C25.5217 19.4207 23.3901 15.1296 19.4475 11.1597C15.5033 7.18973 11.241 5.04463 9.92565 6.36795V6.36795Z" fill="#DD2E44"/>
<path d="M11.0819 10.1905L0.492138 27.5631L0.254828 28.101L0.264085 28.1104C0.0890471 28.4518 0.381898 29.1465 0.981906 29.7514C1.17714 29.9479 1.37995 30.097 1.57855 30.2233L14.448 14.4265L11.0819 10.1905Z" fill="#EA596E"/>
<path d="M19.5071 11.0936C23.437 15.0517 25.6191 19.2707 24.3787 20.5178C23.1391 21.7666 18.9483 19.5706 15.0159 15.6142C11.0851 11.6561 8.90387 7.43541 10.1434 6.1875C11.3839 4.93958 15.5747 7.13551 19.5071 11.0936V11.0936Z" fill="#A0041E"/>
<path d="M15.7861 11.5536C15.6186 11.69 15.3998 11.7612 15.1684 11.7358C14.438 11.6561 13.8236 11.4003 13.3936 10.9962C12.9384 10.5683 12.7137 9.99394 12.7751 9.4187C12.8828 8.40884 13.8893 7.48201 15.6052 7.66839C16.2725 7.7404 16.5704 7.52437 16.5805 7.42101C16.5923 7.3185 16.3474 7.04316 15.68 6.9703C14.9496 6.89067 14.3353 6.63481 13.9044 6.2307C13.4492 5.80287 13.2236 5.22847 13.2859 4.65322C13.3953 3.64337 14.4009 2.71654 16.1151 2.90377C16.6015 2.95629 16.8582 2.85548 16.9667 2.79024C17.0534 2.73687 17.0879 2.68604 17.0913 2.65639C17.1014 2.55387 16.8599 2.27854 16.1909 2.20568C15.7289 2.15485 15.3939 1.73803 15.4453 1.27207C15.4949 0.806958 15.9081 0.470622 16.3718 0.521454C18.086 0.706989 18.8736 1.82783 18.7651 2.83853C18.6557 3.85008 17.6501 4.77522 15.9342 4.58968C15.4478 4.53631 15.1936 4.63797 15.0842 4.70321C14.9976 4.75573 14.9622 4.80741 14.9589 4.83622C14.9479 4.93958 15.1911 5.21407 15.8601 5.28693C17.5743 5.47331 18.362 6.5933 18.2534 7.604C18.1449 8.61386 17.1393 9.54069 15.4242 9.35346C14.9378 9.30094 14.682 9.4026 14.5726 9.46699C14.4851 9.52121 14.4514 9.57204 14.4481 9.60084C14.4371 9.70335 14.6803 9.97869 15.3485 10.0516C15.8096 10.1024 16.1454 10.5201 16.0941 10.9852C16.0705 11.2173 15.9535 11.4181 15.7861 11.5536V11.5536Z" fill="#AA8DD8"/>
<path d="M25.9441 19.3885C27.6045 18.9166 28.7498 19.6621 29.0224 20.6406C29.2951 21.6183 28.7043 22.8561 27.0449 23.3262C26.3969 23.5092 26.2025 23.821 26.2286 23.9201C26.2572 24.0201 26.5862 24.1845 27.2325 24.0006C28.892 23.5304 30.0373 24.276 30.31 25.2536C30.5843 26.2321 29.9919 27.4682 28.3315 27.9392C27.6844 28.1222 27.4892 28.4348 27.5178 28.534C27.5456 28.6331 27.8738 28.7974 28.5209 28.6144C28.9669 28.4882 29.4331 28.75 29.5585 29.1999C29.683 29.6506 29.423 30.1182 28.9753 30.2453C27.3167 30.7155 26.1705 29.9716 25.8962 28.9923C25.6235 28.0146 26.2151 26.7786 27.8763 26.3075C28.5243 26.1237 28.7186 25.8128 28.69 25.7128C28.6631 25.6137 28.3349 25.4485 27.6886 25.6315C26.0274 26.1025 24.883 25.3587 24.6095 24.3785C24.336 23.4008 24.9276 22.1647 26.5879 21.6929C27.2342 21.5107 27.4286 21.1972 27.4017 21.099C27.373 20.999 27.0457 20.8346 26.3986 21.0176C25.9509 21.1447 25.4872 20.8821 25.361 20.4322C25.2356 19.9832 25.4964 19.5156 25.9441 19.3885V19.3885Z" fill="#77B255"/>
<path d="M19.498 17.1036C19.2506 17.1036 19.0065 16.9943 18.8399 16.7859C18.5496 16.4199 18.6093 15.887 18.9712 15.5948C19.1546 15.4465 23.5306 11.9865 29.715 12.8769C30.1753 12.943 30.4951 13.3717 30.4294 13.8351C30.3638 14.2977 29.9413 14.623 29.4768 14.5535C24.0128 13.7724 20.0627 16.8867 20.0239 16.9181C19.8674 17.0435 19.6823 17.1036 19.498 17.1036V17.1036Z" fill="#AA8DD8"/>
<path d="M4.98413 13.5793C4.90419 13.5793 4.82256 13.5674 4.74177 13.5437C4.2966 13.409 4.04415 12.9371 4.17795 12.4889C5.1314 9.29246 5.99564 4.1915 4.93364 2.8614C4.81498 2.7106 4.63574 2.56234 4.22507 2.59369C3.43572 2.65469 3.51062 4.33129 3.51146 4.34823C3.5468 4.81504 3.19841 5.22169 2.73557 5.25643C2.26516 5.28523 1.86796 4.94127 1.83346 4.47446C1.74678 3.30618 2.10779 1.05603 4.09884 0.904384C4.9875 0.836609 5.72551 1.14753 6.24642 1.79987C8.24168 4.29994 6.21612 11.5477 5.79031 12.9761C5.68091 13.3429 5.34599 13.5793 4.98413 13.5793Z" fill="#77B255"/>
<path d="M21.6012 9.3433C22.2983 9.3433 22.8634 8.77434 22.8634 8.0725C22.8634 7.37067 22.2983 6.80171 21.6012 6.80171C20.904 6.80171 20.3389 7.37067 20.3389 8.0725C20.3389 8.77434 20.904 9.3433 21.6012 9.3433Z" fill="#5C913B"/>
<path d="M1.82514 16.9681C2.75467 16.9681 3.50819 16.2094 3.50819 15.2737C3.50819 14.3379 2.75467 13.5793 1.82514 13.5793C0.895618 13.5793 0.14209 14.3379 0.14209 15.2737C0.14209 16.2094 0.895618 16.9681 1.82514 16.9681Z" fill="#9266CC"/>
<path d="M27.4918 17.8152C28.1889 17.8152 28.7541 17.2463 28.7541 16.5445C28.7541 15.8426 28.1889 15.2737 27.4918 15.2737C26.7946 15.2737 26.2295 15.8426 26.2295 16.5445C26.2295 17.2463 26.7946 17.8152 27.4918 17.8152Z" fill="#5C913B"/>
<path d="M19.9181 27.9816C20.6152 27.9816 21.1803 27.4126 21.1803 26.7108C21.1803 26.009 20.6152 25.44 19.9181 25.44C19.2209 25.44 18.6558 26.009 18.6558 26.7108C18.6558 27.4126 19.2209 27.9816 19.9181 27.9816Z" fill="#5C913B"/>
<path d="M23.705 5.10732C24.6345 5.10732 25.3881 4.34872 25.3881 3.41293C25.3881 2.47714 24.6345 1.71854 23.705 1.71854C22.7755 1.71854 22.022 2.47714 22.022 3.41293C22.022 4.34872 22.7755 5.10732 23.705 5.10732Z" fill="#FFCC4D"/>
<path d="M27.4918 8.4961C28.1889 8.4961 28.7541 7.92715 28.7541 7.22531C28.7541 6.52347 28.1889 5.95451 27.4918 5.95451C26.7946 5.95451 26.2295 6.52347 26.2295 7.22531C26.2295 7.92715 26.7946 8.4961 27.4918 8.4961Z" fill="#FFCC4D"/>
<path d="M24.9674 11.8849C25.6645 11.8849 26.2297 11.3159 26.2297 10.6141C26.2297 9.91225 25.6645 9.3433 24.9674 9.3433C24.2702 9.3433 23.7051 9.91225 23.7051 10.6141C23.7051 11.3159 24.2702 11.8849 24.9674 11.8849Z" fill="#FFCC4D"/>
<path d="M6.4537 21.204C7.15084 21.204 7.71598 20.6351 7.71598 19.9332C7.71598 19.2314 7.15084 18.6624 6.4537 18.6624C5.75655 18.6624 5.19141 19.2314 5.19141 19.9332C5.19141 20.6351 5.75655 21.204 6.4537 21.204Z" fill="#FFCC4D"/>
</svg>
